G04 #@! TF.GenerationSoftware,KiCad,Pcbnew,(5.1.6)-1*
G04 #@! TF.CreationDate,2020-08-10T15:15:50+02:00*
G04 #@! TF.ProjectId,arduinoUno-BMSmodule,61726475-696e-46f5-956e-6f2d424d536d,rev?*
G04 #@! TF.SameCoordinates,Original*
G04 #@! TF.FileFunction,Legend,Top*
G04 #@! TF.FilePolarity,Positive*
%FSLAX46Y46*%
G04 Gerber Fmt 4.6, Leading zero omitted, Abs format (unit mm)*
G04 Created by KiCad (PCBNEW (5.1.6)-1) date 2020-08-10 15:15:50*
%MOMM*%
%LPD*%
G01*
G04 APERTURE LIST*
G04 #@! TA.AperFunction,Profile*
%ADD10C,0.050000*%
G04 #@! TD*
%ADD11C,0.100000*%
%ADD12C,0.200000*%
%ADD13C,0.120000*%
%ADD14C,0.050000*%
%ADD15C,0.150000*%
G04 APERTURE END LIST*
D10*
X154000000Y-57000000D02*
X154000000Y-57900000D01*
X91000000Y-57000000D02*
X154000000Y-57000000D01*
X153484000Y-96000000D02*
X154000000Y-96000000D01*
X91000000Y-96000000D02*
X91000000Y-95900000D01*
X91000000Y-95900000D02*
X91000000Y-94973000D01*
D11*
X93341666Y-81733333D02*
X92641666Y-81733333D01*
X93141666Y-81500000D01*
X92641666Y-81266666D01*
X93341666Y-81266666D01*
X93341666Y-80633333D02*
X92975000Y-80633333D01*
X92908333Y-80666666D01*
X92875000Y-80733333D01*
X92875000Y-80866666D01*
X92908333Y-80933333D01*
X93308333Y-80633333D02*
X93341666Y-80700000D01*
X93341666Y-80866666D01*
X93308333Y-80933333D01*
X93241666Y-80966666D01*
X93175000Y-80966666D01*
X93108333Y-80933333D01*
X93075000Y-80866666D01*
X93075000Y-80700000D01*
X93041666Y-80633333D01*
X93341666Y-80000000D02*
X92641666Y-80000000D01*
X93308333Y-80000000D02*
X93341666Y-80066666D01*
X93341666Y-80200000D01*
X93308333Y-80266666D01*
X93275000Y-80300000D01*
X93208333Y-80333333D01*
X93008333Y-80333333D01*
X92941666Y-80300000D01*
X92908333Y-80266666D01*
X92875000Y-80200000D01*
X92875000Y-80066666D01*
X92908333Y-80000000D01*
X93308333Y-79400000D02*
X93341666Y-79466666D01*
X93341666Y-79600000D01*
X93308333Y-79666666D01*
X93241666Y-79700000D01*
X92975000Y-79700000D01*
X92908333Y-79666666D01*
X92875000Y-79600000D01*
X92875000Y-79466666D01*
X92908333Y-79400000D01*
X92975000Y-79366666D01*
X93041666Y-79366666D01*
X93108333Y-79700000D01*
X93341666Y-78533333D02*
X92641666Y-78533333D01*
X92908333Y-78533333D02*
X92875000Y-78466666D01*
X92875000Y-78333333D01*
X92908333Y-78266666D01*
X92941666Y-78233333D01*
X93008333Y-78200000D01*
X93208333Y-78200000D01*
X93275000Y-78233333D01*
X93308333Y-78266666D01*
X93341666Y-78333333D01*
X93341666Y-78466666D01*
X93308333Y-78533333D01*
X92875000Y-77966666D02*
X93341666Y-77800000D01*
X92875000Y-77633333D02*
X93341666Y-77800000D01*
X93508333Y-77866666D01*
X93541666Y-77900000D01*
X93575000Y-77966666D01*
X93341666Y-76833333D02*
X92641666Y-76833333D01*
X92875000Y-76566666D02*
X93341666Y-76400000D01*
X92875000Y-76233333D01*
X93341666Y-75666666D02*
X92975000Y-75666666D01*
X92908333Y-75700000D01*
X92875000Y-75766666D01*
X92875000Y-75900000D01*
X92908333Y-75966666D01*
X93308333Y-75666666D02*
X93341666Y-75733333D01*
X93341666Y-75900000D01*
X93308333Y-75966666D01*
X93241666Y-76000000D01*
X93175000Y-76000000D01*
X93108333Y-75966666D01*
X93075000Y-75900000D01*
X93075000Y-75733333D01*
X93041666Y-75666666D01*
X92875000Y-75333333D02*
X93341666Y-75333333D01*
X92941666Y-75333333D02*
X92908333Y-75300000D01*
X92875000Y-75233333D01*
X92875000Y-75133333D01*
X92908333Y-75066666D01*
X92975000Y-75033333D01*
X93341666Y-75033333D01*
X93308333Y-74200000D02*
X93341666Y-74100000D01*
X93341666Y-73933333D01*
X93308333Y-73866666D01*
X93275000Y-73833333D01*
X93208333Y-73800000D01*
X93141666Y-73800000D01*
X93075000Y-73833333D01*
X93041666Y-73866666D01*
X93008333Y-73933333D01*
X92975000Y-74066666D01*
X92941666Y-74133333D01*
X92908333Y-74166666D01*
X92841666Y-74200000D01*
X92775000Y-74200000D01*
X92708333Y-74166666D01*
X92675000Y-74133333D01*
X92641666Y-74066666D01*
X92641666Y-73900000D01*
X92675000Y-73800000D01*
X93341666Y-73200000D02*
X92975000Y-73200000D01*
X92908333Y-73233333D01*
X92875000Y-73300000D01*
X92875000Y-73433333D01*
X92908333Y-73500000D01*
X93308333Y-73200000D02*
X93341666Y-73266666D01*
X93341666Y-73433333D01*
X93308333Y-73500000D01*
X93241666Y-73533333D01*
X93175000Y-73533333D01*
X93108333Y-73500000D01*
X93075000Y-73433333D01*
X93075000Y-73266666D01*
X93041666Y-73200000D01*
X93341666Y-72866666D02*
X92875000Y-72866666D01*
X92941666Y-72866666D02*
X92908333Y-72833333D01*
X92875000Y-72766666D01*
X92875000Y-72666666D01*
X92908333Y-72600000D01*
X92975000Y-72566666D01*
X93341666Y-72566666D01*
X92975000Y-72566666D02*
X92908333Y-72533333D01*
X92875000Y-72466666D01*
X92875000Y-72366666D01*
X92908333Y-72300000D01*
X92975000Y-72266666D01*
X93341666Y-72266666D01*
X93341666Y-71633333D02*
X92975000Y-71633333D01*
X92908333Y-71666666D01*
X92875000Y-71733333D01*
X92875000Y-71866666D01*
X92908333Y-71933333D01*
X93308333Y-71633333D02*
X93341666Y-71700000D01*
X93341666Y-71866666D01*
X93308333Y-71933333D01*
X93241666Y-71966666D01*
X93175000Y-71966666D01*
X93108333Y-71933333D01*
X93075000Y-71866666D01*
X93075000Y-71700000D01*
X93041666Y-71633333D01*
X93341666Y-71300000D02*
X92875000Y-71300000D01*
X93008333Y-71300000D02*
X92941666Y-71266666D01*
X92908333Y-71233333D01*
X92875000Y-71166666D01*
X92875000Y-71100000D01*
X93341666Y-70566666D02*
X92641666Y-70566666D01*
X93308333Y-70566666D02*
X93341666Y-70633333D01*
X93341666Y-70766666D01*
X93308333Y-70833333D01*
X93275000Y-70866666D01*
X93208333Y-70900000D01*
X93008333Y-70900000D01*
X92941666Y-70866666D01*
X92908333Y-70833333D01*
X92875000Y-70766666D01*
X92875000Y-70633333D01*
X92908333Y-70566666D01*
X92875000Y-70300000D02*
X92875000Y-69933333D01*
X93341666Y-70300000D01*
X93341666Y-69933333D01*
X93341666Y-69666666D02*
X92875000Y-69666666D01*
X92641666Y-69666666D02*
X92675000Y-69700000D01*
X92708333Y-69666666D01*
X92675000Y-69633333D01*
X92641666Y-69666666D01*
X92708333Y-69666666D01*
X93308333Y-69033333D02*
X93341666Y-69100000D01*
X93341666Y-69233333D01*
X93308333Y-69300000D01*
X93275000Y-69333333D01*
X93208333Y-69366666D01*
X93008333Y-69366666D01*
X92941666Y-69333333D01*
X92908333Y-69300000D01*
X92875000Y-69233333D01*
X92875000Y-69100000D01*
X92908333Y-69033333D01*
X94491666Y-84483333D02*
X93791666Y-84483333D01*
X94491666Y-84183333D02*
X94125000Y-84183333D01*
X94058333Y-84216666D01*
X94025000Y-84283333D01*
X94025000Y-84383333D01*
X94058333Y-84450000D01*
X94091666Y-84483333D01*
X94025000Y-83950000D02*
X94025000Y-83683333D01*
X93791666Y-83850000D02*
X94391666Y-83850000D01*
X94458333Y-83816666D01*
X94491666Y-83750000D01*
X94491666Y-83683333D01*
X94025000Y-83550000D02*
X94025000Y-83283333D01*
X93791666Y-83450000D02*
X94391666Y-83450000D01*
X94458333Y-83416666D01*
X94491666Y-83350000D01*
X94491666Y-83283333D01*
X94025000Y-83050000D02*
X94725000Y-83050000D01*
X94058333Y-83050000D02*
X94025000Y-82983333D01*
X94025000Y-82850000D01*
X94058333Y-82783333D01*
X94091666Y-82750000D01*
X94158333Y-82716666D01*
X94358333Y-82716666D01*
X94425000Y-82750000D01*
X94458333Y-82783333D01*
X94491666Y-82850000D01*
X94491666Y-82983333D01*
X94458333Y-83050000D01*
X94458333Y-82450000D02*
X94491666Y-82383333D01*
X94491666Y-82250000D01*
X94458333Y-82183333D01*
X94391666Y-82150000D01*
X94358333Y-82150000D01*
X94291666Y-82183333D01*
X94258333Y-82250000D01*
X94258333Y-82350000D01*
X94225000Y-82416666D01*
X94158333Y-82450000D01*
X94125000Y-82450000D01*
X94058333Y-82416666D01*
X94025000Y-82350000D01*
X94025000Y-82250000D01*
X94058333Y-82183333D01*
X94425000Y-81850000D02*
X94458333Y-81816666D01*
X94491666Y-81850000D01*
X94458333Y-81883333D01*
X94425000Y-81850000D01*
X94491666Y-81850000D01*
X94058333Y-81850000D02*
X94091666Y-81816666D01*
X94125000Y-81850000D01*
X94091666Y-81883333D01*
X94058333Y-81850000D01*
X94125000Y-81850000D01*
X93758333Y-81016666D02*
X94658333Y-81616666D01*
X93758333Y-80283333D02*
X94658333Y-80883333D01*
X94025000Y-79750000D02*
X94591666Y-79750000D01*
X94658333Y-79783333D01*
X94691666Y-79816666D01*
X94725000Y-79883333D01*
X94725000Y-79983333D01*
X94691666Y-80050000D01*
X94458333Y-79750000D02*
X94491666Y-79816666D01*
X94491666Y-79950000D01*
X94458333Y-80016666D01*
X94425000Y-80050000D01*
X94358333Y-80083333D01*
X94158333Y-80083333D01*
X94091666Y-80050000D01*
X94058333Y-80016666D01*
X94025000Y-79950000D01*
X94025000Y-79816666D01*
X94058333Y-79750000D01*
X94491666Y-79416666D02*
X94025000Y-79416666D01*
X93791666Y-79416666D02*
X93825000Y-79450000D01*
X93858333Y-79416666D01*
X93825000Y-79383333D01*
X93791666Y-79416666D01*
X93858333Y-79416666D01*
X94025000Y-79183333D02*
X94025000Y-78916666D01*
X93791666Y-79083333D02*
X94391666Y-79083333D01*
X94458333Y-79050000D01*
X94491666Y-78983333D01*
X94491666Y-78916666D01*
X94491666Y-78683333D02*
X93791666Y-78683333D01*
X94491666Y-78383333D02*
X94125000Y-78383333D01*
X94058333Y-78416666D01*
X94025000Y-78483333D01*
X94025000Y-78583333D01*
X94058333Y-78650000D01*
X94091666Y-78683333D01*
X94025000Y-77750000D02*
X94491666Y-77750000D01*
X94025000Y-78050000D02*
X94391666Y-78050000D01*
X94458333Y-78016666D01*
X94491666Y-77950000D01*
X94491666Y-77850000D01*
X94458333Y-77783333D01*
X94425000Y-77750000D01*
X94491666Y-77416666D02*
X93791666Y-77416666D01*
X94058333Y-77416666D02*
X94025000Y-77350000D01*
X94025000Y-77216666D01*
X94058333Y-77150000D01*
X94091666Y-77116666D01*
X94158333Y-77083333D01*
X94358333Y-77083333D01*
X94425000Y-77116666D01*
X94458333Y-77150000D01*
X94491666Y-77216666D01*
X94491666Y-77350000D01*
X94458333Y-77416666D01*
X94425000Y-76783333D02*
X94458333Y-76750000D01*
X94491666Y-76783333D01*
X94458333Y-76816666D01*
X94425000Y-76783333D01*
X94491666Y-76783333D01*
X94458333Y-76150000D02*
X94491666Y-76216666D01*
X94491666Y-76350000D01*
X94458333Y-76416666D01*
X94425000Y-76450000D01*
X94358333Y-76483333D01*
X94158333Y-76483333D01*
X94091666Y-76450000D01*
X94058333Y-76416666D01*
X94025000Y-76350000D01*
X94025000Y-76216666D01*
X94058333Y-76150000D01*
X94491666Y-75750000D02*
X94458333Y-75816666D01*
X94425000Y-75850000D01*
X94358333Y-75883333D01*
X94158333Y-75883333D01*
X94091666Y-75850000D01*
X94058333Y-75816666D01*
X94025000Y-75750000D01*
X94025000Y-75650000D01*
X94058333Y-75583333D01*
X94091666Y-75550000D01*
X94158333Y-75516666D01*
X94358333Y-75516666D01*
X94425000Y-75550000D01*
X94458333Y-75583333D01*
X94491666Y-75650000D01*
X94491666Y-75750000D01*
X94491666Y-75216666D02*
X94025000Y-75216666D01*
X94091666Y-75216666D02*
X94058333Y-75183333D01*
X94025000Y-75116666D01*
X94025000Y-75016666D01*
X94058333Y-74950000D01*
X94125000Y-74916666D01*
X94491666Y-74916666D01*
X94125000Y-74916666D02*
X94058333Y-74883333D01*
X94025000Y-74816666D01*
X94025000Y-74716666D01*
X94058333Y-74650000D01*
X94125000Y-74616666D01*
X94491666Y-74616666D01*
X93758333Y-73783333D02*
X94658333Y-74383333D01*
X94491666Y-73550000D02*
X93791666Y-73550000D01*
X94025000Y-73283333D02*
X94491666Y-73116666D01*
X94025000Y-72950000D01*
X94491666Y-72383333D02*
X94125000Y-72383333D01*
X94058333Y-72416666D01*
X94025000Y-72483333D01*
X94025000Y-72616666D01*
X94058333Y-72683333D01*
X94458333Y-72383333D02*
X94491666Y-72450000D01*
X94491666Y-72616666D01*
X94458333Y-72683333D01*
X94391666Y-72716666D01*
X94325000Y-72716666D01*
X94258333Y-72683333D01*
X94225000Y-72616666D01*
X94225000Y-72450000D01*
X94191666Y-72383333D01*
X94025000Y-72050000D02*
X94491666Y-72050000D01*
X94091666Y-72050000D02*
X94058333Y-72016666D01*
X94025000Y-71950000D01*
X94025000Y-71850000D01*
X94058333Y-71783333D01*
X94125000Y-71750000D01*
X94491666Y-71750000D01*
X94458333Y-71450000D02*
X94491666Y-71350000D01*
X94491666Y-71183333D01*
X94458333Y-71116666D01*
X94425000Y-71083333D01*
X94358333Y-71050000D01*
X94291666Y-71050000D01*
X94225000Y-71083333D01*
X94191666Y-71116666D01*
X94158333Y-71183333D01*
X94125000Y-71316666D01*
X94091666Y-71383333D01*
X94058333Y-71416666D01*
X93991666Y-71450000D01*
X93925000Y-71450000D01*
X93858333Y-71416666D01*
X93825000Y-71383333D01*
X93791666Y-71316666D01*
X93791666Y-71150000D01*
X93825000Y-71050000D01*
X94491666Y-70450000D02*
X94125000Y-70450000D01*
X94058333Y-70483333D01*
X94025000Y-70550000D01*
X94025000Y-70683333D01*
X94058333Y-70750000D01*
X94458333Y-70450000D02*
X94491666Y-70516666D01*
X94491666Y-70683333D01*
X94458333Y-70750000D01*
X94391666Y-70783333D01*
X94325000Y-70783333D01*
X94258333Y-70750000D01*
X94225000Y-70683333D01*
X94225000Y-70516666D01*
X94191666Y-70450000D01*
X94491666Y-70116666D02*
X94025000Y-70116666D01*
X94091666Y-70116666D02*
X94058333Y-70083333D01*
X94025000Y-70016666D01*
X94025000Y-69916666D01*
X94058333Y-69850000D01*
X94125000Y-69816666D01*
X94491666Y-69816666D01*
X94125000Y-69816666D02*
X94058333Y-69783333D01*
X94025000Y-69716666D01*
X94025000Y-69616666D01*
X94058333Y-69550000D01*
X94125000Y-69516666D01*
X94491666Y-69516666D01*
X94491666Y-68883333D02*
X94125000Y-68883333D01*
X94058333Y-68916666D01*
X94025000Y-68983333D01*
X94025000Y-69116666D01*
X94058333Y-69183333D01*
X94458333Y-68883333D02*
X94491666Y-68950000D01*
X94491666Y-69116666D01*
X94458333Y-69183333D01*
X94391666Y-69216666D01*
X94325000Y-69216666D01*
X94258333Y-69183333D01*
X94225000Y-69116666D01*
X94225000Y-68950000D01*
X94191666Y-68883333D01*
X94491666Y-68550000D02*
X94025000Y-68550000D01*
X94158333Y-68550000D02*
X94091666Y-68516666D01*
X94058333Y-68483333D01*
X94025000Y-68416666D01*
X94025000Y-68350000D01*
X94491666Y-67816666D02*
X93791666Y-67816666D01*
X94458333Y-67816666D02*
X94491666Y-67883333D01*
X94491666Y-68016666D01*
X94458333Y-68083333D01*
X94425000Y-68116666D01*
X94358333Y-68150000D01*
X94158333Y-68150000D01*
X94091666Y-68116666D01*
X94058333Y-68083333D01*
X94025000Y-68016666D01*
X94025000Y-67883333D01*
X94058333Y-67816666D01*
X94025000Y-67550000D02*
X94025000Y-67183333D01*
X94491666Y-67550000D01*
X94491666Y-67183333D01*
X94491666Y-66916666D02*
X94025000Y-66916666D01*
X93791666Y-66916666D02*
X93825000Y-66950000D01*
X93858333Y-66916666D01*
X93825000Y-66883333D01*
X93791666Y-66916666D01*
X93858333Y-66916666D01*
X94458333Y-66283333D02*
X94491666Y-66350000D01*
X94491666Y-66483333D01*
X94458333Y-66550000D01*
X94425000Y-66583333D01*
X94358333Y-66616666D01*
X94158333Y-66616666D01*
X94091666Y-66583333D01*
X94058333Y-66550000D01*
X94025000Y-66483333D01*
X94025000Y-66350000D01*
X94058333Y-66283333D01*
D12*
X97067904Y-60634571D02*
X97210761Y-60682190D01*
X97258380Y-60729809D01*
X97306000Y-60825047D01*
X97306000Y-60967904D01*
X97258380Y-61063142D01*
X97210761Y-61110761D01*
X97115523Y-61158380D01*
X96734571Y-61158380D01*
X96734571Y-60158380D01*
X97067904Y-60158380D01*
X97163142Y-60206000D01*
X97210761Y-60253619D01*
X97258380Y-60348857D01*
X97258380Y-60444095D01*
X97210761Y-60539333D01*
X97163142Y-60586952D01*
X97067904Y-60634571D01*
X96734571Y-60634571D01*
X97686952Y-60872666D02*
X98163142Y-60872666D01*
X97591714Y-61158380D02*
X97925047Y-60158380D01*
X98258380Y-61158380D01*
X98448857Y-60158380D02*
X99020285Y-60158380D01*
X98734571Y-61158380D02*
X98734571Y-60158380D01*
X99210761Y-60158380D02*
X99782190Y-60158380D01*
X99496476Y-61158380D02*
X99496476Y-60158380D01*
X100115523Y-60777428D02*
X100877428Y-60777428D01*
X100496476Y-61158380D02*
X100496476Y-60396476D01*
D10*
X91000000Y-94973000D02*
X91000000Y-57000000D01*
X93921000Y-96000000D02*
X91000000Y-96000000D01*
X153484000Y-96000000D02*
X93921000Y-96000000D01*
X154000000Y-57900000D02*
X154000000Y-96000000D01*
D12*
X127508095Y-58682000D02*
X127412857Y-58634380D01*
X127270000Y-58634380D01*
X127127142Y-58682000D01*
X127031904Y-58777238D01*
X126984285Y-58872476D01*
X126936666Y-59062952D01*
X126936666Y-59205809D01*
X126984285Y-59396285D01*
X127031904Y-59491523D01*
X127127142Y-59586761D01*
X127270000Y-59634380D01*
X127365238Y-59634380D01*
X127508095Y-59586761D01*
X127555714Y-59539142D01*
X127555714Y-59205809D01*
X127365238Y-59205809D01*
X127984285Y-59634380D02*
X127984285Y-58634380D01*
X128555714Y-59634380D01*
X128555714Y-58634380D01*
X129031904Y-59634380D02*
X129031904Y-58634380D01*
X129270000Y-58634380D01*
X129412857Y-58682000D01*
X129508095Y-58777238D01*
X129555714Y-58872476D01*
X129603333Y-59062952D01*
X129603333Y-59205809D01*
X129555714Y-59396285D01*
X129508095Y-59491523D01*
X129412857Y-59586761D01*
X129270000Y-59634380D01*
X129031904Y-59634380D01*
X95687047Y-84034380D02*
X95877523Y-84034380D01*
X95972761Y-84082000D01*
X96068000Y-84177238D01*
X96115619Y-84367714D01*
X96115619Y-84701047D01*
X96068000Y-84891523D01*
X95972761Y-84986761D01*
X95877523Y-85034380D01*
X95687047Y-85034380D01*
X95591809Y-84986761D01*
X95496571Y-84891523D01*
X95448952Y-84701047D01*
X95448952Y-84367714D01*
X95496571Y-84177238D01*
X95591809Y-84082000D01*
X95687047Y-84034380D01*
X96544190Y-85034380D02*
X96544190Y-84034380D01*
X97115619Y-85034380D01*
X97115619Y-84034380D01*
X97591809Y-84653428D02*
X98353714Y-84653428D01*
X99020380Y-84034380D02*
X99210857Y-84034380D01*
X99306095Y-84082000D01*
X99401333Y-84177238D01*
X99448952Y-84367714D01*
X99448952Y-84701047D01*
X99401333Y-84891523D01*
X99306095Y-84986761D01*
X99210857Y-85034380D01*
X99020380Y-85034380D01*
X98925142Y-84986761D01*
X98829904Y-84891523D01*
X98782285Y-84701047D01*
X98782285Y-84367714D01*
X98829904Y-84177238D01*
X98925142Y-84082000D01*
X99020380Y-84034380D01*
X100210857Y-84510571D02*
X99877523Y-84510571D01*
X99877523Y-85034380D02*
X99877523Y-84034380D01*
X100353714Y-84034380D01*
X101068000Y-84510571D02*
X100734666Y-84510571D01*
X100734666Y-85034380D02*
X100734666Y-84034380D01*
X101210857Y-84034380D01*
X102353714Y-85034380D02*
X102353714Y-84034380D01*
X102734666Y-84034380D01*
X102829904Y-84082000D01*
X102877523Y-84129619D01*
X102925142Y-84224857D01*
X102925142Y-84367714D01*
X102877523Y-84462952D01*
X102829904Y-84510571D01*
X102734666Y-84558190D01*
X102353714Y-84558190D01*
X103210857Y-84034380D02*
X103782285Y-84034380D01*
X103496571Y-85034380D02*
X103496571Y-84034380D01*
X126842428Y-91010666D02*
X127318619Y-91010666D01*
X126747190Y-91296380D02*
X127080523Y-90296380D01*
X127413857Y-91296380D01*
X127747190Y-91296380D02*
X127747190Y-90629714D01*
X127747190Y-90820190D02*
X127794809Y-90724952D01*
X127842428Y-90677333D01*
X127937666Y-90629714D01*
X128032904Y-90629714D01*
X128794809Y-91296380D02*
X128794809Y-90296380D01*
X128794809Y-91248761D02*
X128699571Y-91296380D01*
X128509095Y-91296380D01*
X128413857Y-91248761D01*
X128366238Y-91201142D01*
X128318619Y-91105904D01*
X128318619Y-90820190D01*
X128366238Y-90724952D01*
X128413857Y-90677333D01*
X128509095Y-90629714D01*
X128699571Y-90629714D01*
X128794809Y-90677333D01*
X129699571Y-90629714D02*
X129699571Y-91296380D01*
X129271000Y-90629714D02*
X129271000Y-91153523D01*
X129318619Y-91248761D01*
X129413857Y-91296380D01*
X129556714Y-91296380D01*
X129651952Y-91248761D01*
X129699571Y-91201142D01*
X130175761Y-91296380D02*
X130175761Y-90629714D01*
X130175761Y-90296380D02*
X130128142Y-90344000D01*
X130175761Y-90391619D01*
X130223380Y-90344000D01*
X130175761Y-90296380D01*
X130175761Y-90391619D01*
X130651952Y-90629714D02*
X130651952Y-91296380D01*
X130651952Y-90724952D02*
X130699571Y-90677333D01*
X130794809Y-90629714D01*
X130937666Y-90629714D01*
X131032904Y-90677333D01*
X131080523Y-90772571D01*
X131080523Y-91296380D01*
X131699571Y-91296380D02*
X131604333Y-91248761D01*
X131556714Y-91201142D01*
X131509095Y-91105904D01*
X131509095Y-90820190D01*
X131556714Y-90724952D01*
X131604333Y-90677333D01*
X131699571Y-90629714D01*
X131842428Y-90629714D01*
X131937666Y-90677333D01*
X131985285Y-90724952D01*
X132032904Y-90820190D01*
X132032904Y-91105904D01*
X131985285Y-91201142D01*
X131937666Y-91248761D01*
X131842428Y-91296380D01*
X131699571Y-91296380D01*
X133223380Y-90296380D02*
X133223380Y-91105904D01*
X133271000Y-91201142D01*
X133318619Y-91248761D01*
X133413857Y-91296380D01*
X133604333Y-91296380D01*
X133699571Y-91248761D01*
X133747190Y-91201142D01*
X133794809Y-91105904D01*
X133794809Y-90296380D01*
X134271000Y-90629714D02*
X134271000Y-91296380D01*
X134271000Y-90724952D02*
X134318619Y-90677333D01*
X134413857Y-90629714D01*
X134556714Y-90629714D01*
X134651952Y-90677333D01*
X134699571Y-90772571D01*
X134699571Y-91296380D01*
X135318619Y-91296380D02*
X135223380Y-91248761D01*
X135175761Y-91201142D01*
X135128142Y-91105904D01*
X135128142Y-90820190D01*
X135175761Y-90724952D01*
X135223380Y-90677333D01*
X135318619Y-90629714D01*
X135461476Y-90629714D01*
X135556714Y-90677333D01*
X135604333Y-90724952D01*
X135651952Y-90820190D01*
X135651952Y-91105904D01*
X135604333Y-91201142D01*
X135556714Y-91248761D01*
X135461476Y-91296380D01*
X135318619Y-91296380D01*
X137175761Y-90772571D02*
X137318619Y-90820190D01*
X137366238Y-90867809D01*
X137413857Y-90963047D01*
X137413857Y-91105904D01*
X137366238Y-91201142D01*
X137318619Y-91248761D01*
X137223380Y-91296380D01*
X136842428Y-91296380D01*
X136842428Y-90296380D01*
X137175761Y-90296380D01*
X137271000Y-90344000D01*
X137318619Y-90391619D01*
X137366238Y-90486857D01*
X137366238Y-90582095D01*
X137318619Y-90677333D01*
X137271000Y-90724952D01*
X137175761Y-90772571D01*
X136842428Y-90772571D01*
X137842428Y-91296380D02*
X137842428Y-90296380D01*
X138175761Y-91010666D01*
X138509095Y-90296380D01*
X138509095Y-91296380D01*
X138937666Y-91248761D02*
X139080523Y-91296380D01*
X139318619Y-91296380D01*
X139413857Y-91248761D01*
X139461476Y-91201142D01*
X139509095Y-91105904D01*
X139509095Y-91010666D01*
X139461476Y-90915428D01*
X139413857Y-90867809D01*
X139318619Y-90820190D01*
X139128142Y-90772571D01*
X139032904Y-90724952D01*
X138985285Y-90677333D01*
X138937666Y-90582095D01*
X138937666Y-90486857D01*
X138985285Y-90391619D01*
X139032904Y-90344000D01*
X139128142Y-90296380D01*
X139366238Y-90296380D01*
X139509095Y-90344000D01*
X140699571Y-91296380D02*
X140699571Y-90629714D01*
X140699571Y-90724952D02*
X140747190Y-90677333D01*
X140842428Y-90629714D01*
X140985285Y-90629714D01*
X141080523Y-90677333D01*
X141128142Y-90772571D01*
X141128142Y-91296380D01*
X141128142Y-90772571D02*
X141175761Y-90677333D01*
X141271000Y-90629714D01*
X141413857Y-90629714D01*
X141509095Y-90677333D01*
X141556714Y-90772571D01*
X141556714Y-91296380D01*
X142175761Y-91296380D02*
X142080523Y-91248761D01*
X142032904Y-91201142D01*
X141985285Y-91105904D01*
X141985285Y-90820190D01*
X142032904Y-90724952D01*
X142080523Y-90677333D01*
X142175761Y-90629714D01*
X142318619Y-90629714D01*
X142413857Y-90677333D01*
X142461476Y-90724952D01*
X142509095Y-90820190D01*
X142509095Y-91105904D01*
X142461476Y-91201142D01*
X142413857Y-91248761D01*
X142318619Y-91296380D01*
X142175761Y-91296380D01*
X143366238Y-91296380D02*
X143366238Y-90296380D01*
X143366238Y-91248761D02*
X143271000Y-91296380D01*
X143080523Y-91296380D01*
X142985285Y-91248761D01*
X142937666Y-91201142D01*
X142890047Y-91105904D01*
X142890047Y-90820190D01*
X142937666Y-90724952D01*
X142985285Y-90677333D01*
X143080523Y-90629714D01*
X143271000Y-90629714D01*
X143366238Y-90677333D01*
X144271000Y-90629714D02*
X144271000Y-91296380D01*
X143842428Y-90629714D02*
X143842428Y-91153523D01*
X143890047Y-91248761D01*
X143985285Y-91296380D01*
X144128142Y-91296380D01*
X144223380Y-91248761D01*
X144271000Y-91201142D01*
X144890047Y-91296380D02*
X144794809Y-91248761D01*
X144747190Y-91153523D01*
X144747190Y-90296380D01*
X145651952Y-91248761D02*
X145556714Y-91296380D01*
X145366238Y-91296380D01*
X145271000Y-91248761D01*
X145223380Y-91153523D01*
X145223380Y-90772571D01*
X145271000Y-90677333D01*
X145366238Y-90629714D01*
X145556714Y-90629714D01*
X145651952Y-90677333D01*
X145699571Y-90772571D01*
X145699571Y-90867809D01*
X145223380Y-90963047D01*
X125628142Y-92472571D02*
X125961476Y-92472571D01*
X126104333Y-92996380D02*
X125628142Y-92996380D01*
X125628142Y-91996380D01*
X126104333Y-91996380D01*
X126437666Y-92996380D02*
X126961476Y-92329714D01*
X126437666Y-92329714D02*
X126961476Y-92996380D01*
X127199571Y-92329714D02*
X127580523Y-92329714D01*
X127342428Y-91996380D02*
X127342428Y-92853523D01*
X127390047Y-92948761D01*
X127485285Y-92996380D01*
X127580523Y-92996380D01*
X128294809Y-92948761D02*
X128199571Y-92996380D01*
X128009095Y-92996380D01*
X127913857Y-92948761D01*
X127866238Y-92853523D01*
X127866238Y-92472571D01*
X127913857Y-92377333D01*
X128009095Y-92329714D01*
X128199571Y-92329714D01*
X128294809Y-92377333D01*
X128342428Y-92472571D01*
X128342428Y-92567809D01*
X127866238Y-92663047D01*
X128771000Y-92329714D02*
X128771000Y-92996380D01*
X128771000Y-92424952D02*
X128818619Y-92377333D01*
X128913857Y-92329714D01*
X129056714Y-92329714D01*
X129151952Y-92377333D01*
X129199571Y-92472571D01*
X129199571Y-92996380D01*
X129628142Y-92948761D02*
X129723380Y-92996380D01*
X129913857Y-92996380D01*
X130009095Y-92948761D01*
X130056714Y-92853523D01*
X130056714Y-92805904D01*
X130009095Y-92710666D01*
X129913857Y-92663047D01*
X129771000Y-92663047D01*
X129675761Y-92615428D01*
X129628142Y-92520190D01*
X129628142Y-92472571D01*
X129675761Y-92377333D01*
X129771000Y-92329714D01*
X129913857Y-92329714D01*
X130009095Y-92377333D01*
X130485285Y-92996380D02*
X130485285Y-92329714D01*
X130485285Y-91996380D02*
X130437666Y-92044000D01*
X130485285Y-92091619D01*
X130532904Y-92044000D01*
X130485285Y-91996380D01*
X130485285Y-92091619D01*
X131104333Y-92996380D02*
X131009095Y-92948761D01*
X130961476Y-92901142D01*
X130913857Y-92805904D01*
X130913857Y-92520190D01*
X130961476Y-92424952D01*
X131009095Y-92377333D01*
X131104333Y-92329714D01*
X131247190Y-92329714D01*
X131342428Y-92377333D01*
X131390047Y-92424952D01*
X131437666Y-92520190D01*
X131437666Y-92805904D01*
X131390047Y-92901142D01*
X131342428Y-92948761D01*
X131247190Y-92996380D01*
X131104333Y-92996380D01*
X131866238Y-92329714D02*
X131866238Y-92996380D01*
X131866238Y-92424952D02*
X131913857Y-92377333D01*
X132009095Y-92329714D01*
X132151952Y-92329714D01*
X132247190Y-92377333D01*
X132294809Y-92472571D01*
X132294809Y-92996380D01*
X133866238Y-92472571D02*
X134009095Y-92520190D01*
X134056714Y-92567809D01*
X134104333Y-92663047D01*
X134104333Y-92805904D01*
X134056714Y-92901142D01*
X134009095Y-92948761D01*
X133913857Y-92996380D01*
X133532904Y-92996380D01*
X133532904Y-91996380D01*
X133866238Y-91996380D01*
X133961476Y-92044000D01*
X134009095Y-92091619D01*
X134056714Y-92186857D01*
X134056714Y-92282095D01*
X134009095Y-92377333D01*
X133961476Y-92424952D01*
X133866238Y-92472571D01*
X133532904Y-92472571D01*
X134675761Y-92996380D02*
X134580523Y-92948761D01*
X134532904Y-92901142D01*
X134485285Y-92805904D01*
X134485285Y-92520190D01*
X134532904Y-92424952D01*
X134580523Y-92377333D01*
X134675761Y-92329714D01*
X134818619Y-92329714D01*
X134913857Y-92377333D01*
X134961476Y-92424952D01*
X135009095Y-92520190D01*
X135009095Y-92805904D01*
X134961476Y-92901142D01*
X134913857Y-92948761D01*
X134818619Y-92996380D01*
X134675761Y-92996380D01*
X135866238Y-92996380D02*
X135866238Y-92472571D01*
X135818619Y-92377333D01*
X135723380Y-92329714D01*
X135532904Y-92329714D01*
X135437666Y-92377333D01*
X135866238Y-92948761D02*
X135771000Y-92996380D01*
X135532904Y-92996380D01*
X135437666Y-92948761D01*
X135390047Y-92853523D01*
X135390047Y-92758285D01*
X135437666Y-92663047D01*
X135532904Y-92615428D01*
X135771000Y-92615428D01*
X135866238Y-92567809D01*
X136342428Y-92996380D02*
X136342428Y-92329714D01*
X136342428Y-92520190D02*
X136390047Y-92424952D01*
X136437666Y-92377333D01*
X136532904Y-92329714D01*
X136628142Y-92329714D01*
X137390047Y-92996380D02*
X137390047Y-91996380D01*
X137390047Y-92948761D02*
X137294809Y-92996380D01*
X137104333Y-92996380D01*
X137009095Y-92948761D01*
X136961476Y-92901142D01*
X136913857Y-92805904D01*
X136913857Y-92520190D01*
X136961476Y-92424952D01*
X137009095Y-92377333D01*
X137104333Y-92329714D01*
X137294809Y-92329714D01*
X137390047Y-92377333D01*
X138485285Y-91996380D02*
X139056714Y-91996380D01*
X138771000Y-92996380D02*
X138771000Y-91996380D01*
X139390047Y-92996380D02*
X139390047Y-91996380D01*
X139390047Y-92472571D02*
X139961476Y-92472571D01*
X139961476Y-92996380D02*
X139961476Y-91996380D01*
X140294809Y-91996380D02*
X140866238Y-91996380D01*
X140580523Y-92996380D02*
X140580523Y-91996380D01*
X141818619Y-91996380D02*
X142151952Y-92996380D01*
X142485285Y-91996380D01*
X143199571Y-92948761D02*
X143104333Y-92996380D01*
X142913857Y-92996380D01*
X142818619Y-92948761D01*
X142771000Y-92853523D01*
X142771000Y-92472571D01*
X142818619Y-92377333D01*
X142913857Y-92329714D01*
X143104333Y-92329714D01*
X143199571Y-92377333D01*
X143247190Y-92472571D01*
X143247190Y-92567809D01*
X142771000Y-92663047D01*
X143675761Y-92996380D02*
X143675761Y-92329714D01*
X143675761Y-92520190D02*
X143723380Y-92424952D01*
X143771000Y-92377333D01*
X143866238Y-92329714D01*
X143961476Y-92329714D01*
X144247190Y-92948761D02*
X144342428Y-92996380D01*
X144532904Y-92996380D01*
X144628142Y-92948761D01*
X144675761Y-92853523D01*
X144675761Y-92805904D01*
X144628142Y-92710666D01*
X144532904Y-92663047D01*
X144390047Y-92663047D01*
X144294809Y-92615428D01*
X144247190Y-92520190D01*
X144247190Y-92472571D01*
X144294809Y-92377333D01*
X144390047Y-92329714D01*
X144532904Y-92329714D01*
X144628142Y-92377333D01*
X145104333Y-92996380D02*
X145104333Y-92329714D01*
X145104333Y-91996380D02*
X145056714Y-92044000D01*
X145104333Y-92091619D01*
X145151952Y-92044000D01*
X145104333Y-91996380D01*
X145104333Y-92091619D01*
X145723380Y-92996380D02*
X145628142Y-92948761D01*
X145580523Y-92901142D01*
X145532904Y-92805904D01*
X145532904Y-92520190D01*
X145580523Y-92424952D01*
X145628142Y-92377333D01*
X145723380Y-92329714D01*
X145866238Y-92329714D01*
X145961476Y-92377333D01*
X146009095Y-92424952D01*
X146056714Y-92520190D01*
X146056714Y-92805904D01*
X146009095Y-92901142D01*
X145961476Y-92948761D01*
X145866238Y-92996380D01*
X145723380Y-92996380D01*
X146485285Y-92329714D02*
X146485285Y-92996380D01*
X146485285Y-92424952D02*
X146532904Y-92377333D01*
X146628142Y-92329714D01*
X146771000Y-92329714D01*
X146866238Y-92377333D01*
X146913857Y-92472571D01*
X146913857Y-92996380D01*
X134302809Y-59713761D02*
X134445666Y-59761380D01*
X134683761Y-59761380D01*
X134779000Y-59713761D01*
X134826619Y-59666142D01*
X134874238Y-59570904D01*
X134874238Y-59475666D01*
X134826619Y-59380428D01*
X134779000Y-59332809D01*
X134683761Y-59285190D01*
X134493285Y-59237571D01*
X134398047Y-59189952D01*
X134350428Y-59142333D01*
X134302809Y-59047095D01*
X134302809Y-58951857D01*
X134350428Y-58856619D01*
X134398047Y-58809000D01*
X134493285Y-58761380D01*
X134731380Y-58761380D01*
X134874238Y-58809000D01*
X135159952Y-58761380D02*
X135731380Y-58761380D01*
X135445666Y-59761380D02*
X135445666Y-58761380D01*
X136017095Y-59475666D02*
X136493285Y-59475666D01*
X135921857Y-59761380D02*
X136255190Y-58761380D01*
X136588523Y-59761380D01*
X136779000Y-58761380D02*
X137350428Y-58761380D01*
X137064714Y-59761380D02*
X137064714Y-58761380D01*
X137683761Y-58761380D02*
X137683761Y-59570904D01*
X137731380Y-59666142D01*
X137779000Y-59713761D01*
X137874238Y-59761380D01*
X138064714Y-59761380D01*
X138159952Y-59713761D01*
X138207571Y-59666142D01*
X138255190Y-59570904D01*
X138255190Y-58761380D01*
X138683761Y-59713761D02*
X138826619Y-59761380D01*
X139064714Y-59761380D01*
X139159952Y-59713761D01*
X139207571Y-59666142D01*
X139255190Y-59570904D01*
X139255190Y-59475666D01*
X139207571Y-59380428D01*
X139159952Y-59332809D01*
X139064714Y-59285190D01*
X138874238Y-59237571D01*
X138779000Y-59189952D01*
X138731380Y-59142333D01*
X138683761Y-59047095D01*
X138683761Y-58951857D01*
X138731380Y-58856619D01*
X138779000Y-58809000D01*
X138874238Y-58761380D01*
X139112333Y-58761380D01*
X139255190Y-58809000D01*
X116633857Y-58761380D02*
X117252904Y-58761380D01*
X116919571Y-59142333D01*
X117062428Y-59142333D01*
X117157666Y-59189952D01*
X117205285Y-59237571D01*
X117252904Y-59332809D01*
X117252904Y-59570904D01*
X117205285Y-59666142D01*
X117157666Y-59713761D01*
X117062428Y-59761380D01*
X116776714Y-59761380D01*
X116681476Y-59713761D01*
X116633857Y-59666142D01*
X117681476Y-59666142D02*
X117729095Y-59713761D01*
X117681476Y-59761380D01*
X117633857Y-59713761D01*
X117681476Y-59666142D01*
X117681476Y-59761380D01*
X118062428Y-58761380D02*
X118681476Y-58761380D01*
X118348142Y-59142333D01*
X118491000Y-59142333D01*
X118586238Y-59189952D01*
X118633857Y-59237571D01*
X118681476Y-59332809D01*
X118681476Y-59570904D01*
X118633857Y-59666142D01*
X118586238Y-59713761D01*
X118491000Y-59761380D01*
X118205285Y-59761380D01*
X118110047Y-59713761D01*
X118062428Y-59666142D01*
X119729095Y-58761380D02*
X120062428Y-59761380D01*
X120395761Y-58761380D01*
X137684238Y-83272380D02*
X138017571Y-84272380D01*
X138350904Y-83272380D01*
X138874714Y-83272380D02*
X139065190Y-83272380D01*
X139160428Y-83320000D01*
X139255666Y-83415238D01*
X139303285Y-83605714D01*
X139303285Y-83939047D01*
X139255666Y-84129523D01*
X139160428Y-84224761D01*
X139065190Y-84272380D01*
X138874714Y-84272380D01*
X138779476Y-84224761D01*
X138684238Y-84129523D01*
X138636619Y-83939047D01*
X138636619Y-83605714D01*
X138684238Y-83415238D01*
X138779476Y-83320000D01*
X138874714Y-83272380D01*
X140208047Y-84272380D02*
X139731857Y-84272380D01*
X139731857Y-83272380D01*
X140398523Y-83272380D02*
X140969952Y-83272380D01*
X140684238Y-84272380D02*
X140684238Y-83272380D01*
X142065190Y-84272380D02*
X142065190Y-83272380D01*
X142446142Y-83272380D01*
X142541380Y-83320000D01*
X142589000Y-83367619D01*
X142636619Y-83462857D01*
X142636619Y-83605714D01*
X142589000Y-83700952D01*
X142541380Y-83748571D01*
X142446142Y-83796190D01*
X142065190Y-83796190D01*
X142922333Y-83272380D02*
X143493761Y-83272380D01*
X143208047Y-84272380D02*
X143208047Y-83272380D01*
X145645571Y-83272380D02*
X146217000Y-83272380D01*
X145931285Y-84272380D02*
X145931285Y-83272380D01*
X146550333Y-83748571D02*
X146883666Y-83748571D01*
X147026523Y-84272380D02*
X146550333Y-84272380D01*
X146550333Y-83272380D01*
X147026523Y-83272380D01*
X147455095Y-84272380D02*
X147455095Y-83272380D01*
X147788428Y-83986666D01*
X148121761Y-83272380D01*
X148121761Y-84272380D01*
X148597952Y-84272380D02*
X148597952Y-83272380D01*
X148978904Y-83272380D01*
X149074142Y-83320000D01*
X149121761Y-83367619D01*
X149169380Y-83462857D01*
X149169380Y-83605714D01*
X149121761Y-83700952D01*
X149074142Y-83748571D01*
X148978904Y-83796190D01*
X148597952Y-83796190D01*
X150359857Y-84272380D02*
X150359857Y-83272380D01*
X150740809Y-83272380D01*
X150836047Y-83320000D01*
X150883666Y-83367619D01*
X150931285Y-83462857D01*
X150931285Y-83605714D01*
X150883666Y-83700952D01*
X150836047Y-83748571D01*
X150740809Y-83796190D01*
X150359857Y-83796190D01*
X151217000Y-83272380D02*
X151788428Y-83272380D01*
X151502714Y-84272380D02*
X151502714Y-83272380D01*
X145320190Y-76922380D02*
X145653523Y-77922380D01*
X145986857Y-76922380D01*
X146653523Y-77398571D02*
X146796380Y-77446190D01*
X146844000Y-77493809D01*
X146891619Y-77589047D01*
X146891619Y-77731904D01*
X146844000Y-77827142D01*
X146796380Y-77874761D01*
X146701142Y-77922380D01*
X146320190Y-77922380D01*
X146320190Y-76922380D01*
X146653523Y-76922380D01*
X146748761Y-76970000D01*
X146796380Y-77017619D01*
X146844000Y-77112857D01*
X146844000Y-77208095D01*
X146796380Y-77303333D01*
X146748761Y-77350952D01*
X146653523Y-77398571D01*
X146320190Y-77398571D01*
X147272571Y-77636666D02*
X147748761Y-77636666D01*
X147177333Y-77922380D02*
X147510666Y-76922380D01*
X147844000Y-77922380D01*
X148034476Y-76922380D02*
X148605904Y-76922380D01*
X148320190Y-77922380D02*
X148320190Y-76922380D01*
X148939238Y-77541428D02*
X149701142Y-77541428D01*
X149320190Y-77922380D02*
X149320190Y-77160476D01*
X150939238Y-77922380D02*
X150939238Y-76922380D01*
X151320190Y-76922380D01*
X151415428Y-76970000D01*
X151463047Y-77017619D01*
X151510666Y-77112857D01*
X151510666Y-77255714D01*
X151463047Y-77350952D01*
X151415428Y-77398571D01*
X151320190Y-77446190D01*
X150939238Y-77446190D01*
X151796380Y-76922380D02*
X152367809Y-76922380D01*
X152082095Y-77922380D02*
X152082095Y-76922380D01*
D13*
G04 #@! TO.C,C3*
X116015000Y-75311000D02*
G75*
G03*
X116015000Y-75311000I-2620000J0D01*
G01*
G04 #@! TO.C,R4*
X99378000Y-87714000D02*
X99378000Y-85834000D01*
X99378000Y-85834000D02*
X119618000Y-85834000D01*
X119618000Y-85834000D02*
X119618000Y-87714000D01*
X99378000Y-90594000D02*
X99378000Y-92474000D01*
X99378000Y-92474000D02*
X119618000Y-92474000D01*
X119618000Y-92474000D02*
X119618000Y-90594000D01*
G04 #@! TO.C,C5*
X143352000Y-72390000D02*
G75*
G03*
X143352000Y-72390000I-2620000J0D01*
G01*
G04 #@! TO.C,C4*
X137383000Y-72517000D02*
G75*
G03*
X137383000Y-72517000I-2620000J0D01*
G01*
G04 #@! TO.C,C2*
X116020000Y-69400000D02*
G75*
G03*
X116020000Y-69400000I-2620000J0D01*
G01*
G04 #@! TO.C,C1*
X116020000Y-81100000D02*
G75*
G03*
X116020000Y-81100000I-2620000J0D01*
G01*
G04 #@! TO.C,J3*
X146117000Y-87817000D02*
X146117000Y-86487000D01*
X147447000Y-87817000D02*
X146117000Y-87817000D01*
X148717000Y-87817000D02*
X148717000Y-85157000D01*
X148717000Y-85157000D02*
X151317000Y-85157000D01*
X148717000Y-87817000D02*
X151317000Y-87817000D01*
X151317000Y-87817000D02*
X151317000Y-85157000D01*
G04 #@! TO.C,R8*
X125325000Y-65405000D02*
X124555000Y-65405000D01*
X117245000Y-65405000D02*
X118015000Y-65405000D01*
X124555000Y-64035000D02*
X118015000Y-64035000D01*
X124555000Y-66775000D02*
X124555000Y-64035000D01*
X118015000Y-66775000D02*
X124555000Y-66775000D01*
X118015000Y-64035000D02*
X118015000Y-66775000D01*
G04 #@! TO.C,D1*
X112796000Y-64791000D02*
X112796000Y-61701000D01*
X112736000Y-63246000D02*
G75*
G03*
X112736000Y-63246000I-2500000J0D01*
G01*
X107246000Y-63246462D02*
G75*
G02*
X112796000Y-61701170I2990000J462D01*
G01*
X107246000Y-63245538D02*
G75*
G03*
X112796000Y-64790830I2990000J-462D01*
G01*
D14*
G04 #@! TO.C,J1*
X99711000Y-65254000D02*
X96711000Y-65254000D01*
X96711000Y-65254000D02*
X96711000Y-62254000D01*
X96711000Y-62254000D02*
X99711000Y-62254000D01*
X99711000Y-62254000D02*
X99711000Y-65254000D01*
D13*
X104961000Y-65979000D02*
X104961000Y-61529000D01*
X104961000Y-61529000D02*
X96411000Y-61529000D01*
X96411000Y-61529000D02*
X96411000Y-65979000D01*
X96411000Y-65979000D02*
X104961000Y-65979000D01*
G04 #@! TO.C,U1*
X125938000Y-71193000D02*
X127298000Y-71193000D01*
X125688000Y-71503000D02*
X125938000Y-71193000D01*
X125688000Y-71573000D02*
X125688000Y-71503000D01*
X125688000Y-71663000D02*
X125688000Y-71573000D01*
X125688000Y-73973000D02*
X125688000Y-71663000D01*
X127298000Y-73973000D02*
X127298000Y-71193000D01*
X125688000Y-73973000D02*
X127298000Y-73973000D01*
G04 #@! TO.C,TH1*
X140108000Y-79883000D02*
X140038000Y-79883000D01*
X142848000Y-79883000D02*
G75*
G03*
X142848000Y-79883000I-1370000J0D01*
G01*
G04 #@! TO.C,R10*
X130453000Y-65405000D02*
X131223000Y-65405000D01*
X138533000Y-65405000D02*
X137763000Y-65405000D01*
X131223000Y-66775000D02*
X137763000Y-66775000D01*
X131223000Y-64035000D02*
X131223000Y-66775000D01*
X137763000Y-64035000D02*
X131223000Y-64035000D01*
X137763000Y-66775000D02*
X137763000Y-64035000D01*
G04 #@! TO.C,R9*
X125500000Y-78359000D02*
X126270000Y-78359000D01*
X133580000Y-78359000D02*
X132810000Y-78359000D01*
X126270000Y-79729000D02*
X132810000Y-79729000D01*
X126270000Y-76989000D02*
X126270000Y-79729000D01*
X132810000Y-76989000D02*
X126270000Y-76989000D01*
X132810000Y-79729000D02*
X132810000Y-76989000D01*
G04 #@! TO.C,R7*
X125500000Y-87503000D02*
X126270000Y-87503000D01*
X133580000Y-87503000D02*
X132810000Y-87503000D01*
X126270000Y-88873000D02*
X132810000Y-88873000D01*
X126270000Y-86133000D02*
X126270000Y-88873000D01*
X132810000Y-86133000D02*
X126270000Y-86133000D01*
X132810000Y-88873000D02*
X132810000Y-86133000D01*
G04 #@! TO.C,R6*
X117856000Y-79732000D02*
X117856000Y-78962000D01*
X117856000Y-71652000D02*
X117856000Y-72422000D01*
X119226000Y-78962000D02*
X119226000Y-72422000D01*
X116486000Y-78962000D02*
X119226000Y-78962000D01*
X116486000Y-72422000D02*
X116486000Y-78962000D01*
X119226000Y-72422000D02*
X116486000Y-72422000D01*
G04 #@! TO.C,R5*
X98171000Y-77573000D02*
X98171000Y-76803000D01*
X98171000Y-69493000D02*
X98171000Y-70263000D01*
X99541000Y-76803000D02*
X99541000Y-70263000D01*
X96801000Y-76803000D02*
X99541000Y-76803000D01*
X96801000Y-70263000D02*
X96801000Y-76803000D01*
X99541000Y-70263000D02*
X96801000Y-70263000D01*
G04 #@! TO.C,R3*
X102743000Y-77573000D02*
X102743000Y-76803000D01*
X102743000Y-69493000D02*
X102743000Y-70263000D01*
X104113000Y-76803000D02*
X104113000Y-70263000D01*
X101373000Y-76803000D02*
X104113000Y-76803000D01*
X101373000Y-70263000D02*
X101373000Y-76803000D01*
X104113000Y-70263000D02*
X101373000Y-70263000D01*
G04 #@! TO.C,R2*
X107100000Y-69480000D02*
X107100000Y-70250000D01*
X107100000Y-77560000D02*
X107100000Y-76790000D01*
X105730000Y-70250000D02*
X105730000Y-76790000D01*
X108470000Y-70250000D02*
X105730000Y-70250000D01*
X108470000Y-76790000D02*
X108470000Y-70250000D01*
X105730000Y-76790000D02*
X108470000Y-76790000D01*
G04 #@! TO.C,R1*
X125500000Y-83185000D02*
X126270000Y-83185000D01*
X133580000Y-83185000D02*
X132810000Y-83185000D01*
X126270000Y-84555000D02*
X132810000Y-84555000D01*
X126270000Y-81815000D02*
X126270000Y-84555000D01*
X132810000Y-81815000D02*
X126270000Y-81815000D01*
X132810000Y-84555000D02*
X132810000Y-81815000D01*
G04 #@! TO.C,Q1*
X105682000Y-80396000D02*
X107142000Y-80396000D01*
X105682000Y-83556000D02*
X107842000Y-83556000D01*
X105682000Y-83556000D02*
X105682000Y-82626000D01*
X105682000Y-80396000D02*
X105682000Y-81326000D01*
G04 #@! TO.C,L1*
X121285000Y-71652000D02*
X121285000Y-72272000D01*
X121285000Y-79732000D02*
X121285000Y-79112000D01*
X119815000Y-72272000D02*
X119815000Y-79112000D01*
X122755000Y-72272000D02*
X119815000Y-72272000D01*
X122755000Y-79112000D02*
X122755000Y-72272000D01*
X119815000Y-79112000D02*
X122755000Y-79112000D01*
G04 #@! TO.C,J8*
X134052000Y-63052000D02*
X134052000Y-61722000D01*
X135382000Y-63052000D02*
X134052000Y-63052000D01*
X136652000Y-63052000D02*
X136652000Y-60392000D01*
X136652000Y-60392000D02*
X139252000Y-60392000D01*
X136652000Y-63052000D02*
X139252000Y-63052000D01*
X139252000Y-63052000D02*
X139252000Y-60392000D01*
G04 #@! TO.C,J7*
X97095000Y-83372000D02*
X97095000Y-82042000D01*
X98425000Y-83372000D02*
X97095000Y-83372000D01*
X99695000Y-83372000D02*
X99695000Y-80712000D01*
X99695000Y-80712000D02*
X102295000Y-80712000D01*
X99695000Y-83372000D02*
X102295000Y-83372000D01*
X102295000Y-83372000D02*
X102295000Y-80712000D01*
G04 #@! TO.C,J6*
X125543000Y-62925000D02*
X125543000Y-61595000D01*
X126873000Y-62925000D02*
X125543000Y-62925000D01*
X128143000Y-62925000D02*
X128143000Y-60265000D01*
X128143000Y-60265000D02*
X130743000Y-60265000D01*
X128143000Y-62925000D02*
X130743000Y-62925000D01*
X130743000Y-62925000D02*
X130743000Y-60265000D01*
G04 #@! TO.C,J5*
X115637000Y-63052000D02*
X115637000Y-61722000D01*
X116967000Y-63052000D02*
X115637000Y-63052000D01*
X118237000Y-63052000D02*
X118237000Y-60392000D01*
X118237000Y-60392000D02*
X120837000Y-60392000D01*
X118237000Y-63052000D02*
X120837000Y-63052000D01*
X120837000Y-63052000D02*
X120837000Y-60392000D01*
G04 #@! TO.C,J4*
X146498000Y-81594000D02*
X146498000Y-80264000D01*
X147828000Y-81594000D02*
X146498000Y-81594000D01*
X149098000Y-81594000D02*
X149098000Y-78934000D01*
X149098000Y-78934000D02*
X151698000Y-78934000D01*
X149098000Y-81594000D02*
X151698000Y-81594000D01*
X151698000Y-81594000D02*
X151698000Y-78934000D01*
G04 #@! TO.C,J2*
X137989000Y-87817000D02*
X137989000Y-86487000D01*
X139319000Y-87817000D02*
X137989000Y-87817000D01*
X140589000Y-87817000D02*
X140589000Y-85157000D01*
X140589000Y-85157000D02*
X143189000Y-85157000D01*
X140589000Y-87817000D02*
X143189000Y-87817000D01*
X143189000Y-87817000D02*
X143189000Y-85157000D01*
G04 #@! TO.C,D2*
X143235000Y-66314000D02*
X146325000Y-66314000D01*
X147280000Y-63754000D02*
G75*
G03*
X147280000Y-63754000I-2500000J0D01*
G01*
X144779538Y-60764000D02*
G75*
G02*
X146324830Y-66314000I462J-2990000D01*
G01*
X144780462Y-60764000D02*
G75*
G03*
X143235170Y-66314000I-462J-2990000D01*
G01*
G04 #@! TO.C,C6*
X149092775Y-74115000D02*
X149092775Y-73615000D01*
X149342775Y-73865000D02*
X148842775Y-73865000D01*
X143937000Y-72674000D02*
X143937000Y-72106000D01*
X143977000Y-72908000D02*
X143977000Y-71872000D01*
X144017000Y-73067000D02*
X144017000Y-71713000D01*
X144057000Y-73195000D02*
X144057000Y-71585000D01*
X144097000Y-73305000D02*
X144097000Y-71475000D01*
X144137000Y-73401000D02*
X144137000Y-71379000D01*
X144177000Y-73488000D02*
X144177000Y-71292000D01*
X144217000Y-73568000D02*
X144217000Y-71212000D01*
X144257000Y-71350000D02*
X144257000Y-71139000D01*
X144257000Y-73641000D02*
X144257000Y-73430000D01*
X144297000Y-71350000D02*
X144297000Y-71071000D01*
X144297000Y-73709000D02*
X144297000Y-73430000D01*
X144337000Y-71350000D02*
X144337000Y-71007000D01*
X144337000Y-73773000D02*
X144337000Y-73430000D01*
X144377000Y-71350000D02*
X144377000Y-70947000D01*
X144377000Y-73833000D02*
X144377000Y-73430000D01*
X144417000Y-71350000D02*
X144417000Y-70890000D01*
X144417000Y-73890000D02*
X144417000Y-73430000D01*
X144457000Y-71350000D02*
X144457000Y-70836000D01*
X144457000Y-73944000D02*
X144457000Y-73430000D01*
X144497000Y-71350000D02*
X144497000Y-70785000D01*
X144497000Y-73995000D02*
X144497000Y-73430000D01*
X144537000Y-71350000D02*
X144537000Y-70737000D01*
X144537000Y-74043000D02*
X144537000Y-73430000D01*
X144577000Y-71350000D02*
X144577000Y-70691000D01*
X144577000Y-74089000D02*
X144577000Y-73430000D01*
X144617000Y-71350000D02*
X144617000Y-70647000D01*
X144617000Y-74133000D02*
X144617000Y-73430000D01*
X144657000Y-71350000D02*
X144657000Y-70605000D01*
X144657000Y-74175000D02*
X144657000Y-73430000D01*
X144697000Y-71350000D02*
X144697000Y-70564000D01*
X144697000Y-74216000D02*
X144697000Y-73430000D01*
X144737000Y-71350000D02*
X144737000Y-70526000D01*
X144737000Y-74254000D02*
X144737000Y-73430000D01*
X144777000Y-71350000D02*
X144777000Y-70489000D01*
X144777000Y-74291000D02*
X144777000Y-73430000D01*
X144817000Y-71350000D02*
X144817000Y-70453000D01*
X144817000Y-74327000D02*
X144817000Y-73430000D01*
X144857000Y-71350000D02*
X144857000Y-70419000D01*
X144857000Y-74361000D02*
X144857000Y-73430000D01*
X144897000Y-71350000D02*
X144897000Y-70386000D01*
X144897000Y-74394000D02*
X144897000Y-73430000D01*
X144937000Y-71350000D02*
X144937000Y-70355000D01*
X144937000Y-74425000D02*
X144937000Y-73430000D01*
X144977000Y-71350000D02*
X144977000Y-70325000D01*
X144977000Y-74455000D02*
X144977000Y-73430000D01*
X145017000Y-71350000D02*
X145017000Y-70295000D01*
X145017000Y-74485000D02*
X145017000Y-73430000D01*
X145057000Y-71350000D02*
X145057000Y-70268000D01*
X145057000Y-74512000D02*
X145057000Y-73430000D01*
X145097000Y-71350000D02*
X145097000Y-70241000D01*
X145097000Y-74539000D02*
X145097000Y-73430000D01*
X145137000Y-71350000D02*
X145137000Y-70215000D01*
X145137000Y-74565000D02*
X145137000Y-73430000D01*
X145177000Y-71350000D02*
X145177000Y-70190000D01*
X145177000Y-74590000D02*
X145177000Y-73430000D01*
X145217000Y-71350000D02*
X145217000Y-70166000D01*
X145217000Y-74614000D02*
X145217000Y-73430000D01*
X145257000Y-71350000D02*
X145257000Y-70143000D01*
X145257000Y-74637000D02*
X145257000Y-73430000D01*
X145297000Y-71350000D02*
X145297000Y-70122000D01*
X145297000Y-74658000D02*
X145297000Y-73430000D01*
X145337000Y-71350000D02*
X145337000Y-70100000D01*
X145337000Y-74680000D02*
X145337000Y-73430000D01*
X145377000Y-71350000D02*
X145377000Y-70080000D01*
X145377000Y-74700000D02*
X145377000Y-73430000D01*
X145417000Y-71350000D02*
X145417000Y-70061000D01*
X145417000Y-74719000D02*
X145417000Y-73430000D01*
X145457000Y-71350000D02*
X145457000Y-70042000D01*
X145457000Y-74738000D02*
X145457000Y-73430000D01*
X145497000Y-71350000D02*
X145497000Y-70025000D01*
X145497000Y-74755000D02*
X145497000Y-73430000D01*
X145537000Y-71350000D02*
X145537000Y-70008000D01*
X145537000Y-74772000D02*
X145537000Y-73430000D01*
X145577000Y-71350000D02*
X145577000Y-69992000D01*
X145577000Y-74788000D02*
X145577000Y-73430000D01*
X145617000Y-71350000D02*
X145617000Y-69976000D01*
X145617000Y-74804000D02*
X145617000Y-73430000D01*
X145657000Y-71350000D02*
X145657000Y-69962000D01*
X145657000Y-74818000D02*
X145657000Y-73430000D01*
X145697000Y-71350000D02*
X145697000Y-69948000D01*
X145697000Y-74832000D02*
X145697000Y-73430000D01*
X145737000Y-71350000D02*
X145737000Y-69935000D01*
X145737000Y-74845000D02*
X145737000Y-73430000D01*
X145777000Y-71350000D02*
X145777000Y-69922000D01*
X145777000Y-74858000D02*
X145777000Y-73430000D01*
X145817000Y-71350000D02*
X145817000Y-69910000D01*
X145817000Y-74870000D02*
X145817000Y-73430000D01*
X145858000Y-71350000D02*
X145858000Y-69899000D01*
X145858000Y-74881000D02*
X145858000Y-73430000D01*
X145898000Y-71350000D02*
X145898000Y-69889000D01*
X145898000Y-74891000D02*
X145898000Y-73430000D01*
X145938000Y-71350000D02*
X145938000Y-69879000D01*
X145938000Y-74901000D02*
X145938000Y-73430000D01*
X145978000Y-71350000D02*
X145978000Y-69870000D01*
X145978000Y-74910000D02*
X145978000Y-73430000D01*
X146018000Y-71350000D02*
X146018000Y-69862000D01*
X146018000Y-74918000D02*
X146018000Y-73430000D01*
X146058000Y-71350000D02*
X146058000Y-69854000D01*
X146058000Y-74926000D02*
X146058000Y-73430000D01*
X146098000Y-71350000D02*
X146098000Y-69847000D01*
X146098000Y-74933000D02*
X146098000Y-73430000D01*
X146138000Y-71350000D02*
X146138000Y-69840000D01*
X146138000Y-74940000D02*
X146138000Y-73430000D01*
X146178000Y-71350000D02*
X146178000Y-69834000D01*
X146178000Y-74946000D02*
X146178000Y-73430000D01*
X146218000Y-71350000D02*
X146218000Y-69829000D01*
X146218000Y-74951000D02*
X146218000Y-73430000D01*
X146258000Y-71350000D02*
X146258000Y-69825000D01*
X146258000Y-74955000D02*
X146258000Y-73430000D01*
X146298000Y-71350000D02*
X146298000Y-69821000D01*
X146298000Y-74959000D02*
X146298000Y-73430000D01*
X146338000Y-74963000D02*
X146338000Y-69817000D01*
X146378000Y-74966000D02*
X146378000Y-69814000D01*
X146418000Y-74968000D02*
X146418000Y-69812000D01*
X146458000Y-74969000D02*
X146458000Y-69811000D01*
X146498000Y-74970000D02*
X146498000Y-69810000D01*
X146538000Y-74970000D02*
X146538000Y-69810000D01*
X149158000Y-72390000D02*
G75*
G03*
X149158000Y-72390000I-2620000J0D01*
G01*
G04 #@! TD*
G04 #@! TO.C,C3*
D15*
X109633333Y-75657142D02*
X109585714Y-75704761D01*
X109442857Y-75752380D01*
X109347619Y-75752380D01*
X109204761Y-75704761D01*
X109109523Y-75609523D01*
X109061904Y-75514285D01*
X109014285Y-75323809D01*
X109014285Y-75180952D01*
X109061904Y-74990476D01*
X109109523Y-74895238D01*
X109204761Y-74800000D01*
X109347619Y-74752380D01*
X109442857Y-74752380D01*
X109585714Y-74800000D01*
X109633333Y-74847619D01*
X109966666Y-74752380D02*
X110585714Y-74752380D01*
X110252380Y-75133333D01*
X110395238Y-75133333D01*
X110490476Y-75180952D01*
X110538095Y-75228571D01*
X110585714Y-75323809D01*
X110585714Y-75561904D01*
X110538095Y-75657142D01*
X110490476Y-75704761D01*
X110395238Y-75752380D01*
X110109523Y-75752380D01*
X110014285Y-75704761D01*
X109966666Y-75657142D01*
G04 #@! TO.C,R4*
X109331333Y-85286380D02*
X108998000Y-84810190D01*
X108759904Y-85286380D02*
X108759904Y-84286380D01*
X109140857Y-84286380D01*
X109236095Y-84334000D01*
X109283714Y-84381619D01*
X109331333Y-84476857D01*
X109331333Y-84619714D01*
X109283714Y-84714952D01*
X109236095Y-84762571D01*
X109140857Y-84810190D01*
X108759904Y-84810190D01*
X110188476Y-84619714D02*
X110188476Y-85286380D01*
X109950380Y-84238761D02*
X109712285Y-84953047D01*
X110331333Y-84953047D01*
G04 #@! TO.C,C5*
X140565333Y-69191142D02*
X140517714Y-69238761D01*
X140374857Y-69286380D01*
X140279619Y-69286380D01*
X140136761Y-69238761D01*
X140041523Y-69143523D01*
X139993904Y-69048285D01*
X139946285Y-68857809D01*
X139946285Y-68714952D01*
X139993904Y-68524476D01*
X140041523Y-68429238D01*
X140136761Y-68334000D01*
X140279619Y-68286380D01*
X140374857Y-68286380D01*
X140517714Y-68334000D01*
X140565333Y-68381619D01*
X141470095Y-68286380D02*
X140993904Y-68286380D01*
X140946285Y-68762571D01*
X140993904Y-68714952D01*
X141089142Y-68667333D01*
X141327238Y-68667333D01*
X141422476Y-68714952D01*
X141470095Y-68762571D01*
X141517714Y-68857809D01*
X141517714Y-69095904D01*
X141470095Y-69191142D01*
X141422476Y-69238761D01*
X141327238Y-69286380D01*
X141089142Y-69286380D01*
X140993904Y-69238761D01*
X140946285Y-69191142D01*
G04 #@! TO.C,C4*
X134596333Y-76624142D02*
X134548714Y-76671761D01*
X134405857Y-76719380D01*
X134310619Y-76719380D01*
X134167761Y-76671761D01*
X134072523Y-76576523D01*
X134024904Y-76481285D01*
X133977285Y-76290809D01*
X133977285Y-76147952D01*
X134024904Y-75957476D01*
X134072523Y-75862238D01*
X134167761Y-75767000D01*
X134310619Y-75719380D01*
X134405857Y-75719380D01*
X134548714Y-75767000D01*
X134596333Y-75814619D01*
X135453476Y-76052714D02*
X135453476Y-76719380D01*
X135215380Y-75671761D02*
X134977285Y-76386047D01*
X135596333Y-76386047D01*
G04 #@! TO.C,C2*
X109533333Y-69857142D02*
X109485714Y-69904761D01*
X109342857Y-69952380D01*
X109247619Y-69952380D01*
X109104761Y-69904761D01*
X109009523Y-69809523D01*
X108961904Y-69714285D01*
X108914285Y-69523809D01*
X108914285Y-69380952D01*
X108961904Y-69190476D01*
X109009523Y-69095238D01*
X109104761Y-69000000D01*
X109247619Y-68952380D01*
X109342857Y-68952380D01*
X109485714Y-69000000D01*
X109533333Y-69047619D01*
X109914285Y-69047619D02*
X109961904Y-69000000D01*
X110057142Y-68952380D01*
X110295238Y-68952380D01*
X110390476Y-69000000D01*
X110438095Y-69047619D01*
X110485714Y-69142857D01*
X110485714Y-69238095D01*
X110438095Y-69380952D01*
X109866666Y-69952380D01*
X110485714Y-69952380D01*
G04 #@! TO.C,C1*
X109533333Y-81457142D02*
X109485714Y-81504761D01*
X109342857Y-81552380D01*
X109247619Y-81552380D01*
X109104761Y-81504761D01*
X109009523Y-81409523D01*
X108961904Y-81314285D01*
X108914285Y-81123809D01*
X108914285Y-80980952D01*
X108961904Y-80790476D01*
X109009523Y-80695238D01*
X109104761Y-80600000D01*
X109247619Y-80552380D01*
X109342857Y-80552380D01*
X109485714Y-80600000D01*
X109533333Y-80647619D01*
X110485714Y-81552380D02*
X109914285Y-81552380D01*
X110200000Y-81552380D02*
X110200000Y-80552380D01*
X110104761Y-80695238D01*
X110009523Y-80790476D01*
X109914285Y-80838095D01*
G04 #@! TO.C,H4*
X150241095Y-63698380D02*
X150241095Y-62698380D01*
X150241095Y-63174571D02*
X150812523Y-63174571D01*
X150812523Y-63698380D02*
X150812523Y-62698380D01*
X151717285Y-63031714D02*
X151717285Y-63698380D01*
X151479190Y-62650761D02*
X151241095Y-63365047D01*
X151860142Y-63365047D01*
G04 #@! TO.C,H3*
X150114095Y-89606380D02*
X150114095Y-88606380D01*
X150114095Y-89082571D02*
X150685523Y-89082571D01*
X150685523Y-89606380D02*
X150685523Y-88606380D01*
X151066476Y-88606380D02*
X151685523Y-88606380D01*
X151352190Y-88987333D01*
X151495047Y-88987333D01*
X151590285Y-89034952D01*
X151637904Y-89082571D01*
X151685523Y-89177809D01*
X151685523Y-89415904D01*
X151637904Y-89511142D01*
X151590285Y-89558761D01*
X151495047Y-89606380D01*
X151209333Y-89606380D01*
X151114095Y-89558761D01*
X151066476Y-89511142D01*
G04 #@! TO.C,H2*
X93345095Y-89708380D02*
X93345095Y-88708380D01*
X93345095Y-89184571D02*
X93916523Y-89184571D01*
X93916523Y-89708380D02*
X93916523Y-88708380D01*
X94345095Y-88803619D02*
X94392714Y-88756000D01*
X94487952Y-88708380D01*
X94726047Y-88708380D01*
X94821285Y-88756000D01*
X94868904Y-88803619D01*
X94916523Y-88898857D01*
X94916523Y-88994095D01*
X94868904Y-89136952D01*
X94297476Y-89708380D01*
X94916523Y-89708380D01*
G04 #@! TO.C,H1*
X93218095Y-63825380D02*
X93218095Y-62825380D01*
X93218095Y-63301571D02*
X93789523Y-63301571D01*
X93789523Y-63825380D02*
X93789523Y-62825380D01*
X94789523Y-63825380D02*
X94218095Y-63825380D01*
X94503809Y-63825380D02*
X94503809Y-62825380D01*
X94408571Y-62968238D01*
X94313333Y-63063476D01*
X94218095Y-63111095D01*
G04 #@! TO.C,J3*
X144569380Y-86820333D02*
X145283666Y-86820333D01*
X145426523Y-86867952D01*
X145521761Y-86963190D01*
X145569380Y-87106047D01*
X145569380Y-87201285D01*
X144569380Y-86439380D02*
X144569380Y-85820333D01*
X144950333Y-86153666D01*
X144950333Y-86010809D01*
X144997952Y-85915571D01*
X145045571Y-85867952D01*
X145140809Y-85820333D01*
X145378904Y-85820333D01*
X145474142Y-85867952D01*
X145521761Y-85915571D01*
X145569380Y-86010809D01*
X145569380Y-86296523D01*
X145521761Y-86391761D01*
X145474142Y-86439380D01*
G04 #@! TO.C,R8*
X122388333Y-63444380D02*
X122055000Y-62968190D01*
X121816904Y-63444380D02*
X121816904Y-62444380D01*
X122197857Y-62444380D01*
X122293095Y-62492000D01*
X122340714Y-62539619D01*
X122388333Y-62634857D01*
X122388333Y-62777714D01*
X122340714Y-62872952D01*
X122293095Y-62920571D01*
X122197857Y-62968190D01*
X121816904Y-62968190D01*
X122959761Y-62872952D02*
X122864523Y-62825333D01*
X122816904Y-62777714D01*
X122769285Y-62682476D01*
X122769285Y-62634857D01*
X122816904Y-62539619D01*
X122864523Y-62492000D01*
X122959761Y-62444380D01*
X123150238Y-62444380D01*
X123245476Y-62492000D01*
X123293095Y-62539619D01*
X123340714Y-62634857D01*
X123340714Y-62682476D01*
X123293095Y-62777714D01*
X123245476Y-62825333D01*
X123150238Y-62872952D01*
X122959761Y-62872952D01*
X122864523Y-62920571D01*
X122816904Y-62968190D01*
X122769285Y-63063428D01*
X122769285Y-63253904D01*
X122816904Y-63349142D01*
X122864523Y-63396761D01*
X122959761Y-63444380D01*
X123150238Y-63444380D01*
X123245476Y-63396761D01*
X123293095Y-63349142D01*
X123340714Y-63253904D01*
X123340714Y-63063428D01*
X123293095Y-62968190D01*
X123245476Y-62920571D01*
X123150238Y-62872952D01*
G04 #@! TO.C,D1*
X109561904Y-59752380D02*
X109561904Y-58752380D01*
X109800000Y-58752380D01*
X109942857Y-58800000D01*
X110038095Y-58895238D01*
X110085714Y-58990476D01*
X110133333Y-59180952D01*
X110133333Y-59323809D01*
X110085714Y-59514285D01*
X110038095Y-59609523D01*
X109942857Y-59704761D01*
X109800000Y-59752380D01*
X109561904Y-59752380D01*
X111085714Y-59752380D02*
X110514285Y-59752380D01*
X110800000Y-59752380D02*
X110800000Y-58752380D01*
X110704761Y-58895238D01*
X110609523Y-58990476D01*
X110514285Y-59038095D01*
G04 #@! TO.C,J1*
X100377666Y-66254380D02*
X100377666Y-66968666D01*
X100330047Y-67111523D01*
X100234809Y-67206761D01*
X100091952Y-67254380D01*
X99996714Y-67254380D01*
X101377666Y-67254380D02*
X100806238Y-67254380D01*
X101091952Y-67254380D02*
X101091952Y-66254380D01*
X100996714Y-66397238D01*
X100901476Y-66492476D01*
X100806238Y-66540095D01*
G04 #@! TO.C,U1*
X125730095Y-69429380D02*
X125730095Y-70238904D01*
X125777714Y-70334142D01*
X125825333Y-70381761D01*
X125920571Y-70429380D01*
X126111047Y-70429380D01*
X126206285Y-70381761D01*
X126253904Y-70334142D01*
X126301523Y-70238904D01*
X126301523Y-69429380D01*
X127301523Y-70429380D02*
X126730095Y-70429380D01*
X127015809Y-70429380D02*
X127015809Y-69429380D01*
X126920571Y-69572238D01*
X126825333Y-69667476D01*
X126730095Y-69715095D01*
G04 #@! TO.C,TH1*
X139049285Y-76922380D02*
X139620714Y-76922380D01*
X139335000Y-77922380D02*
X139335000Y-76922380D01*
X139954047Y-77922380D02*
X139954047Y-76922380D01*
X139954047Y-77398571D02*
X140525476Y-77398571D01*
X140525476Y-77922380D02*
X140525476Y-76922380D01*
X141525476Y-77922380D02*
X140954047Y-77922380D01*
X141239761Y-77922380D02*
X141239761Y-76922380D01*
X141144523Y-77065238D01*
X141049285Y-77160476D01*
X140954047Y-77208095D01*
G04 #@! TO.C,R10*
X133850142Y-68227380D02*
X133516809Y-67751190D01*
X133278714Y-68227380D02*
X133278714Y-67227380D01*
X133659666Y-67227380D01*
X133754904Y-67275000D01*
X133802523Y-67322619D01*
X133850142Y-67417857D01*
X133850142Y-67560714D01*
X133802523Y-67655952D01*
X133754904Y-67703571D01*
X133659666Y-67751190D01*
X133278714Y-67751190D01*
X134802523Y-68227380D02*
X134231095Y-68227380D01*
X134516809Y-68227380D02*
X134516809Y-67227380D01*
X134421571Y-67370238D01*
X134326333Y-67465476D01*
X134231095Y-67513095D01*
X135421571Y-67227380D02*
X135516809Y-67227380D01*
X135612047Y-67275000D01*
X135659666Y-67322619D01*
X135707285Y-67417857D01*
X135754904Y-67608333D01*
X135754904Y-67846428D01*
X135707285Y-68036904D01*
X135659666Y-68132142D01*
X135612047Y-68179761D01*
X135516809Y-68227380D01*
X135421571Y-68227380D01*
X135326333Y-68179761D01*
X135278714Y-68132142D01*
X135231095Y-68036904D01*
X135183476Y-67846428D01*
X135183476Y-67608333D01*
X135231095Y-67417857D01*
X135278714Y-67322619D01*
X135326333Y-67275000D01*
X135421571Y-67227380D01*
G04 #@! TO.C,R9*
X129373333Y-76652380D02*
X129040000Y-76176190D01*
X128801904Y-76652380D02*
X128801904Y-75652380D01*
X129182857Y-75652380D01*
X129278095Y-75700000D01*
X129325714Y-75747619D01*
X129373333Y-75842857D01*
X129373333Y-75985714D01*
X129325714Y-76080952D01*
X129278095Y-76128571D01*
X129182857Y-76176190D01*
X128801904Y-76176190D01*
X129849523Y-76652380D02*
X130040000Y-76652380D01*
X130135238Y-76604761D01*
X130182857Y-76557142D01*
X130278095Y-76414285D01*
X130325714Y-76223809D01*
X130325714Y-75842857D01*
X130278095Y-75747619D01*
X130230476Y-75700000D01*
X130135238Y-75652380D01*
X129944761Y-75652380D01*
X129849523Y-75700000D01*
X129801904Y-75747619D01*
X129754285Y-75842857D01*
X129754285Y-76080952D01*
X129801904Y-76176190D01*
X129849523Y-76223809D01*
X129944761Y-76271428D01*
X130135238Y-76271428D01*
X130230476Y-76223809D01*
X130278095Y-76176190D01*
X130325714Y-76080952D01*
G04 #@! TO.C,R7*
X129500333Y-85923380D02*
X129167000Y-85447190D01*
X128928904Y-85923380D02*
X128928904Y-84923380D01*
X129309857Y-84923380D01*
X129405095Y-84971000D01*
X129452714Y-85018619D01*
X129500333Y-85113857D01*
X129500333Y-85256714D01*
X129452714Y-85351952D01*
X129405095Y-85399571D01*
X129309857Y-85447190D01*
X128928904Y-85447190D01*
X129833666Y-84923380D02*
X130500333Y-84923380D01*
X130071761Y-85923380D01*
G04 #@! TO.C,R6*
X117689333Y-69286380D02*
X117356000Y-68810190D01*
X117117904Y-69286380D02*
X117117904Y-68286380D01*
X117498857Y-68286380D01*
X117594095Y-68334000D01*
X117641714Y-68381619D01*
X117689333Y-68476857D01*
X117689333Y-68619714D01*
X117641714Y-68714952D01*
X117594095Y-68762571D01*
X117498857Y-68810190D01*
X117117904Y-68810190D01*
X118546476Y-68286380D02*
X118356000Y-68286380D01*
X118260761Y-68334000D01*
X118213142Y-68381619D01*
X118117904Y-68524476D01*
X118070285Y-68714952D01*
X118070285Y-69095904D01*
X118117904Y-69191142D01*
X118165523Y-69238761D01*
X118260761Y-69286380D01*
X118451238Y-69286380D01*
X118546476Y-69238761D01*
X118594095Y-69191142D01*
X118641714Y-69095904D01*
X118641714Y-68857809D01*
X118594095Y-68762571D01*
X118546476Y-68714952D01*
X118451238Y-68667333D01*
X118260761Y-68667333D01*
X118165523Y-68714952D01*
X118117904Y-68762571D01*
X118070285Y-68857809D01*
G04 #@! TO.C,R5*
X96252380Y-73766666D02*
X95776190Y-74100000D01*
X96252380Y-74338095D02*
X95252380Y-74338095D01*
X95252380Y-73957142D01*
X95300000Y-73861904D01*
X95347619Y-73814285D01*
X95442857Y-73766666D01*
X95585714Y-73766666D01*
X95680952Y-73814285D01*
X95728571Y-73861904D01*
X95776190Y-73957142D01*
X95776190Y-74338095D01*
X95252380Y-72861904D02*
X95252380Y-73338095D01*
X95728571Y-73385714D01*
X95680952Y-73338095D01*
X95633333Y-73242857D01*
X95633333Y-73004761D01*
X95680952Y-72909523D01*
X95728571Y-72861904D01*
X95823809Y-72814285D01*
X96061904Y-72814285D01*
X96157142Y-72861904D01*
X96204761Y-72909523D01*
X96252380Y-73004761D01*
X96252380Y-73242857D01*
X96204761Y-73338095D01*
X96157142Y-73385714D01*
G04 #@! TO.C,R3*
X101052380Y-73666666D02*
X100576190Y-74000000D01*
X101052380Y-74238095D02*
X100052380Y-74238095D01*
X100052380Y-73857142D01*
X100100000Y-73761904D01*
X100147619Y-73714285D01*
X100242857Y-73666666D01*
X100385714Y-73666666D01*
X100480952Y-73714285D01*
X100528571Y-73761904D01*
X100576190Y-73857142D01*
X100576190Y-74238095D01*
X100052380Y-73333333D02*
X100052380Y-72714285D01*
X100433333Y-73047619D01*
X100433333Y-72904761D01*
X100480952Y-72809523D01*
X100528571Y-72761904D01*
X100623809Y-72714285D01*
X100861904Y-72714285D01*
X100957142Y-72761904D01*
X101004761Y-72809523D01*
X101052380Y-72904761D01*
X101052380Y-73190476D01*
X101004761Y-73285714D01*
X100957142Y-73333333D01*
G04 #@! TO.C,R2*
X105410380Y-73653666D02*
X104934190Y-73987000D01*
X105410380Y-74225095D02*
X104410380Y-74225095D01*
X104410380Y-73844142D01*
X104458000Y-73748904D01*
X104505619Y-73701285D01*
X104600857Y-73653666D01*
X104743714Y-73653666D01*
X104838952Y-73701285D01*
X104886571Y-73748904D01*
X104934190Y-73844142D01*
X104934190Y-74225095D01*
X104505619Y-73272714D02*
X104458000Y-73225095D01*
X104410380Y-73129857D01*
X104410380Y-72891761D01*
X104458000Y-72796523D01*
X104505619Y-72748904D01*
X104600857Y-72701285D01*
X104696095Y-72701285D01*
X104838952Y-72748904D01*
X105410380Y-73320333D01*
X105410380Y-72701285D01*
G04 #@! TO.C,R1*
X129627333Y-81605380D02*
X129294000Y-81129190D01*
X129055904Y-81605380D02*
X129055904Y-80605380D01*
X129436857Y-80605380D01*
X129532095Y-80653000D01*
X129579714Y-80700619D01*
X129627333Y-80795857D01*
X129627333Y-80938714D01*
X129579714Y-81033952D01*
X129532095Y-81081571D01*
X129436857Y-81129190D01*
X129055904Y-81129190D01*
X130579714Y-81605380D02*
X130008285Y-81605380D01*
X130294000Y-81605380D02*
X130294000Y-80605380D01*
X130198761Y-80748238D01*
X130103523Y-80843476D01*
X130008285Y-80891095D01*
G04 #@! TO.C,Q1*
X103704761Y-82447619D02*
X103609523Y-82400000D01*
X103514285Y-82304761D01*
X103371428Y-82161904D01*
X103276190Y-82114285D01*
X103180952Y-82114285D01*
X103228571Y-82352380D02*
X103133333Y-82304761D01*
X103038095Y-82209523D01*
X102990476Y-82019047D01*
X102990476Y-81685714D01*
X103038095Y-81495238D01*
X103133333Y-81400000D01*
X103228571Y-81352380D01*
X103419047Y-81352380D01*
X103514285Y-81400000D01*
X103609523Y-81495238D01*
X103657142Y-81685714D01*
X103657142Y-82019047D01*
X103609523Y-82209523D01*
X103514285Y-82304761D01*
X103419047Y-82352380D01*
X103228571Y-82352380D01*
X104609523Y-82352380D02*
X104038095Y-82352380D01*
X104323809Y-82352380D02*
X104323809Y-81352380D01*
X104228571Y-81495238D01*
X104133333Y-81590476D01*
X104038095Y-81638095D01*
G04 #@! TO.C,L1*
X120991333Y-69286380D02*
X120515142Y-69286380D01*
X120515142Y-68286380D01*
X121848476Y-69286380D02*
X121277047Y-69286380D01*
X121562761Y-69286380D02*
X121562761Y-68286380D01*
X121467523Y-68429238D01*
X121372285Y-68524476D01*
X121277047Y-68572095D01*
G04 #@! TO.C,J8*
X132421380Y-61928333D02*
X133135666Y-61928333D01*
X133278523Y-61975952D01*
X133373761Y-62071190D01*
X133421380Y-62214047D01*
X133421380Y-62309285D01*
X132849952Y-61309285D02*
X132802333Y-61404523D01*
X132754714Y-61452142D01*
X132659476Y-61499761D01*
X132611857Y-61499761D01*
X132516619Y-61452142D01*
X132469000Y-61404523D01*
X132421380Y-61309285D01*
X132421380Y-61118809D01*
X132469000Y-61023571D01*
X132516619Y-60975952D01*
X132611857Y-60928333D01*
X132659476Y-60928333D01*
X132754714Y-60975952D01*
X132802333Y-61023571D01*
X132849952Y-61118809D01*
X132849952Y-61309285D01*
X132897571Y-61404523D01*
X132945190Y-61452142D01*
X133040428Y-61499761D01*
X133230904Y-61499761D01*
X133326142Y-61452142D01*
X133373761Y-61404523D01*
X133421380Y-61309285D01*
X133421380Y-61118809D01*
X133373761Y-61023571D01*
X133326142Y-60975952D01*
X133230904Y-60928333D01*
X133040428Y-60928333D01*
X132945190Y-60975952D01*
X132897571Y-61023571D01*
X132849952Y-61118809D01*
G04 #@! TO.C,J7*
X95337380Y-82375333D02*
X96051666Y-82375333D01*
X96194523Y-82422952D01*
X96289761Y-82518190D01*
X96337380Y-82661047D01*
X96337380Y-82756285D01*
X95337380Y-81994380D02*
X95337380Y-81327714D01*
X96337380Y-81756285D01*
G04 #@! TO.C,J6*
X123995380Y-61928333D02*
X124709666Y-61928333D01*
X124852523Y-61975952D01*
X124947761Y-62071190D01*
X124995380Y-62214047D01*
X124995380Y-62309285D01*
X123995380Y-61023571D02*
X123995380Y-61214047D01*
X124043000Y-61309285D01*
X124090619Y-61356904D01*
X124233476Y-61452142D01*
X124423952Y-61499761D01*
X124804904Y-61499761D01*
X124900142Y-61452142D01*
X124947761Y-61404523D01*
X124995380Y-61309285D01*
X124995380Y-61118809D01*
X124947761Y-61023571D01*
X124900142Y-60975952D01*
X124804904Y-60928333D01*
X124566809Y-60928333D01*
X124471571Y-60975952D01*
X124423952Y-61023571D01*
X124376333Y-61118809D01*
X124376333Y-61309285D01*
X124423952Y-61404523D01*
X124471571Y-61452142D01*
X124566809Y-61499761D01*
G04 #@! TO.C,J5*
X114006380Y-61928333D02*
X114720666Y-61928333D01*
X114863523Y-61975952D01*
X114958761Y-62071190D01*
X115006380Y-62214047D01*
X115006380Y-62309285D01*
X114006380Y-60975952D02*
X114006380Y-61452142D01*
X114482571Y-61499761D01*
X114434952Y-61452142D01*
X114387333Y-61356904D01*
X114387333Y-61118809D01*
X114434952Y-61023571D01*
X114482571Y-60975952D01*
X114577809Y-60928333D01*
X114815904Y-60928333D01*
X114911142Y-60975952D01*
X114958761Y-61023571D01*
X115006380Y-61118809D01*
X115006380Y-61356904D01*
X114958761Y-61452142D01*
X114911142Y-61499761D01*
G04 #@! TO.C,J4*
X144950380Y-80597333D02*
X145664666Y-80597333D01*
X145807523Y-80644952D01*
X145902761Y-80740190D01*
X145950380Y-80883047D01*
X145950380Y-80978285D01*
X145283714Y-79692571D02*
X145950380Y-79692571D01*
X144902761Y-79930666D02*
X145617047Y-80168761D01*
X145617047Y-79549714D01*
G04 #@! TO.C,J2*
X136441380Y-86820333D02*
X137155666Y-86820333D01*
X137298523Y-86867952D01*
X137393761Y-86963190D01*
X137441380Y-87106047D01*
X137441380Y-87201285D01*
X136536619Y-86391761D02*
X136489000Y-86344142D01*
X136441380Y-86248904D01*
X136441380Y-86010809D01*
X136489000Y-85915571D01*
X136536619Y-85867952D01*
X136631857Y-85820333D01*
X136727095Y-85820333D01*
X136869952Y-85867952D01*
X137441380Y-86439380D01*
X137441380Y-85820333D01*
G04 #@! TO.C,D2*
X149296380Y-64492095D02*
X148296380Y-64492095D01*
X148296380Y-64254000D01*
X148344000Y-64111142D01*
X148439238Y-64015904D01*
X148534476Y-63968285D01*
X148724952Y-63920666D01*
X148867809Y-63920666D01*
X149058285Y-63968285D01*
X149153523Y-64015904D01*
X149248761Y-64111142D01*
X149296380Y-64254000D01*
X149296380Y-64492095D01*
X148391619Y-63539714D02*
X148344000Y-63492095D01*
X148296380Y-63396857D01*
X148296380Y-63158761D01*
X148344000Y-63063523D01*
X148391619Y-63015904D01*
X148486857Y-62968285D01*
X148582095Y-62968285D01*
X148724952Y-63015904D01*
X149296380Y-63587333D01*
X149296380Y-62968285D01*
G04 #@! TO.C,C6*
X146264333Y-69191142D02*
X146216714Y-69238761D01*
X146073857Y-69286380D01*
X145978619Y-69286380D01*
X145835761Y-69238761D01*
X145740523Y-69143523D01*
X145692904Y-69048285D01*
X145645285Y-68857809D01*
X145645285Y-68714952D01*
X145692904Y-68524476D01*
X145740523Y-68429238D01*
X145835761Y-68334000D01*
X145978619Y-68286380D01*
X146073857Y-68286380D01*
X146216714Y-68334000D01*
X146264333Y-68381619D01*
X147121476Y-68286380D02*
X146931000Y-68286380D01*
X146835761Y-68334000D01*
X146788142Y-68381619D01*
X146692904Y-68524476D01*
X146645285Y-68714952D01*
X146645285Y-69095904D01*
X146692904Y-69191142D01*
X146740523Y-69238761D01*
X146835761Y-69286380D01*
X147026238Y-69286380D01*
X147121476Y-69238761D01*
X147169095Y-69191142D01*
X147216714Y-69095904D01*
X147216714Y-68857809D01*
X147169095Y-68762571D01*
X147121476Y-68714952D01*
X147026238Y-68667333D01*
X146835761Y-68667333D01*
X146740523Y-68714952D01*
X146692904Y-68762571D01*
X146645285Y-68857809D01*
G04 #@! TD*
M02*
