M48
; DRILL file {KiCad (5.1.6)-1} date 08/10/20 15:17:50
; FORMAT={-:-/ absolute / inch / decimal}
; #@! TF.CreationDate,2020-08-10T15:17:50+02:00
; #@! TF.GenerationSoftware,Kicad,Pcbnew,(5.1.6)-1
FMAT,2
INCH
T1C0.0236
T2C0.0315
T3C0.0354
T4C0.0394
T5C0.0433
T6C0.0472
T7C0.0827
%
G90
G05
T1
X5.2663Y-2.855
X5.5013Y-2.85
X4.4252Y-3.1929
X4.5039Y-3.1929
X4.425Y-2.965
X4.5037Y-2.965
X5.345Y-2.855
X4.4252Y-2.7323
X4.5039Y-2.7323
X5.58Y-2.85
T2
X4.9Y-3.275
X5.3Y-3.275
X5.095Y-2.575
X5.495Y-2.575
X4.775Y-2.78
X4.775Y-3.18
X4.9Y-3.085
X5.3Y-3.085
X5.72Y-2.85
X5.8184Y-2.85
X4.9Y-3.445
X5.3Y-3.445
X5.47Y-3.145
X5.57Y-3.145
X4.045Y-2.695
X4.045Y-3.095
X3.865Y-2.695
X3.865Y-3.095
X4.2165Y-2.6945
X4.2165Y-3.0945
X4.575Y-2.575
X4.975Y-2.575
X4.64Y-2.78
X4.64Y-3.18
T3
X5.7Y-2.46
X5.7Y-2.56
X4.29Y-2.49
X4.39Y-2.49
T4
X4.605Y-2.43
X4.705Y-2.43
X5.805Y-3.405
X5.905Y-3.405
X5.33Y-2.43
X5.43Y-2.43
X4.995Y-2.425
X5.095Y-2.425
X5.82Y-3.16
X5.92Y-3.16
X3.875Y-3.23
X3.975Y-3.23
X5.485Y-3.405
X5.585Y-3.405
T5
X3.865Y-2.51
X4.065Y-2.51
T6
X3.87Y-3.51
X4.7519Y-3.51
T7
X5.945Y-2.355
X5.94Y-3.625
X3.7Y-2.365
X3.705Y-3.64
T0
M30
