G04 #@! TF.GenerationSoftware,KiCad,Pcbnew,(5.1.6)-1*
G04 #@! TF.CreationDate,2020-08-10T15:15:50+02:00*
G04 #@! TF.ProjectId,arduinoUno-BMSmodule,61726475-696e-46f5-956e-6f2d424d536d,rev?*
G04 #@! TF.SameCoordinates,Original*
G04 #@! TF.FileFunction,Copper,L1,Top*
G04 #@! TF.FilePolarity,Positive*
%FSLAX46Y46*%
G04 Gerber Fmt 4.6, Leading zero omitted, Abs format (unit mm)*
G04 Created by KiCad (PCBNEW (5.1.6)-1) date 2020-08-10 15:15:50*
%MOMM*%
%LPD*%
G01*
G04 APERTURE LIST*
G04 #@! TA.AperFunction,Profile*
%ADD10C,0.050000*%
G04 #@! TD*
G04 #@! TA.AperFunction,ComponentPad*
%ADD11C,1.200000*%
G04 #@! TD*
G04 #@! TA.AperFunction,ComponentPad*
%ADD12O,2.400000X2.400000*%
G04 #@! TD*
G04 #@! TA.AperFunction,ComponentPad*
%ADD13C,2.400000*%
G04 #@! TD*
G04 #@! TA.AperFunction,ComponentPad*
%ADD14O,1.700000X1.700000*%
G04 #@! TD*
G04 #@! TA.AperFunction,ComponentPad*
%ADD15R,1.700000X1.700000*%
G04 #@! TD*
G04 #@! TA.AperFunction,ComponentPad*
%ADD16O,1.600000X1.600000*%
G04 #@! TD*
G04 #@! TA.AperFunction,ComponentPad*
%ADD17C,1.600000*%
G04 #@! TD*
G04 #@! TA.AperFunction,ComponentPad*
%ADD18C,1.800000*%
G04 #@! TD*
G04 #@! TA.AperFunction,ComponentPad*
%ADD19R,1.800000X1.800000*%
G04 #@! TD*
G04 #@! TA.AperFunction,SMDPad,CuDef*
%ADD20R,0.900000X0.800000*%
G04 #@! TD*
G04 #@! TA.AperFunction,ComponentPad*
%ADD21R,1.600000X1.600000*%
G04 #@! TD*
G04 #@! TA.AperFunction,Conductor*
%ADD22C,0.250000*%
G04 #@! TD*
G04 #@! TA.AperFunction,Conductor*
%ADD23C,0.254000*%
G04 #@! TD*
G04 APERTURE END LIST*
D10*
X154000000Y-57000000D02*
X154000000Y-57900000D01*
X91000000Y-57000000D02*
X154000000Y-57000000D01*
X153484000Y-96000000D02*
X154000000Y-96000000D01*
X91000000Y-96000000D02*
X91000000Y-95900000D01*
X91000000Y-95900000D02*
X91000000Y-94973000D01*
X91000000Y-94973000D02*
X91000000Y-57000000D01*
X93921000Y-96000000D02*
X91000000Y-96000000D01*
X153484000Y-96000000D02*
X93921000Y-96000000D01*
X154000000Y-57900000D02*
X154000000Y-96000000D01*
D11*
G04 #@! TO.P,C3,2*
G04 #@! TO.N,GND*
X112395000Y-75311000D03*
G04 #@! TO.P,C3,1*
G04 #@! TO.N,VBAT+*
X114395000Y-75311000D03*
G04 #@! TD*
D12*
G04 #@! TO.P,R4,2*
G04 #@! TO.N,Net-(Q1-Pad3)*
X120698000Y-89154000D03*
D13*
G04 #@! TO.P,R4,1*
G04 #@! TO.N,VBAT+*
X98298000Y-89154000D03*
G04 #@! TD*
D11*
G04 #@! TO.P,C5,2*
G04 #@! TO.N,GND*
X139732000Y-72390000D03*
G04 #@! TO.P,C5,1*
G04 #@! TO.N,3.3V*
X141732000Y-72390000D03*
G04 #@! TD*
G04 #@! TO.P,C4,2*
G04 #@! TO.N,GND*
X133763000Y-72517000D03*
G04 #@! TO.P,C4,1*
G04 #@! TO.N,3.3V*
X135763000Y-72517000D03*
G04 #@! TD*
G04 #@! TO.P,C2,2*
G04 #@! TO.N,GND*
X112400000Y-69400000D03*
G04 #@! TO.P,C2,1*
G04 #@! TO.N,VBAT+*
X114400000Y-69400000D03*
G04 #@! TD*
G04 #@! TO.P,C1,2*
G04 #@! TO.N,GND*
X112400000Y-81100000D03*
G04 #@! TO.P,C1,1*
G04 #@! TO.N,ADC_VOLT1*
X114400000Y-81100000D03*
G04 #@! TD*
D14*
G04 #@! TO.P,J3,2*
G04 #@! TO.N,ADC_TEMP1*
X149987000Y-86487000D03*
D15*
G04 #@! TO.P,J3,1*
X147447000Y-86487000D03*
G04 #@! TD*
D16*
G04 #@! TO.P,R8,2*
G04 #@! TO.N,Net-(R8-Pad2)*
X126365000Y-65405000D03*
D17*
G04 #@! TO.P,R8,1*
G04 #@! TO.N,3.3V*
X116205000Y-65405000D03*
G04 #@! TD*
D18*
G04 #@! TO.P,D1,2*
G04 #@! TO.N,VBAT+*
X108966000Y-63246000D03*
D19*
G04 #@! TO.P,D1,1*
G04 #@! TO.N,Net-(D1-Pad1)*
X111506000Y-63246000D03*
G04 #@! TD*
D15*
G04 #@! TO.P,J1,2*
G04 #@! TO.N,VBAT+*
X98171000Y-63754000D03*
G04 #@! TO.P,J1,1*
G04 #@! TO.N,GND*
X103251000Y-63754000D03*
G04 #@! TD*
G04 #@! TO.P,U1,1*
G04 #@! TO.N,Net-(L1-Pad2)*
G04 #@! TA.AperFunction,SMDPad,CuDef*
G36*
G01*
X124218000Y-71873000D02*
X124218000Y-71393000D01*
G75*
G02*
X124278000Y-71333000I60000J0D01*
G01*
X125658000Y-71333000D01*
G75*
G02*
X125718000Y-71393000I0J-60000D01*
G01*
X125718000Y-71873000D01*
G75*
G02*
X125658000Y-71933000I-60000J0D01*
G01*
X124278000Y-71933000D01*
G75*
G02*
X124218000Y-71873000I0J60000D01*
G01*
G37*
G04 #@! TD.AperFunction*
G04 #@! TO.P,U1,2*
G04 #@! TO.N,GND*
G04 #@! TA.AperFunction,SMDPad,CuDef*
G36*
G01*
X124218000Y-72823000D02*
X124218000Y-72343000D01*
G75*
G02*
X124278000Y-72283000I60000J0D01*
G01*
X125658000Y-72283000D01*
G75*
G02*
X125718000Y-72343000I0J-60000D01*
G01*
X125718000Y-72823000D01*
G75*
G02*
X125658000Y-72883000I-60000J0D01*
G01*
X124278000Y-72883000D01*
G75*
G02*
X124218000Y-72823000I0J60000D01*
G01*
G37*
G04 #@! TD.AperFunction*
G04 #@! TO.P,U1,3*
G04 #@! TO.N,VBAT+*
G04 #@! TA.AperFunction,SMDPad,CuDef*
G36*
G01*
X124218000Y-73773000D02*
X124218000Y-73293000D01*
G75*
G02*
X124278000Y-73233000I60000J0D01*
G01*
X125658000Y-73233000D01*
G75*
G02*
X125718000Y-73293000I0J-60000D01*
G01*
X125718000Y-73773000D01*
G75*
G02*
X125658000Y-73833000I-60000J0D01*
G01*
X124278000Y-73833000D01*
G75*
G02*
X124218000Y-73773000I0J60000D01*
G01*
G37*
G04 #@! TD.AperFunction*
G04 #@! TO.P,U1,4*
G04 #@! TO.N,Net-(R8-Pad2)*
G04 #@! TA.AperFunction,SMDPad,CuDef*
G36*
G01*
X127318000Y-73773000D02*
X127318000Y-73293000D01*
G75*
G02*
X127378000Y-73233000I60000J0D01*
G01*
X128758000Y-73233000D01*
G75*
G02*
X128818000Y-73293000I0J-60000D01*
G01*
X128818000Y-73773000D01*
G75*
G02*
X128758000Y-73833000I-60000J0D01*
G01*
X127378000Y-73833000D01*
G75*
G02*
X127318000Y-73773000I0J60000D01*
G01*
G37*
G04 #@! TD.AperFunction*
G04 #@! TO.P,U1,5*
G04 #@! TO.N,3.3V*
G04 #@! TA.AperFunction,SMDPad,CuDef*
G36*
G01*
X127318000Y-72823000D02*
X127318000Y-72343000D01*
G75*
G02*
X127378000Y-72283000I60000J0D01*
G01*
X128758000Y-72283000D01*
G75*
G02*
X128818000Y-72343000I0J-60000D01*
G01*
X128818000Y-72823000D01*
G75*
G02*
X128758000Y-72883000I-60000J0D01*
G01*
X127378000Y-72883000D01*
G75*
G02*
X127318000Y-72823000I0J60000D01*
G01*
G37*
G04 #@! TD.AperFunction*
G04 #@! TO.P,U1,6*
G04 #@! TO.N,VBAT+*
G04 #@! TA.AperFunction,SMDPad,CuDef*
G36*
G01*
X127318000Y-71873000D02*
X127318000Y-71393000D01*
G75*
G02*
X127378000Y-71333000I60000J0D01*
G01*
X128758000Y-71333000D01*
G75*
G02*
X128818000Y-71393000I0J-60000D01*
G01*
X128818000Y-71873000D01*
G75*
G02*
X128758000Y-71933000I-60000J0D01*
G01*
X127378000Y-71933000D01*
G75*
G02*
X127318000Y-71873000I0J60000D01*
G01*
G37*
G04 #@! TD.AperFunction*
G04 #@! TD*
D16*
G04 #@! TO.P,TH1,2*
G04 #@! TO.N,ADC_TEMP1*
X138938000Y-79883000D03*
D17*
G04 #@! TO.P,TH1,1*
G04 #@! TO.N,3.3V*
X141478000Y-79883000D03*
G04 #@! TD*
D16*
G04 #@! TO.P,R10,2*
G04 #@! TO.N,GND*
X129413000Y-65405000D03*
D17*
G04 #@! TO.P,R10,1*
G04 #@! TO.N,Net-(D2-Pad1)*
X139573000Y-65405000D03*
G04 #@! TD*
D16*
G04 #@! TO.P,R9,2*
G04 #@! TO.N,GND*
X124460000Y-78359000D03*
D17*
G04 #@! TO.P,R9,1*
G04 #@! TO.N,Net-(R8-Pad2)*
X134620000Y-78359000D03*
G04 #@! TD*
D16*
G04 #@! TO.P,R7,2*
G04 #@! TO.N,GND*
X124460000Y-87503000D03*
D17*
G04 #@! TO.P,R7,1*
G04 #@! TO.N,ADC_VOLT1*
X134620000Y-87503000D03*
G04 #@! TD*
D16*
G04 #@! TO.P,R6,2*
G04 #@! TO.N,ADC_VOLT1*
X117856000Y-80772000D03*
D17*
G04 #@! TO.P,R6,1*
G04 #@! TO.N,Net-(R5-Pad2)*
X117856000Y-70612000D03*
G04 #@! TD*
D16*
G04 #@! TO.P,R5,2*
G04 #@! TO.N,Net-(R5-Pad2)*
X98171000Y-78613000D03*
D17*
G04 #@! TO.P,R5,1*
G04 #@! TO.N,VBAT+*
X98171000Y-68453000D03*
G04 #@! TD*
D16*
G04 #@! TO.P,R3,2*
G04 #@! TO.N,Net-(Q1-Pad3)*
X102743000Y-78613000D03*
D17*
G04 #@! TO.P,R3,1*
G04 #@! TO.N,Net-(D1-Pad1)*
X102743000Y-68453000D03*
G04 #@! TD*
D16*
G04 #@! TO.P,R2,2*
G04 #@! TO.N,GND*
X107100000Y-68440000D03*
D17*
G04 #@! TO.P,R2,1*
G04 #@! TO.N,ON-OFF*
X107100000Y-78600000D03*
G04 #@! TD*
D16*
G04 #@! TO.P,R1,2*
G04 #@! TO.N,GND*
X124460000Y-83185000D03*
D17*
G04 #@! TO.P,R1,1*
G04 #@! TO.N,ADC_TEMP1*
X134620000Y-83185000D03*
G04 #@! TD*
D20*
G04 #@! TO.P,Q1,3*
G04 #@! TO.N,Net-(Q1-Pad3)*
X105442000Y-81976000D03*
G04 #@! TO.P,Q1,2*
G04 #@! TO.N,GND*
X107442000Y-81026000D03*
G04 #@! TO.P,Q1,1*
G04 #@! TO.N,ON-OFF*
X107442000Y-82926000D03*
G04 #@! TD*
D16*
G04 #@! TO.P,L1,2*
G04 #@! TO.N,Net-(L1-Pad2)*
X121285000Y-70612000D03*
D17*
G04 #@! TO.P,L1,1*
G04 #@! TO.N,VBAT+*
X121285000Y-80772000D03*
G04 #@! TD*
D14*
G04 #@! TO.P,J8,2*
G04 #@! TO.N,STATUS_PIN*
X137922000Y-61722000D03*
D15*
G04 #@! TO.P,J8,1*
X135382000Y-61722000D03*
G04 #@! TD*
D14*
G04 #@! TO.P,J7,2*
G04 #@! TO.N,ON-OFF*
X100965000Y-82042000D03*
D15*
G04 #@! TO.P,J7,1*
X98425000Y-82042000D03*
G04 #@! TD*
D14*
G04 #@! TO.P,J6,2*
G04 #@! TO.N,GND*
X129413000Y-61595000D03*
D15*
G04 #@! TO.P,J6,1*
X126873000Y-61595000D03*
G04 #@! TD*
D14*
G04 #@! TO.P,J5,2*
G04 #@! TO.N,3.3V*
X119507000Y-61722000D03*
D15*
G04 #@! TO.P,J5,1*
X116967000Y-61722000D03*
G04 #@! TD*
D14*
G04 #@! TO.P,J4,2*
G04 #@! TO.N,VBAT+*
X150368000Y-80264000D03*
D15*
G04 #@! TO.P,J4,1*
X147828000Y-80264000D03*
G04 #@! TD*
D14*
G04 #@! TO.P,J2,2*
G04 #@! TO.N,ADC_VOLT1*
X141859000Y-86487000D03*
D15*
G04 #@! TO.P,J2,1*
X139319000Y-86487000D03*
G04 #@! TD*
D18*
G04 #@! TO.P,D2,2*
G04 #@! TO.N,STATUS_PIN*
X144780000Y-62484000D03*
D19*
G04 #@! TO.P,D2,1*
G04 #@! TO.N,Net-(D2-Pad1)*
X144780000Y-65024000D03*
G04 #@! TD*
D17*
G04 #@! TO.P,C6,2*
G04 #@! TO.N,GND*
X145288000Y-72390000D03*
D21*
G04 #@! TO.P,C6,1*
G04 #@! TO.N,VBAT+*
X147788000Y-72390000D03*
G04 #@! TD*
D22*
G04 #@! TO.N,GND*
X124460000Y-87503000D02*
X124460000Y-83185000D01*
X124460000Y-83185000D02*
X124460000Y-78359000D01*
X129413000Y-65405000D02*
X129413000Y-61595000D01*
X126873000Y-61595000D02*
X129413000Y-61595000D01*
X133763000Y-72517000D02*
X133763000Y-73565000D01*
X133763000Y-73565000D02*
X134239000Y-74041000D01*
X134239000Y-74041000D02*
X139319000Y-74041000D01*
X139732000Y-73628000D02*
X139732000Y-72390000D01*
X139319000Y-74041000D02*
X139732000Y-73628000D01*
X133763000Y-70326000D02*
X133763000Y-72517000D01*
X134620000Y-69469000D02*
X133763000Y-70326000D01*
X145288000Y-72390000D02*
X145288000Y-70231000D01*
X144526000Y-69469000D02*
X134620000Y-69469000D01*
X145288000Y-70231000D02*
X144526000Y-69469000D01*
X112400000Y-75316000D02*
X112395000Y-75311000D01*
X112400000Y-81100000D02*
X112400000Y-75316000D01*
X112395000Y-69405000D02*
X112400000Y-69400000D01*
X112395000Y-75311000D02*
X112395000Y-69405000D01*
X103251000Y-63754000D02*
X103251000Y-65151000D01*
X103251000Y-65151000D02*
X103400000Y-65300000D01*
X103400000Y-65300000D02*
X106800000Y-65300000D01*
X107100000Y-65600000D02*
X107100000Y-68440000D01*
X106800000Y-65300000D02*
X107100000Y-65600000D01*
X108060000Y-69400000D02*
X107100000Y-68440000D01*
X112400000Y-69400000D02*
X108060000Y-69400000D01*
G04 #@! TO.N,ADC_VOLT1*
X139319000Y-86487000D02*
X141859000Y-86487000D01*
X134620000Y-87503000D02*
X134620000Y-87122000D01*
X135255000Y-86487000D02*
X139319000Y-86487000D01*
X134620000Y-87122000D02*
X135255000Y-86487000D01*
X117528000Y-81100000D02*
X117856000Y-80772000D01*
X114400000Y-81100000D02*
X117528000Y-81100000D01*
G04 #@! TO.N,VBAT+*
X147828000Y-80264000D02*
X150368000Y-80264000D01*
X124968000Y-73533000D02*
X126111000Y-73533000D01*
X126111000Y-73533000D02*
X126492000Y-73152000D01*
X126492000Y-73152000D02*
X126492000Y-71882000D01*
X126741000Y-71633000D02*
X128068000Y-71633000D01*
X126492000Y-71882000D02*
X126741000Y-71633000D01*
X128068000Y-71633000D02*
X129408000Y-71633000D01*
X129408000Y-71633000D02*
X130048000Y-70993000D01*
X130048000Y-70993000D02*
X130048000Y-69469000D01*
X130048000Y-69469000D02*
X131064000Y-68453000D01*
X131064000Y-68453000D02*
X147066000Y-68453000D01*
X147788000Y-69175000D02*
X147788000Y-72390000D01*
X147066000Y-68453000D02*
X147788000Y-69175000D01*
X147828000Y-72430000D02*
X147788000Y-72390000D01*
X147828000Y-80264000D02*
X147828000Y-72430000D01*
X98171000Y-68453000D02*
X98171000Y-63754000D01*
X114395000Y-69405000D02*
X114400000Y-69400000D01*
X114395000Y-75311000D02*
X114395000Y-69405000D01*
X114400000Y-69400000D02*
X114400000Y-61700000D01*
X114400000Y-61700000D02*
X113900000Y-61200000D01*
X113900000Y-61200000D02*
X109200000Y-61200000D01*
X109200000Y-61200000D02*
X108900000Y-61500000D01*
X108900000Y-63180000D02*
X108966000Y-63246000D01*
X108900000Y-61500000D02*
X108900000Y-63180000D01*
X98171000Y-63754000D02*
X98171000Y-62029000D01*
X98171000Y-62029000D02*
X98500000Y-61700000D01*
X98500000Y-61700000D02*
X106100000Y-61700000D01*
X106100000Y-61700000D02*
X106300000Y-61900000D01*
X106300000Y-61900000D02*
X106300000Y-62900000D01*
X106646000Y-63246000D02*
X108966000Y-63246000D01*
X106300000Y-62900000D02*
X106646000Y-63246000D01*
X124968000Y-73533000D02*
X121567000Y-73533000D01*
X121285000Y-73815000D02*
X121285000Y-80772000D01*
X121567000Y-73533000D02*
X121285000Y-73815000D01*
X98298000Y-89154000D02*
X96200000Y-87056000D01*
X96200000Y-70424000D02*
X98171000Y-68453000D01*
X96200000Y-87056000D02*
X96200000Y-70424000D01*
X121285000Y-80772000D02*
X121285000Y-85115000D01*
X121285000Y-85115000D02*
X120700000Y-85700000D01*
X120700000Y-85700000D02*
X98800000Y-85700000D01*
X98298000Y-86202000D02*
X98298000Y-89154000D01*
X98800000Y-85700000D02*
X98298000Y-86202000D01*
G04 #@! TO.N,3.3V*
X128068000Y-72583000D02*
X129606000Y-72583000D01*
X129606000Y-72583000D02*
X130302000Y-73279000D01*
X130302000Y-73279000D02*
X130302000Y-74803000D01*
X130302000Y-74803000D02*
X130937000Y-75438000D01*
X130937000Y-75438000D02*
X141097000Y-75438000D01*
X141097000Y-75438000D02*
X141732000Y-74803000D01*
X116205000Y-62484000D02*
X116967000Y-61722000D01*
X116205000Y-65405000D02*
X116205000Y-62484000D01*
X116967000Y-61722000D02*
X119507000Y-61722000D01*
X141351000Y-70358000D02*
X141732000Y-70739000D01*
X135763000Y-72517000D02*
X135763000Y-70866000D01*
X141732000Y-70739000D02*
X141732000Y-72390000D01*
X136271000Y-70358000D02*
X141351000Y-70358000D01*
X135763000Y-70866000D02*
X136271000Y-70358000D01*
X141732000Y-74803000D02*
X141732000Y-72390000D01*
X141478000Y-79883000D02*
X142875000Y-79883000D01*
X142875000Y-79883000D02*
X143383000Y-79375000D01*
X143383000Y-79375000D02*
X143383000Y-72898000D01*
X142875000Y-72390000D02*
X141732000Y-72390000D01*
X143383000Y-72898000D02*
X142875000Y-72390000D01*
G04 #@! TO.N,STATUS_PIN*
X137922000Y-61722000D02*
X135382000Y-61722000D01*
X144018000Y-61722000D02*
X144780000Y-62484000D01*
X137922000Y-61722000D02*
X144018000Y-61722000D01*
G04 #@! TO.N,Net-(D2-Pad1)*
X144399000Y-65405000D02*
X144780000Y-65024000D01*
X139573000Y-65405000D02*
X144399000Y-65405000D01*
G04 #@! TO.N,ADC_TEMP1*
X147447000Y-86487000D02*
X149987000Y-86487000D01*
X134620000Y-83185000D02*
X134620000Y-80645000D01*
X135382000Y-79883000D02*
X138938000Y-79883000D01*
X134620000Y-80645000D02*
X135382000Y-79883000D01*
X147447000Y-86487000D02*
X147447000Y-83312000D01*
X147320000Y-83185000D02*
X134620000Y-83185000D01*
X147447000Y-83312000D02*
X147320000Y-83185000D01*
G04 #@! TO.N,ON-OFF*
X98425000Y-82042000D02*
X100965000Y-82042000D01*
X107442000Y-82926000D02*
X107442000Y-83439000D01*
X107442000Y-83439000D02*
X107061000Y-83820000D01*
X107061000Y-83820000D02*
X101346000Y-83820000D01*
X100965000Y-83439000D02*
X100965000Y-82042000D01*
X101346000Y-83820000D02*
X100965000Y-83439000D01*
X107442000Y-82926000D02*
X109374000Y-82926000D01*
X109374000Y-82926000D02*
X109800000Y-82500000D01*
X109800000Y-82500000D02*
X109800000Y-78900000D01*
X109800000Y-78900000D02*
X109500000Y-78600000D01*
X109500000Y-78600000D02*
X109487000Y-78613000D01*
X109500000Y-78600000D02*
X107100000Y-78600000D01*
G04 #@! TO.N,Net-(L1-Pad2)*
X122306000Y-71633000D02*
X121285000Y-70612000D01*
X124968000Y-71633000D02*
X122306000Y-71633000D01*
G04 #@! TO.N,Net-(Q1-Pad3)*
X105442000Y-81976000D02*
X105442000Y-79153000D01*
X104902000Y-78613000D02*
X102743000Y-78613000D01*
X105442000Y-79153000D02*
X104902000Y-78613000D01*
G04 #@! TO.N,Net-(R8-Pad2)*
X128068000Y-73533000D02*
X128068000Y-77649000D01*
X128778000Y-78359000D02*
X134620000Y-78359000D01*
X128068000Y-77649000D02*
X128778000Y-78359000D01*
G04 #@! TD*
D23*
G04 #@! TO.N,GND*
G36*
X148873000Y-62000000D02*
G01*
X148875440Y-62024776D01*
X148882667Y-62048601D01*
X148894403Y-62070557D01*
X148910197Y-62089803D01*
X148929443Y-62105597D01*
X148951399Y-62117333D01*
X148975224Y-62124560D01*
X149000000Y-62127000D01*
X152873000Y-62127000D01*
X152873000Y-89873000D01*
X149000000Y-89873000D01*
X148975224Y-89875440D01*
X148951399Y-89882667D01*
X148929443Y-89894403D01*
X148910197Y-89910197D01*
X148894403Y-89929443D01*
X148882667Y-89951399D01*
X148875440Y-89975224D01*
X148873000Y-90000000D01*
X148873000Y-94873000D01*
X96127000Y-94873000D01*
X96127000Y-90000000D01*
X96124560Y-89975224D01*
X96117333Y-89951399D01*
X96105597Y-89929443D01*
X96089803Y-89910197D01*
X96070557Y-89894403D01*
X96048601Y-89882667D01*
X96024776Y-89875440D01*
X96000000Y-89873000D01*
X92127000Y-89873000D01*
X92127000Y-70424000D01*
X95691553Y-70424000D01*
X95694001Y-70448856D01*
X95694000Y-87031154D01*
X95691553Y-87056000D01*
X95694000Y-87080846D01*
X95694000Y-87080853D01*
X95701322Y-87155192D01*
X95730255Y-87250574D01*
X95777241Y-87338479D01*
X95840473Y-87415527D01*
X95859785Y-87431376D01*
X96878363Y-88449955D01*
X96777757Y-88692839D01*
X96717000Y-88998285D01*
X96717000Y-89309715D01*
X96777757Y-89615161D01*
X96896936Y-89902884D01*
X97069957Y-90161829D01*
X97290171Y-90382043D01*
X97549116Y-90555064D01*
X97836839Y-90674243D01*
X98142285Y-90735000D01*
X98453715Y-90735000D01*
X98759161Y-90674243D01*
X99046884Y-90555064D01*
X99305829Y-90382043D01*
X99526043Y-90161829D01*
X99699064Y-89902884D01*
X99818243Y-89615161D01*
X99879000Y-89309715D01*
X99879000Y-88998285D01*
X119117000Y-88998285D01*
X119117000Y-89309715D01*
X119177757Y-89615161D01*
X119296936Y-89902884D01*
X119469957Y-90161829D01*
X119690171Y-90382043D01*
X119949116Y-90555064D01*
X120236839Y-90674243D01*
X120542285Y-90735000D01*
X120853715Y-90735000D01*
X121159161Y-90674243D01*
X121446884Y-90555064D01*
X121705829Y-90382043D01*
X121926043Y-90161829D01*
X122099064Y-89902884D01*
X122218243Y-89615161D01*
X122279000Y-89309715D01*
X122279000Y-88998285D01*
X122218243Y-88692839D01*
X122099064Y-88405116D01*
X121926043Y-88146171D01*
X121705829Y-87925957D01*
X121595203Y-87852039D01*
X123068096Y-87852039D01*
X123108754Y-87986087D01*
X123228963Y-88240420D01*
X123396481Y-88466414D01*
X123604869Y-88655385D01*
X123846119Y-88800070D01*
X124110960Y-88894909D01*
X124333000Y-88773624D01*
X124333000Y-87630000D01*
X124587000Y-87630000D01*
X124587000Y-88773624D01*
X124809040Y-88894909D01*
X125073881Y-88800070D01*
X125315131Y-88655385D01*
X125523519Y-88466414D01*
X125691037Y-88240420D01*
X125811246Y-87986087D01*
X125851904Y-87852039D01*
X125729915Y-87630000D01*
X124587000Y-87630000D01*
X124333000Y-87630000D01*
X123190085Y-87630000D01*
X123068096Y-87852039D01*
X121595203Y-87852039D01*
X121446884Y-87752936D01*
X121159161Y-87633757D01*
X120853715Y-87573000D01*
X120542285Y-87573000D01*
X120236839Y-87633757D01*
X119949116Y-87752936D01*
X119690171Y-87925957D01*
X119469957Y-88146171D01*
X119296936Y-88405116D01*
X119177757Y-88692839D01*
X119117000Y-88998285D01*
X99879000Y-88998285D01*
X99818243Y-88692839D01*
X99699064Y-88405116D01*
X99526043Y-88146171D01*
X99305829Y-87925957D01*
X99046884Y-87752936D01*
X98804000Y-87652330D01*
X98804000Y-87386682D01*
X133439000Y-87386682D01*
X133439000Y-87619318D01*
X133484386Y-87847485D01*
X133573412Y-88062413D01*
X133702658Y-88255843D01*
X133867157Y-88420342D01*
X134060587Y-88549588D01*
X134275515Y-88638614D01*
X134503682Y-88684000D01*
X134736318Y-88684000D01*
X134964485Y-88638614D01*
X135179413Y-88549588D01*
X135372843Y-88420342D01*
X135537342Y-88255843D01*
X135666588Y-88062413D01*
X135755614Y-87847485D01*
X135801000Y-87619318D01*
X135801000Y-87386682D01*
X135755614Y-87158515D01*
X135687056Y-86993000D01*
X138086157Y-86993000D01*
X138086157Y-87337000D01*
X138093513Y-87411689D01*
X138115299Y-87483508D01*
X138150678Y-87549696D01*
X138198289Y-87607711D01*
X138256304Y-87655322D01*
X138322492Y-87690701D01*
X138394311Y-87712487D01*
X138469000Y-87719843D01*
X140169000Y-87719843D01*
X140243689Y-87712487D01*
X140315508Y-87690701D01*
X140381696Y-87655322D01*
X140439711Y-87607711D01*
X140487322Y-87549696D01*
X140522701Y-87483508D01*
X140544487Y-87411689D01*
X140551843Y-87337000D01*
X140551843Y-86993000D01*
X140736168Y-86993000D01*
X140768102Y-87070097D01*
X140902820Y-87271717D01*
X141074283Y-87443180D01*
X141275903Y-87577898D01*
X141499931Y-87670693D01*
X141737757Y-87718000D01*
X141980243Y-87718000D01*
X142218069Y-87670693D01*
X142442097Y-87577898D01*
X142643717Y-87443180D01*
X142815180Y-87271717D01*
X142949898Y-87070097D01*
X143042693Y-86846069D01*
X143090000Y-86608243D01*
X143090000Y-86365757D01*
X143042693Y-86127931D01*
X142949898Y-85903903D01*
X142815180Y-85702283D01*
X142643717Y-85530820D01*
X142442097Y-85396102D01*
X142218069Y-85303307D01*
X141980243Y-85256000D01*
X141737757Y-85256000D01*
X141499931Y-85303307D01*
X141275903Y-85396102D01*
X141074283Y-85530820D01*
X140902820Y-85702283D01*
X140768102Y-85903903D01*
X140736168Y-85981000D01*
X140551843Y-85981000D01*
X140551843Y-85637000D01*
X140544487Y-85562311D01*
X140522701Y-85490492D01*
X140487322Y-85424304D01*
X140439711Y-85366289D01*
X140381696Y-85318678D01*
X140315508Y-85283299D01*
X140243689Y-85261513D01*
X140169000Y-85254157D01*
X138469000Y-85254157D01*
X138394311Y-85261513D01*
X138322492Y-85283299D01*
X138256304Y-85318678D01*
X138198289Y-85366289D01*
X138150678Y-85424304D01*
X138115299Y-85490492D01*
X138093513Y-85562311D01*
X138086157Y-85637000D01*
X138086157Y-85981000D01*
X135279854Y-85981000D01*
X135255000Y-85978552D01*
X135230146Y-85981000D01*
X135155807Y-85988322D01*
X135060425Y-86017255D01*
X134972521Y-86064241D01*
X134895473Y-86127473D01*
X134879628Y-86146780D01*
X134704408Y-86322000D01*
X134503682Y-86322000D01*
X134275515Y-86367386D01*
X134060587Y-86456412D01*
X133867157Y-86585658D01*
X133702658Y-86750157D01*
X133573412Y-86943587D01*
X133484386Y-87158515D01*
X133439000Y-87386682D01*
X98804000Y-87386682D01*
X98804000Y-87153961D01*
X123068096Y-87153961D01*
X123190085Y-87376000D01*
X124333000Y-87376000D01*
X124333000Y-86232376D01*
X124587000Y-86232376D01*
X124587000Y-87376000D01*
X125729915Y-87376000D01*
X125851904Y-87153961D01*
X125811246Y-87019913D01*
X125691037Y-86765580D01*
X125523519Y-86539586D01*
X125315131Y-86350615D01*
X125073881Y-86205930D01*
X124809040Y-86111091D01*
X124587000Y-86232376D01*
X124333000Y-86232376D01*
X124110960Y-86111091D01*
X123846119Y-86205930D01*
X123604869Y-86350615D01*
X123396481Y-86539586D01*
X123228963Y-86765580D01*
X123108754Y-87019913D01*
X123068096Y-87153961D01*
X98804000Y-87153961D01*
X98804000Y-86411591D01*
X99009592Y-86206000D01*
X120675154Y-86206000D01*
X120700000Y-86208447D01*
X120724846Y-86206000D01*
X120724854Y-86206000D01*
X120799193Y-86198678D01*
X120894575Y-86169745D01*
X120982479Y-86122759D01*
X121059527Y-86059527D01*
X121075376Y-86040215D01*
X121625220Y-85490372D01*
X121644527Y-85474527D01*
X121707759Y-85397479D01*
X121754745Y-85309575D01*
X121783678Y-85214193D01*
X121791000Y-85139854D01*
X121793448Y-85115000D01*
X121791000Y-85090146D01*
X121791000Y-83534039D01*
X123068096Y-83534039D01*
X123108754Y-83668087D01*
X123228963Y-83922420D01*
X123396481Y-84148414D01*
X123604869Y-84337385D01*
X123846119Y-84482070D01*
X124110960Y-84576909D01*
X124333000Y-84455624D01*
X124333000Y-83312000D01*
X124587000Y-83312000D01*
X124587000Y-84455624D01*
X124809040Y-84576909D01*
X125073881Y-84482070D01*
X125315131Y-84337385D01*
X125523519Y-84148414D01*
X125691037Y-83922420D01*
X125811246Y-83668087D01*
X125851904Y-83534039D01*
X125729915Y-83312000D01*
X124587000Y-83312000D01*
X124333000Y-83312000D01*
X123190085Y-83312000D01*
X123068096Y-83534039D01*
X121791000Y-83534039D01*
X121791000Y-83068682D01*
X133439000Y-83068682D01*
X133439000Y-83301318D01*
X133484386Y-83529485D01*
X133573412Y-83744413D01*
X133702658Y-83937843D01*
X133867157Y-84102342D01*
X134060587Y-84231588D01*
X134275515Y-84320614D01*
X134503682Y-84366000D01*
X134736318Y-84366000D01*
X134964485Y-84320614D01*
X135179413Y-84231588D01*
X135372843Y-84102342D01*
X135537342Y-83937843D01*
X135666588Y-83744413D01*
X135688712Y-83691000D01*
X146941001Y-83691000D01*
X146941000Y-85254157D01*
X146597000Y-85254157D01*
X146522311Y-85261513D01*
X146450492Y-85283299D01*
X146384304Y-85318678D01*
X146326289Y-85366289D01*
X146278678Y-85424304D01*
X146243299Y-85490492D01*
X146221513Y-85562311D01*
X146214157Y-85637000D01*
X146214157Y-87337000D01*
X146221513Y-87411689D01*
X146243299Y-87483508D01*
X146278678Y-87549696D01*
X146326289Y-87607711D01*
X146384304Y-87655322D01*
X146450492Y-87690701D01*
X146522311Y-87712487D01*
X146597000Y-87719843D01*
X148297000Y-87719843D01*
X148371689Y-87712487D01*
X148443508Y-87690701D01*
X148509696Y-87655322D01*
X148567711Y-87607711D01*
X148615322Y-87549696D01*
X148650701Y-87483508D01*
X148672487Y-87411689D01*
X148679843Y-87337000D01*
X148679843Y-86993000D01*
X148864168Y-86993000D01*
X148896102Y-87070097D01*
X149030820Y-87271717D01*
X149202283Y-87443180D01*
X149403903Y-87577898D01*
X149627931Y-87670693D01*
X149865757Y-87718000D01*
X150108243Y-87718000D01*
X150346069Y-87670693D01*
X150570097Y-87577898D01*
X150771717Y-87443180D01*
X150943180Y-87271717D01*
X151077898Y-87070097D01*
X151170693Y-86846069D01*
X151218000Y-86608243D01*
X151218000Y-86365757D01*
X151170693Y-86127931D01*
X151077898Y-85903903D01*
X150943180Y-85702283D01*
X150771717Y-85530820D01*
X150570097Y-85396102D01*
X150346069Y-85303307D01*
X150108243Y-85256000D01*
X149865757Y-85256000D01*
X149627931Y-85303307D01*
X149403903Y-85396102D01*
X149202283Y-85530820D01*
X149030820Y-85702283D01*
X148896102Y-85903903D01*
X148864168Y-85981000D01*
X148679843Y-85981000D01*
X148679843Y-85637000D01*
X148672487Y-85562311D01*
X148650701Y-85490492D01*
X148615322Y-85424304D01*
X148567711Y-85366289D01*
X148509696Y-85318678D01*
X148443508Y-85283299D01*
X148371689Y-85261513D01*
X148297000Y-85254157D01*
X147953000Y-85254157D01*
X147953000Y-83336845D01*
X147955447Y-83311999D01*
X147953000Y-83287153D01*
X147953000Y-83287146D01*
X147945678Y-83212807D01*
X147944783Y-83209854D01*
X147928605Y-83156522D01*
X147916745Y-83117425D01*
X147869759Y-83029521D01*
X147806527Y-82952473D01*
X147787215Y-82936624D01*
X147695376Y-82844785D01*
X147679527Y-82825473D01*
X147602479Y-82762241D01*
X147514575Y-82715255D01*
X147419193Y-82686322D01*
X147344854Y-82679000D01*
X147344846Y-82679000D01*
X147320000Y-82676553D01*
X147295154Y-82679000D01*
X135688712Y-82679000D01*
X135666588Y-82625587D01*
X135537342Y-82432157D01*
X135372843Y-82267658D01*
X135179413Y-82138412D01*
X135126000Y-82116288D01*
X135126000Y-80854591D01*
X135591592Y-80389000D01*
X137869288Y-80389000D01*
X137891412Y-80442413D01*
X138020658Y-80635843D01*
X138185157Y-80800342D01*
X138378587Y-80929588D01*
X138593515Y-81018614D01*
X138821682Y-81064000D01*
X139054318Y-81064000D01*
X139282485Y-81018614D01*
X139497413Y-80929588D01*
X139690843Y-80800342D01*
X139855342Y-80635843D01*
X139984588Y-80442413D01*
X140073614Y-80227485D01*
X140119000Y-79999318D01*
X140119000Y-79766682D01*
X140073614Y-79538515D01*
X139984588Y-79323587D01*
X139855342Y-79130157D01*
X139690843Y-78965658D01*
X139497413Y-78836412D01*
X139282485Y-78747386D01*
X139054318Y-78702000D01*
X138821682Y-78702000D01*
X138593515Y-78747386D01*
X138378587Y-78836412D01*
X138185157Y-78965658D01*
X138020658Y-79130157D01*
X137891412Y-79323587D01*
X137869288Y-79377000D01*
X135406854Y-79377000D01*
X135382000Y-79374552D01*
X135357146Y-79377000D01*
X135282807Y-79384322D01*
X135187425Y-79413255D01*
X135099521Y-79460241D01*
X135022473Y-79523473D01*
X135006629Y-79542779D01*
X134279780Y-80269629D01*
X134260474Y-80285473D01*
X134197242Y-80362521D01*
X134185097Y-80385243D01*
X134150255Y-80450426D01*
X134121322Y-80545808D01*
X134111553Y-80645000D01*
X134114001Y-80669856D01*
X134114000Y-82116287D01*
X134060587Y-82138412D01*
X133867157Y-82267658D01*
X133702658Y-82432157D01*
X133573412Y-82625587D01*
X133484386Y-82840515D01*
X133439000Y-83068682D01*
X121791000Y-83068682D01*
X121791000Y-82835961D01*
X123068096Y-82835961D01*
X123190085Y-83058000D01*
X124333000Y-83058000D01*
X124333000Y-81914376D01*
X124587000Y-81914376D01*
X124587000Y-83058000D01*
X125729915Y-83058000D01*
X125851904Y-82835961D01*
X125811246Y-82701913D01*
X125691037Y-82447580D01*
X125523519Y-82221586D01*
X125315131Y-82032615D01*
X125073881Y-81887930D01*
X124809040Y-81793091D01*
X124587000Y-81914376D01*
X124333000Y-81914376D01*
X124110960Y-81793091D01*
X123846119Y-81887930D01*
X123604869Y-82032615D01*
X123396481Y-82221586D01*
X123228963Y-82447580D01*
X123108754Y-82701913D01*
X123068096Y-82835961D01*
X121791000Y-82835961D01*
X121791000Y-81840712D01*
X121844413Y-81818588D01*
X122037843Y-81689342D01*
X122202342Y-81524843D01*
X122331588Y-81331413D01*
X122420614Y-81116485D01*
X122466000Y-80888318D01*
X122466000Y-80655682D01*
X122420614Y-80427515D01*
X122331588Y-80212587D01*
X122202342Y-80019157D01*
X122037843Y-79854658D01*
X121844413Y-79725412D01*
X121791000Y-79703288D01*
X121791000Y-78708039D01*
X123068096Y-78708039D01*
X123108754Y-78842087D01*
X123228963Y-79096420D01*
X123396481Y-79322414D01*
X123604869Y-79511385D01*
X123846119Y-79656070D01*
X124110960Y-79750909D01*
X124333000Y-79629624D01*
X124333000Y-78486000D01*
X124587000Y-78486000D01*
X124587000Y-79629624D01*
X124809040Y-79750909D01*
X125073881Y-79656070D01*
X125315131Y-79511385D01*
X125523519Y-79322414D01*
X125691037Y-79096420D01*
X125811246Y-78842087D01*
X125851904Y-78708039D01*
X125729915Y-78486000D01*
X124587000Y-78486000D01*
X124333000Y-78486000D01*
X123190085Y-78486000D01*
X123068096Y-78708039D01*
X121791000Y-78708039D01*
X121791000Y-78009961D01*
X123068096Y-78009961D01*
X123190085Y-78232000D01*
X124333000Y-78232000D01*
X124333000Y-77088376D01*
X124587000Y-77088376D01*
X124587000Y-78232000D01*
X125729915Y-78232000D01*
X125851904Y-78009961D01*
X125811246Y-77875913D01*
X125691037Y-77621580D01*
X125523519Y-77395586D01*
X125315131Y-77206615D01*
X125073881Y-77061930D01*
X124809040Y-76967091D01*
X124587000Y-77088376D01*
X124333000Y-77088376D01*
X124110960Y-76967091D01*
X123846119Y-77061930D01*
X123604869Y-77206615D01*
X123396481Y-77395586D01*
X123228963Y-77621580D01*
X123108754Y-77875913D01*
X123068096Y-78009961D01*
X121791000Y-78009961D01*
X121791000Y-74039000D01*
X123926179Y-74039000D01*
X123964863Y-74086137D01*
X124031970Y-74141210D01*
X124108531Y-74182134D01*
X124191606Y-74207334D01*
X124278000Y-74215843D01*
X125658000Y-74215843D01*
X125744394Y-74207334D01*
X125827469Y-74182134D01*
X125904030Y-74141210D01*
X125971137Y-74086137D01*
X126009821Y-74039000D01*
X126086154Y-74039000D01*
X126111000Y-74041447D01*
X126135846Y-74039000D01*
X126135854Y-74039000D01*
X126210193Y-74031678D01*
X126305575Y-74002745D01*
X126393479Y-73955759D01*
X126470527Y-73892527D01*
X126486376Y-73873215D01*
X126832220Y-73527372D01*
X126851527Y-73511527D01*
X126914759Y-73434479D01*
X126935157Y-73396317D01*
X126935157Y-73773000D01*
X126943666Y-73859394D01*
X126968866Y-73942469D01*
X127009790Y-74019030D01*
X127064863Y-74086137D01*
X127131970Y-74141210D01*
X127208531Y-74182134D01*
X127291606Y-74207334D01*
X127378000Y-74215843D01*
X127562000Y-74215843D01*
X127562001Y-77624144D01*
X127559553Y-77649000D01*
X127569322Y-77748192D01*
X127598255Y-77843574D01*
X127615541Y-77875913D01*
X127645242Y-77931479D01*
X127708474Y-78008527D01*
X127727780Y-78024371D01*
X128402628Y-78699220D01*
X128418473Y-78718527D01*
X128495521Y-78781759D01*
X128583425Y-78828745D01*
X128678807Y-78857678D01*
X128778000Y-78867448D01*
X128802854Y-78865000D01*
X133551288Y-78865000D01*
X133573412Y-78918413D01*
X133702658Y-79111843D01*
X133867157Y-79276342D01*
X134060587Y-79405588D01*
X134275515Y-79494614D01*
X134503682Y-79540000D01*
X134736318Y-79540000D01*
X134964485Y-79494614D01*
X135179413Y-79405588D01*
X135372843Y-79276342D01*
X135537342Y-79111843D01*
X135666588Y-78918413D01*
X135755614Y-78703485D01*
X135801000Y-78475318D01*
X135801000Y-78242682D01*
X135755614Y-78014515D01*
X135666588Y-77799587D01*
X135537342Y-77606157D01*
X135372843Y-77441658D01*
X135179413Y-77312412D01*
X134964485Y-77223386D01*
X134736318Y-77178000D01*
X134503682Y-77178000D01*
X134275515Y-77223386D01*
X134060587Y-77312412D01*
X133867157Y-77441658D01*
X133702658Y-77606157D01*
X133573412Y-77799587D01*
X133551288Y-77853000D01*
X128987592Y-77853000D01*
X128574000Y-77439409D01*
X128574000Y-74215843D01*
X128758000Y-74215843D01*
X128844394Y-74207334D01*
X128927469Y-74182134D01*
X129004030Y-74141210D01*
X129071137Y-74086137D01*
X129126210Y-74019030D01*
X129167134Y-73942469D01*
X129192334Y-73859394D01*
X129200843Y-73773000D01*
X129200843Y-73293000D01*
X129192334Y-73206606D01*
X129167134Y-73123531D01*
X129148676Y-73089000D01*
X129396409Y-73089000D01*
X129796000Y-73488592D01*
X129796001Y-74778144D01*
X129793553Y-74803000D01*
X129803322Y-74902192D01*
X129832255Y-74997574D01*
X129846836Y-75024853D01*
X129879242Y-75085479D01*
X129942474Y-75162527D01*
X129961780Y-75178371D01*
X130561628Y-75778220D01*
X130577473Y-75797527D01*
X130654521Y-75860759D01*
X130742425Y-75907745D01*
X130837807Y-75936678D01*
X130937000Y-75946448D01*
X130961854Y-75944000D01*
X141072154Y-75944000D01*
X141097000Y-75946447D01*
X141121846Y-75944000D01*
X141121854Y-75944000D01*
X141196193Y-75936678D01*
X141291575Y-75907745D01*
X141379479Y-75860759D01*
X141456527Y-75797527D01*
X141472376Y-75778215D01*
X142072220Y-75178372D01*
X142091527Y-75162527D01*
X142154759Y-75085479D01*
X142201745Y-74997575D01*
X142230678Y-74902193D01*
X142238000Y-74827854D01*
X142238000Y-74827853D01*
X142240448Y-74803000D01*
X142238000Y-74778146D01*
X142238000Y-73231741D01*
X142357351Y-73151993D01*
X142493993Y-73015351D01*
X142573741Y-72896000D01*
X142665409Y-72896000D01*
X142877001Y-73107593D01*
X142877000Y-79165408D01*
X142665409Y-79377000D01*
X142546712Y-79377000D01*
X142524588Y-79323587D01*
X142395342Y-79130157D01*
X142230843Y-78965658D01*
X142037413Y-78836412D01*
X141822485Y-78747386D01*
X141594318Y-78702000D01*
X141361682Y-78702000D01*
X141133515Y-78747386D01*
X140918587Y-78836412D01*
X140725157Y-78965658D01*
X140560658Y-79130157D01*
X140431412Y-79323587D01*
X140342386Y-79538515D01*
X140297000Y-79766682D01*
X140297000Y-79999318D01*
X140342386Y-80227485D01*
X140431412Y-80442413D01*
X140560658Y-80635843D01*
X140725157Y-80800342D01*
X140918587Y-80929588D01*
X141133515Y-81018614D01*
X141361682Y-81064000D01*
X141594318Y-81064000D01*
X141822485Y-81018614D01*
X142037413Y-80929588D01*
X142230843Y-80800342D01*
X142395342Y-80635843D01*
X142524588Y-80442413D01*
X142546712Y-80389000D01*
X142850154Y-80389000D01*
X142875000Y-80391447D01*
X142899846Y-80389000D01*
X142899854Y-80389000D01*
X142974193Y-80381678D01*
X143069575Y-80352745D01*
X143157479Y-80305759D01*
X143234527Y-80242527D01*
X143250376Y-80223215D01*
X143723220Y-79750372D01*
X143742527Y-79734527D01*
X143805759Y-79657479D01*
X143852745Y-79569575D01*
X143881678Y-79474193D01*
X143889000Y-79399854D01*
X143889000Y-79399847D01*
X143891447Y-79375001D01*
X143889000Y-79350155D01*
X143889000Y-73382702D01*
X144474903Y-73382702D01*
X144546486Y-73626671D01*
X144801996Y-73747571D01*
X145076184Y-73816300D01*
X145358512Y-73830217D01*
X145638130Y-73788787D01*
X145904292Y-73693603D01*
X146029514Y-73626671D01*
X146101097Y-73382702D01*
X145288000Y-72569605D01*
X144474903Y-73382702D01*
X143889000Y-73382702D01*
X143889000Y-72922845D01*
X143891447Y-72897999D01*
X143889000Y-72873153D01*
X143889000Y-72873146D01*
X143882324Y-72805370D01*
X143881678Y-72798806D01*
X143860576Y-72729242D01*
X143852745Y-72703425D01*
X143805759Y-72615521D01*
X143742527Y-72538473D01*
X143723220Y-72522628D01*
X143661104Y-72460512D01*
X143847783Y-72460512D01*
X143889213Y-72740130D01*
X143984397Y-73006292D01*
X144051329Y-73131514D01*
X144295298Y-73203097D01*
X145108395Y-72390000D01*
X144295298Y-71576903D01*
X144051329Y-71648486D01*
X143930429Y-71903996D01*
X143861700Y-72178184D01*
X143847783Y-72460512D01*
X143661104Y-72460512D01*
X143250376Y-72049785D01*
X143234527Y-72030473D01*
X143157479Y-71967241D01*
X143069575Y-71920255D01*
X142974193Y-71891322D01*
X142899854Y-71884000D01*
X142899846Y-71884000D01*
X142875000Y-71881553D01*
X142850154Y-71884000D01*
X142573741Y-71884000D01*
X142493993Y-71764649D01*
X142357351Y-71628007D01*
X142238000Y-71548259D01*
X142238000Y-71397298D01*
X144474903Y-71397298D01*
X145288000Y-72210395D01*
X146101097Y-71397298D01*
X146029514Y-71153329D01*
X145774004Y-71032429D01*
X145499816Y-70963700D01*
X145217488Y-70949783D01*
X144937870Y-70991213D01*
X144671708Y-71086397D01*
X144546486Y-71153329D01*
X144474903Y-71397298D01*
X142238000Y-71397298D01*
X142238000Y-70763845D01*
X142240447Y-70738999D01*
X142238000Y-70714153D01*
X142238000Y-70714146D01*
X142230678Y-70639807D01*
X142201745Y-70544425D01*
X142154759Y-70456521D01*
X142091527Y-70379473D01*
X142072220Y-70363628D01*
X141726376Y-70017785D01*
X141710527Y-69998473D01*
X141633479Y-69935241D01*
X141545575Y-69888255D01*
X141450193Y-69859322D01*
X141375854Y-69852000D01*
X141375846Y-69852000D01*
X141351000Y-69849553D01*
X141326154Y-69852000D01*
X136295845Y-69852000D01*
X136270999Y-69849553D01*
X136246153Y-69852000D01*
X136246146Y-69852000D01*
X136181694Y-69858348D01*
X136171806Y-69859322D01*
X136154150Y-69864678D01*
X136076425Y-69888255D01*
X135988521Y-69935241D01*
X135911473Y-69998473D01*
X135895628Y-70017780D01*
X135422780Y-70490629D01*
X135403474Y-70506473D01*
X135340242Y-70583521D01*
X135331757Y-70599395D01*
X135293255Y-70671426D01*
X135264322Y-70766808D01*
X135254553Y-70866000D01*
X135257001Y-70890856D01*
X135257001Y-71675259D01*
X135137649Y-71755007D01*
X135001007Y-71891649D01*
X134902698Y-72038778D01*
X134877202Y-71970582D01*
X134836348Y-71894148D01*
X134612764Y-71846841D01*
X133942605Y-72517000D01*
X134612764Y-73187159D01*
X134836348Y-73139852D01*
X134902440Y-72994835D01*
X135001007Y-73142351D01*
X135137649Y-73278993D01*
X135298322Y-73386351D01*
X135476853Y-73460301D01*
X135666380Y-73498000D01*
X135859620Y-73498000D01*
X136049147Y-73460301D01*
X136227678Y-73386351D01*
X136388351Y-73278993D01*
X136427580Y-73239764D01*
X139061841Y-73239764D01*
X139109148Y-73463348D01*
X139330516Y-73564237D01*
X139567313Y-73620000D01*
X139810438Y-73628495D01*
X140050549Y-73589395D01*
X140278418Y-73504202D01*
X140354852Y-73463348D01*
X140402159Y-73239764D01*
X139732000Y-72569605D01*
X139061841Y-73239764D01*
X136427580Y-73239764D01*
X136524993Y-73142351D01*
X136632351Y-72981678D01*
X136706301Y-72803147D01*
X136744000Y-72613620D01*
X136744000Y-72468438D01*
X138493505Y-72468438D01*
X138532605Y-72708549D01*
X138617798Y-72936418D01*
X138658652Y-73012852D01*
X138882236Y-73060159D01*
X139552395Y-72390000D01*
X138882236Y-71719841D01*
X138658652Y-71767148D01*
X138557763Y-71988516D01*
X138502000Y-72225313D01*
X138493505Y-72468438D01*
X136744000Y-72468438D01*
X136744000Y-72420380D01*
X136706301Y-72230853D01*
X136632351Y-72052322D01*
X136524993Y-71891649D01*
X136388351Y-71755007D01*
X136269000Y-71675259D01*
X136269000Y-71540236D01*
X139061841Y-71540236D01*
X139732000Y-72210395D01*
X140402159Y-71540236D01*
X140354852Y-71316652D01*
X140133484Y-71215763D01*
X139896687Y-71160000D01*
X139653562Y-71151505D01*
X139413451Y-71190605D01*
X139185582Y-71275798D01*
X139109148Y-71316652D01*
X139061841Y-71540236D01*
X136269000Y-71540236D01*
X136269000Y-71075591D01*
X136480592Y-70864000D01*
X141141409Y-70864000D01*
X141226000Y-70948592D01*
X141226000Y-71548259D01*
X141106649Y-71628007D01*
X140970007Y-71764649D01*
X140871698Y-71911778D01*
X140846202Y-71843582D01*
X140805348Y-71767148D01*
X140581764Y-71719841D01*
X139911605Y-72390000D01*
X140581764Y-73060159D01*
X140805348Y-73012852D01*
X140871440Y-72867835D01*
X140970007Y-73015351D01*
X141106649Y-73151993D01*
X141226001Y-73231741D01*
X141226000Y-74593408D01*
X140887409Y-74932000D01*
X131146592Y-74932000D01*
X130808000Y-74593409D01*
X130808000Y-73366764D01*
X133092841Y-73366764D01*
X133140148Y-73590348D01*
X133361516Y-73691237D01*
X133598313Y-73747000D01*
X133841438Y-73755495D01*
X134081549Y-73716395D01*
X134309418Y-73631202D01*
X134385852Y-73590348D01*
X134433159Y-73366764D01*
X133763000Y-72696605D01*
X133092841Y-73366764D01*
X130808000Y-73366764D01*
X130808000Y-73303854D01*
X130810448Y-73279000D01*
X130800678Y-73179807D01*
X130771745Y-73084425D01*
X130754845Y-73052808D01*
X130724759Y-72996521D01*
X130661527Y-72919473D01*
X130642220Y-72903628D01*
X130334030Y-72595438D01*
X132524505Y-72595438D01*
X132563605Y-72835549D01*
X132648798Y-73063418D01*
X132689652Y-73139852D01*
X132913236Y-73187159D01*
X133583395Y-72517000D01*
X132913236Y-71846841D01*
X132689652Y-71894148D01*
X132588763Y-72115516D01*
X132533000Y-72352313D01*
X132524505Y-72595438D01*
X130334030Y-72595438D01*
X129981376Y-72242785D01*
X129965527Y-72223473D01*
X129888479Y-72160241D01*
X129800575Y-72113255D01*
X129705193Y-72084322D01*
X129647646Y-72078654D01*
X129690479Y-72055759D01*
X129767527Y-71992527D01*
X129783376Y-71973215D01*
X130089355Y-71667236D01*
X133092841Y-71667236D01*
X133763000Y-72337395D01*
X134433159Y-71667236D01*
X134385852Y-71443652D01*
X134164484Y-71342763D01*
X133927687Y-71287000D01*
X133684562Y-71278505D01*
X133444451Y-71317605D01*
X133216582Y-71402798D01*
X133140148Y-71443652D01*
X133092841Y-71667236D01*
X130089355Y-71667236D01*
X130388220Y-71368372D01*
X130407527Y-71352527D01*
X130470759Y-71275479D01*
X130517745Y-71187575D01*
X130546678Y-71092193D01*
X130554000Y-71017854D01*
X130554000Y-71017853D01*
X130556448Y-70993000D01*
X130554000Y-70968146D01*
X130554000Y-69678591D01*
X131273592Y-68959000D01*
X146856409Y-68959000D01*
X147282000Y-69384592D01*
X147282001Y-71207157D01*
X146988000Y-71207157D01*
X146913311Y-71214513D01*
X146841492Y-71236299D01*
X146775304Y-71271678D01*
X146717289Y-71319289D01*
X146669678Y-71377304D01*
X146634299Y-71443492D01*
X146612513Y-71515311D01*
X146605157Y-71590000D01*
X146605157Y-71811609D01*
X146591603Y-71773708D01*
X146524671Y-71648486D01*
X146280702Y-71576903D01*
X145467605Y-72390000D01*
X146280702Y-73203097D01*
X146524671Y-73131514D01*
X146605157Y-72961415D01*
X146605157Y-73190000D01*
X146612513Y-73264689D01*
X146634299Y-73336508D01*
X146669678Y-73402696D01*
X146717289Y-73460711D01*
X146775304Y-73508322D01*
X146841492Y-73543701D01*
X146913311Y-73565487D01*
X146988000Y-73572843D01*
X147322001Y-73572843D01*
X147322000Y-79031157D01*
X146978000Y-79031157D01*
X146903311Y-79038513D01*
X146831492Y-79060299D01*
X146765304Y-79095678D01*
X146707289Y-79143289D01*
X146659678Y-79201304D01*
X146624299Y-79267492D01*
X146602513Y-79339311D01*
X146595157Y-79414000D01*
X146595157Y-81114000D01*
X146602513Y-81188689D01*
X146624299Y-81260508D01*
X146659678Y-81326696D01*
X146707289Y-81384711D01*
X146765304Y-81432322D01*
X146831492Y-81467701D01*
X146903311Y-81489487D01*
X146978000Y-81496843D01*
X148678000Y-81496843D01*
X148752689Y-81489487D01*
X148824508Y-81467701D01*
X148890696Y-81432322D01*
X148948711Y-81384711D01*
X148996322Y-81326696D01*
X149031701Y-81260508D01*
X149053487Y-81188689D01*
X149060843Y-81114000D01*
X149060843Y-80770000D01*
X149245168Y-80770000D01*
X149277102Y-80847097D01*
X149411820Y-81048717D01*
X149583283Y-81220180D01*
X149784903Y-81354898D01*
X150008931Y-81447693D01*
X150246757Y-81495000D01*
X150489243Y-81495000D01*
X150727069Y-81447693D01*
X150951097Y-81354898D01*
X151152717Y-81220180D01*
X151324180Y-81048717D01*
X151458898Y-80847097D01*
X151551693Y-80623069D01*
X151599000Y-80385243D01*
X151599000Y-80142757D01*
X151551693Y-79904931D01*
X151458898Y-79680903D01*
X151324180Y-79479283D01*
X151152717Y-79307820D01*
X150951097Y-79173102D01*
X150727069Y-79080307D01*
X150489243Y-79033000D01*
X150246757Y-79033000D01*
X150008931Y-79080307D01*
X149784903Y-79173102D01*
X149583283Y-79307820D01*
X149411820Y-79479283D01*
X149277102Y-79680903D01*
X149245168Y-79758000D01*
X149060843Y-79758000D01*
X149060843Y-79414000D01*
X149053487Y-79339311D01*
X149031701Y-79267492D01*
X148996322Y-79201304D01*
X148948711Y-79143289D01*
X148890696Y-79095678D01*
X148824508Y-79060299D01*
X148752689Y-79038513D01*
X148678000Y-79031157D01*
X148334000Y-79031157D01*
X148334000Y-73572843D01*
X148588000Y-73572843D01*
X148662689Y-73565487D01*
X148734508Y-73543701D01*
X148800696Y-73508322D01*
X148858711Y-73460711D01*
X148906322Y-73402696D01*
X148941701Y-73336508D01*
X148963487Y-73264689D01*
X148970843Y-73190000D01*
X148970843Y-71590000D01*
X148963487Y-71515311D01*
X148941701Y-71443492D01*
X148906322Y-71377304D01*
X148858711Y-71319289D01*
X148800696Y-71271678D01*
X148734508Y-71236299D01*
X148662689Y-71214513D01*
X148588000Y-71207157D01*
X148294000Y-71207157D01*
X148294000Y-69199845D01*
X148296447Y-69174999D01*
X148294000Y-69150153D01*
X148294000Y-69150146D01*
X148286678Y-69075807D01*
X148257745Y-68980425D01*
X148210759Y-68892521D01*
X148147527Y-68815473D01*
X148128220Y-68799628D01*
X147441376Y-68112785D01*
X147425527Y-68093473D01*
X147348479Y-68030241D01*
X147260575Y-67983255D01*
X147165193Y-67954322D01*
X147090854Y-67947000D01*
X147090846Y-67947000D01*
X147066000Y-67944553D01*
X147041154Y-67947000D01*
X131088846Y-67947000D01*
X131064000Y-67944553D01*
X131039154Y-67947000D01*
X131039146Y-67947000D01*
X130964807Y-67954322D01*
X130869425Y-67983255D01*
X130781521Y-68030241D01*
X130704473Y-68093473D01*
X130688628Y-68112780D01*
X129707780Y-69093629D01*
X129688474Y-69109473D01*
X129625242Y-69186521D01*
X129607136Y-69220395D01*
X129578255Y-69274426D01*
X129549322Y-69369808D01*
X129539553Y-69469000D01*
X129542001Y-69493856D01*
X129542000Y-70783408D01*
X129198409Y-71127000D01*
X129109821Y-71127000D01*
X129071137Y-71079863D01*
X129004030Y-71024790D01*
X128927469Y-70983866D01*
X128844394Y-70958666D01*
X128758000Y-70950157D01*
X127378000Y-70950157D01*
X127291606Y-70958666D01*
X127208531Y-70983866D01*
X127131970Y-71024790D01*
X127064863Y-71079863D01*
X127026179Y-71127000D01*
X126765845Y-71127000D01*
X126740999Y-71124553D01*
X126716153Y-71127000D01*
X126716146Y-71127000D01*
X126651694Y-71133348D01*
X126641806Y-71134322D01*
X126551360Y-71161758D01*
X126546425Y-71163255D01*
X126458521Y-71210241D01*
X126381473Y-71273473D01*
X126365624Y-71292785D01*
X126151781Y-71506628D01*
X126132474Y-71522473D01*
X126100843Y-71561015D01*
X126100843Y-71393000D01*
X126092334Y-71306606D01*
X126067134Y-71223531D01*
X126026210Y-71146970D01*
X125971137Y-71079863D01*
X125904030Y-71024790D01*
X125827469Y-70983866D01*
X125744394Y-70958666D01*
X125658000Y-70950157D01*
X124278000Y-70950157D01*
X124191606Y-70958666D01*
X124108531Y-70983866D01*
X124031970Y-71024790D01*
X123964863Y-71079863D01*
X123926179Y-71127000D01*
X122515592Y-71127000D01*
X122398490Y-71009898D01*
X122420614Y-70956485D01*
X122466000Y-70728318D01*
X122466000Y-70495682D01*
X122420614Y-70267515D01*
X122331588Y-70052587D01*
X122202342Y-69859157D01*
X122037843Y-69694658D01*
X121844413Y-69565412D01*
X121629485Y-69476386D01*
X121401318Y-69431000D01*
X121168682Y-69431000D01*
X120940515Y-69476386D01*
X120725587Y-69565412D01*
X120532157Y-69694658D01*
X120367658Y-69859157D01*
X120238412Y-70052587D01*
X120149386Y-70267515D01*
X120104000Y-70495682D01*
X120104000Y-70728318D01*
X120149386Y-70956485D01*
X120238412Y-71171413D01*
X120367658Y-71364843D01*
X120532157Y-71529342D01*
X120725587Y-71658588D01*
X120940515Y-71747614D01*
X121168682Y-71793000D01*
X121401318Y-71793000D01*
X121629485Y-71747614D01*
X121682898Y-71725490D01*
X121930628Y-71973220D01*
X121946473Y-71992527D01*
X122023521Y-72055759D01*
X122111425Y-72102745D01*
X122206807Y-72131678D01*
X122281146Y-72139000D01*
X122281153Y-72139000D01*
X122305999Y-72141447D01*
X122330845Y-72139000D01*
X123598109Y-72139000D01*
X123592188Y-72158518D01*
X123579928Y-72283000D01*
X123583000Y-72297250D01*
X123741750Y-72456000D01*
X124841000Y-72456000D01*
X124841000Y-72436000D01*
X125095000Y-72436000D01*
X125095000Y-72456000D01*
X125115000Y-72456000D01*
X125115000Y-72710000D01*
X125095000Y-72710000D01*
X125095000Y-72730000D01*
X124841000Y-72730000D01*
X124841000Y-72710000D01*
X123741750Y-72710000D01*
X123583000Y-72868750D01*
X123579928Y-72883000D01*
X123592188Y-73007482D01*
X123598109Y-73027000D01*
X121591845Y-73027000D01*
X121566999Y-73024553D01*
X121542153Y-73027000D01*
X121542146Y-73027000D01*
X121477694Y-73033348D01*
X121467806Y-73034322D01*
X121406865Y-73052808D01*
X121372425Y-73063255D01*
X121284521Y-73110241D01*
X121207473Y-73173473D01*
X121191624Y-73192785D01*
X120944785Y-73439624D01*
X120925473Y-73455473D01*
X120862241Y-73532521D01*
X120815255Y-73620426D01*
X120786322Y-73715808D01*
X120779000Y-73790147D01*
X120779000Y-73790154D01*
X120776553Y-73815000D01*
X120779000Y-73839846D01*
X120779001Y-79703287D01*
X120725587Y-79725412D01*
X120532157Y-79854658D01*
X120367658Y-80019157D01*
X120238412Y-80212587D01*
X120149386Y-80427515D01*
X120104000Y-80655682D01*
X120104000Y-80888318D01*
X120149386Y-81116485D01*
X120238412Y-81331413D01*
X120367658Y-81524843D01*
X120532157Y-81689342D01*
X120725587Y-81818588D01*
X120779000Y-81840712D01*
X120779001Y-84905407D01*
X120490409Y-85194000D01*
X98824845Y-85194000D01*
X98799999Y-85191553D01*
X98775153Y-85194000D01*
X98775146Y-85194000D01*
X98710694Y-85200348D01*
X98700806Y-85201322D01*
X98605425Y-85230255D01*
X98517521Y-85277241D01*
X98440473Y-85340473D01*
X98424629Y-85359779D01*
X97957785Y-85826624D01*
X97938473Y-85842473D01*
X97875241Y-85919521D01*
X97828255Y-86007426D01*
X97799322Y-86102808D01*
X97792000Y-86177147D01*
X97792000Y-86177154D01*
X97789553Y-86202000D01*
X97792000Y-86226846D01*
X97792000Y-87652330D01*
X97593955Y-87734363D01*
X96706000Y-86846409D01*
X96706000Y-81192000D01*
X97192157Y-81192000D01*
X97192157Y-82892000D01*
X97199513Y-82966689D01*
X97221299Y-83038508D01*
X97256678Y-83104696D01*
X97304289Y-83162711D01*
X97362304Y-83210322D01*
X97428492Y-83245701D01*
X97500311Y-83267487D01*
X97575000Y-83274843D01*
X99275000Y-83274843D01*
X99349689Y-83267487D01*
X99421508Y-83245701D01*
X99487696Y-83210322D01*
X99545711Y-83162711D01*
X99593322Y-83104696D01*
X99628701Y-83038508D01*
X99650487Y-82966689D01*
X99657843Y-82892000D01*
X99657843Y-82548000D01*
X99842168Y-82548000D01*
X99874102Y-82625097D01*
X100008820Y-82826717D01*
X100180283Y-82998180D01*
X100381903Y-83132898D01*
X100459000Y-83164833D01*
X100459000Y-83414153D01*
X100456553Y-83439000D01*
X100459000Y-83463846D01*
X100459000Y-83463853D01*
X100466322Y-83538192D01*
X100495255Y-83633574D01*
X100542241Y-83721479D01*
X100605473Y-83798527D01*
X100624785Y-83814376D01*
X100970628Y-84160220D01*
X100986473Y-84179527D01*
X101063521Y-84242759D01*
X101151425Y-84289745D01*
X101224607Y-84311944D01*
X101246806Y-84318678D01*
X101256694Y-84319652D01*
X101321146Y-84326000D01*
X101321153Y-84326000D01*
X101345999Y-84328447D01*
X101370845Y-84326000D01*
X107036154Y-84326000D01*
X107061000Y-84328447D01*
X107085846Y-84326000D01*
X107085854Y-84326000D01*
X107160193Y-84318678D01*
X107255575Y-84289745D01*
X107343479Y-84242759D01*
X107420527Y-84179527D01*
X107436376Y-84160215D01*
X107782220Y-83814372D01*
X107801527Y-83798527D01*
X107864759Y-83721479D01*
X107871513Y-83708843D01*
X107892000Y-83708843D01*
X107966689Y-83701487D01*
X108038508Y-83679701D01*
X108104696Y-83644322D01*
X108162711Y-83596711D01*
X108210322Y-83538696D01*
X108245701Y-83472508D01*
X108257989Y-83432000D01*
X109349154Y-83432000D01*
X109374000Y-83434447D01*
X109398846Y-83432000D01*
X109398854Y-83432000D01*
X109473193Y-83424678D01*
X109568575Y-83395745D01*
X109656479Y-83348759D01*
X109733527Y-83285527D01*
X109749376Y-83266215D01*
X110140220Y-82875372D01*
X110159527Y-82859527D01*
X110222759Y-82782479D01*
X110269745Y-82694575D01*
X110298678Y-82599193D01*
X110306000Y-82524854D01*
X110306000Y-82524846D01*
X110308447Y-82500000D01*
X110306000Y-82475154D01*
X110306000Y-81949764D01*
X111729841Y-81949764D01*
X111777148Y-82173348D01*
X111998516Y-82274237D01*
X112235313Y-82330000D01*
X112478438Y-82338495D01*
X112718549Y-82299395D01*
X112946418Y-82214202D01*
X113022852Y-82173348D01*
X113070159Y-81949764D01*
X112400000Y-81279605D01*
X111729841Y-81949764D01*
X110306000Y-81949764D01*
X110306000Y-81178438D01*
X111161505Y-81178438D01*
X111200605Y-81418549D01*
X111285798Y-81646418D01*
X111326652Y-81722852D01*
X111550236Y-81770159D01*
X112220395Y-81100000D01*
X112579605Y-81100000D01*
X113249764Y-81770159D01*
X113473348Y-81722852D01*
X113539440Y-81577835D01*
X113638007Y-81725351D01*
X113774649Y-81861993D01*
X113935322Y-81969351D01*
X114113853Y-82043301D01*
X114303380Y-82081000D01*
X114496620Y-82081000D01*
X114686147Y-82043301D01*
X114864678Y-81969351D01*
X115025351Y-81861993D01*
X115161993Y-81725351D01*
X115241741Y-81606000D01*
X117019815Y-81606000D01*
X117103157Y-81689342D01*
X117296587Y-81818588D01*
X117511515Y-81907614D01*
X117739682Y-81953000D01*
X117972318Y-81953000D01*
X118200485Y-81907614D01*
X118415413Y-81818588D01*
X118608843Y-81689342D01*
X118773342Y-81524843D01*
X118902588Y-81331413D01*
X118991614Y-81116485D01*
X119037000Y-80888318D01*
X119037000Y-80655682D01*
X118991614Y-80427515D01*
X118902588Y-80212587D01*
X118773342Y-80019157D01*
X118608843Y-79854658D01*
X118415413Y-79725412D01*
X118200485Y-79636386D01*
X117972318Y-79591000D01*
X117739682Y-79591000D01*
X117511515Y-79636386D01*
X117296587Y-79725412D01*
X117103157Y-79854658D01*
X116938658Y-80019157D01*
X116809412Y-80212587D01*
X116720386Y-80427515D01*
X116687270Y-80594000D01*
X115241741Y-80594000D01*
X115161993Y-80474649D01*
X115025351Y-80338007D01*
X114864678Y-80230649D01*
X114686147Y-80156699D01*
X114496620Y-80119000D01*
X114303380Y-80119000D01*
X114113853Y-80156699D01*
X113935322Y-80230649D01*
X113774649Y-80338007D01*
X113638007Y-80474649D01*
X113539698Y-80621778D01*
X113514202Y-80553582D01*
X113473348Y-80477148D01*
X113249764Y-80429841D01*
X112579605Y-81100000D01*
X112220395Y-81100000D01*
X111550236Y-80429841D01*
X111326652Y-80477148D01*
X111225763Y-80698516D01*
X111170000Y-80935313D01*
X111161505Y-81178438D01*
X110306000Y-81178438D01*
X110306000Y-80250236D01*
X111729841Y-80250236D01*
X112400000Y-80920395D01*
X113070159Y-80250236D01*
X113022852Y-80026652D01*
X112801484Y-79925763D01*
X112564687Y-79870000D01*
X112321562Y-79861505D01*
X112081451Y-79900605D01*
X111853582Y-79985798D01*
X111777148Y-80026652D01*
X111729841Y-80250236D01*
X110306000Y-80250236D01*
X110306000Y-78924845D01*
X110308447Y-78899999D01*
X110306000Y-78875153D01*
X110306000Y-78875146D01*
X110298678Y-78800807D01*
X110269745Y-78705425D01*
X110222759Y-78617521D01*
X110159527Y-78540473D01*
X110140215Y-78524624D01*
X109875376Y-78259785D01*
X109859527Y-78240473D01*
X109782479Y-78177241D01*
X109694575Y-78130255D01*
X109599193Y-78101322D01*
X109524854Y-78094000D01*
X109500000Y-78091552D01*
X109475146Y-78094000D01*
X108168712Y-78094000D01*
X108146588Y-78040587D01*
X108017342Y-77847157D01*
X107852843Y-77682658D01*
X107659413Y-77553412D01*
X107444485Y-77464386D01*
X107216318Y-77419000D01*
X106983682Y-77419000D01*
X106755515Y-77464386D01*
X106540587Y-77553412D01*
X106347157Y-77682658D01*
X106182658Y-77847157D01*
X106053412Y-78040587D01*
X105964386Y-78255515D01*
X105919000Y-78483682D01*
X105919000Y-78716318D01*
X105964386Y-78944485D01*
X106053412Y-79159413D01*
X106182658Y-79352843D01*
X106347157Y-79517342D01*
X106540587Y-79646588D01*
X106755515Y-79735614D01*
X106983682Y-79781000D01*
X107216318Y-79781000D01*
X107444485Y-79735614D01*
X107659413Y-79646588D01*
X107852843Y-79517342D01*
X108017342Y-79352843D01*
X108146588Y-79159413D01*
X108168712Y-79106000D01*
X109290409Y-79106000D01*
X109294001Y-79109592D01*
X109294000Y-82290408D01*
X109164409Y-82420000D01*
X108257989Y-82420000D01*
X108245701Y-82379492D01*
X108210322Y-82313304D01*
X108162711Y-82255289D01*
X108104696Y-82207678D01*
X108038508Y-82172299D01*
X107966689Y-82150513D01*
X107892000Y-82143157D01*
X106992000Y-82143157D01*
X106917311Y-82150513D01*
X106845492Y-82172299D01*
X106779304Y-82207678D01*
X106721289Y-82255289D01*
X106673678Y-82313304D01*
X106638299Y-82379492D01*
X106616513Y-82451311D01*
X106609157Y-82526000D01*
X106609157Y-83314000D01*
X101555592Y-83314000D01*
X101471000Y-83229409D01*
X101471000Y-83164832D01*
X101548097Y-83132898D01*
X101749717Y-82998180D01*
X101921180Y-82826717D01*
X102055898Y-82625097D01*
X102148693Y-82401069D01*
X102196000Y-82163243D01*
X102196000Y-81920757D01*
X102148693Y-81682931D01*
X102055898Y-81458903D01*
X101921180Y-81257283D01*
X101749717Y-81085820D01*
X101548097Y-80951102D01*
X101324069Y-80858307D01*
X101086243Y-80811000D01*
X100843757Y-80811000D01*
X100605931Y-80858307D01*
X100381903Y-80951102D01*
X100180283Y-81085820D01*
X100008820Y-81257283D01*
X99874102Y-81458903D01*
X99842168Y-81536000D01*
X99657843Y-81536000D01*
X99657843Y-81192000D01*
X99650487Y-81117311D01*
X99628701Y-81045492D01*
X99593322Y-80979304D01*
X99545711Y-80921289D01*
X99487696Y-80873678D01*
X99421508Y-80838299D01*
X99349689Y-80816513D01*
X99275000Y-80809157D01*
X97575000Y-80809157D01*
X97500311Y-80816513D01*
X97428492Y-80838299D01*
X97362304Y-80873678D01*
X97304289Y-80921289D01*
X97256678Y-80979304D01*
X97221299Y-81045492D01*
X97199513Y-81117311D01*
X97192157Y-81192000D01*
X96706000Y-81192000D01*
X96706000Y-78496682D01*
X96990000Y-78496682D01*
X96990000Y-78729318D01*
X97035386Y-78957485D01*
X97124412Y-79172413D01*
X97253658Y-79365843D01*
X97418157Y-79530342D01*
X97611587Y-79659588D01*
X97826515Y-79748614D01*
X98054682Y-79794000D01*
X98287318Y-79794000D01*
X98515485Y-79748614D01*
X98730413Y-79659588D01*
X98923843Y-79530342D01*
X99088342Y-79365843D01*
X99217588Y-79172413D01*
X99306614Y-78957485D01*
X99352000Y-78729318D01*
X99352000Y-78496682D01*
X101562000Y-78496682D01*
X101562000Y-78729318D01*
X101607386Y-78957485D01*
X101696412Y-79172413D01*
X101825658Y-79365843D01*
X101990157Y-79530342D01*
X102183587Y-79659588D01*
X102398515Y-79748614D01*
X102626682Y-79794000D01*
X102859318Y-79794000D01*
X103087485Y-79748614D01*
X103302413Y-79659588D01*
X103495843Y-79530342D01*
X103660342Y-79365843D01*
X103789588Y-79172413D01*
X103811712Y-79119000D01*
X104692409Y-79119000D01*
X104936001Y-79362593D01*
X104936000Y-81198672D01*
X104917311Y-81200513D01*
X104845492Y-81222299D01*
X104779304Y-81257678D01*
X104721289Y-81305289D01*
X104673678Y-81363304D01*
X104638299Y-81429492D01*
X104616513Y-81501311D01*
X104609157Y-81576000D01*
X104609157Y-82376000D01*
X104616513Y-82450689D01*
X104638299Y-82522508D01*
X104673678Y-82588696D01*
X104721289Y-82646711D01*
X104779304Y-82694322D01*
X104845492Y-82729701D01*
X104917311Y-82751487D01*
X104992000Y-82758843D01*
X105892000Y-82758843D01*
X105966689Y-82751487D01*
X106038508Y-82729701D01*
X106104696Y-82694322D01*
X106162711Y-82646711D01*
X106210322Y-82588696D01*
X106245701Y-82522508D01*
X106267487Y-82450689D01*
X106274843Y-82376000D01*
X106274843Y-81576000D01*
X106267487Y-81501311D01*
X106245701Y-81429492D01*
X106243835Y-81426000D01*
X106353928Y-81426000D01*
X106366188Y-81550482D01*
X106402498Y-81670180D01*
X106461463Y-81780494D01*
X106540815Y-81877185D01*
X106637506Y-81956537D01*
X106747820Y-82015502D01*
X106867518Y-82051812D01*
X106992000Y-82064072D01*
X107156250Y-82061000D01*
X107315000Y-81902250D01*
X107315000Y-81153000D01*
X107569000Y-81153000D01*
X107569000Y-81902250D01*
X107727750Y-82061000D01*
X107892000Y-82064072D01*
X108016482Y-82051812D01*
X108136180Y-82015502D01*
X108246494Y-81956537D01*
X108343185Y-81877185D01*
X108422537Y-81780494D01*
X108481502Y-81670180D01*
X108517812Y-81550482D01*
X108530072Y-81426000D01*
X108527000Y-81311750D01*
X108368250Y-81153000D01*
X107569000Y-81153000D01*
X107315000Y-81153000D01*
X106515750Y-81153000D01*
X106357000Y-81311750D01*
X106353928Y-81426000D01*
X106243835Y-81426000D01*
X106210322Y-81363304D01*
X106162711Y-81305289D01*
X106104696Y-81257678D01*
X106038508Y-81222299D01*
X105966689Y-81200513D01*
X105948000Y-81198672D01*
X105948000Y-80626000D01*
X106353928Y-80626000D01*
X106357000Y-80740250D01*
X106515750Y-80899000D01*
X107315000Y-80899000D01*
X107315000Y-80149750D01*
X107569000Y-80149750D01*
X107569000Y-80899000D01*
X108368250Y-80899000D01*
X108527000Y-80740250D01*
X108530072Y-80626000D01*
X108517812Y-80501518D01*
X108481502Y-80381820D01*
X108422537Y-80271506D01*
X108343185Y-80174815D01*
X108246494Y-80095463D01*
X108136180Y-80036498D01*
X108016482Y-80000188D01*
X107892000Y-79987928D01*
X107727750Y-79991000D01*
X107569000Y-80149750D01*
X107315000Y-80149750D01*
X107156250Y-79991000D01*
X106992000Y-79987928D01*
X106867518Y-80000188D01*
X106747820Y-80036498D01*
X106637506Y-80095463D01*
X106540815Y-80174815D01*
X106461463Y-80271506D01*
X106402498Y-80381820D01*
X106366188Y-80501518D01*
X106353928Y-80626000D01*
X105948000Y-80626000D01*
X105948000Y-79177845D01*
X105950447Y-79152999D01*
X105948000Y-79128153D01*
X105948000Y-79128146D01*
X105940678Y-79053807D01*
X105911745Y-78958425D01*
X105864759Y-78870521D01*
X105801527Y-78793473D01*
X105782220Y-78777628D01*
X105277376Y-78272785D01*
X105261527Y-78253473D01*
X105184479Y-78190241D01*
X105096575Y-78143255D01*
X105001193Y-78114322D01*
X104926854Y-78107000D01*
X104926846Y-78107000D01*
X104902000Y-78104553D01*
X104877154Y-78107000D01*
X103811712Y-78107000D01*
X103789588Y-78053587D01*
X103660342Y-77860157D01*
X103495843Y-77695658D01*
X103302413Y-77566412D01*
X103087485Y-77477386D01*
X102859318Y-77432000D01*
X102626682Y-77432000D01*
X102398515Y-77477386D01*
X102183587Y-77566412D01*
X101990157Y-77695658D01*
X101825658Y-77860157D01*
X101696412Y-78053587D01*
X101607386Y-78268515D01*
X101562000Y-78496682D01*
X99352000Y-78496682D01*
X99306614Y-78268515D01*
X99217588Y-78053587D01*
X99088342Y-77860157D01*
X98923843Y-77695658D01*
X98730413Y-77566412D01*
X98515485Y-77477386D01*
X98287318Y-77432000D01*
X98054682Y-77432000D01*
X97826515Y-77477386D01*
X97611587Y-77566412D01*
X97418157Y-77695658D01*
X97253658Y-77860157D01*
X97124412Y-78053587D01*
X97035386Y-78268515D01*
X96990000Y-78496682D01*
X96706000Y-78496682D01*
X96706000Y-76160764D01*
X111724841Y-76160764D01*
X111772148Y-76384348D01*
X111993516Y-76485237D01*
X112230313Y-76541000D01*
X112473438Y-76549495D01*
X112713549Y-76510395D01*
X112941418Y-76425202D01*
X113017852Y-76384348D01*
X113065159Y-76160764D01*
X112395000Y-75490605D01*
X111724841Y-76160764D01*
X96706000Y-76160764D01*
X96706000Y-75389438D01*
X111156505Y-75389438D01*
X111195605Y-75629549D01*
X111280798Y-75857418D01*
X111321652Y-75933852D01*
X111545236Y-75981159D01*
X112215395Y-75311000D01*
X111545236Y-74640841D01*
X111321652Y-74688148D01*
X111220763Y-74909516D01*
X111165000Y-75146313D01*
X111156505Y-75389438D01*
X96706000Y-75389438D01*
X96706000Y-74461236D01*
X111724841Y-74461236D01*
X112395000Y-75131395D01*
X113065159Y-74461236D01*
X113017852Y-74237652D01*
X112796484Y-74136763D01*
X112559687Y-74081000D01*
X112316562Y-74072505D01*
X112076451Y-74111605D01*
X111848582Y-74196798D01*
X111772148Y-74237652D01*
X111724841Y-74461236D01*
X96706000Y-74461236D01*
X96706000Y-70633591D01*
X97089827Y-70249764D01*
X111729841Y-70249764D01*
X111777148Y-70473348D01*
X111998516Y-70574237D01*
X112235313Y-70630000D01*
X112478438Y-70638495D01*
X112718549Y-70599395D01*
X112946418Y-70514202D01*
X113022852Y-70473348D01*
X113070159Y-70249764D01*
X112400000Y-69579605D01*
X111729841Y-70249764D01*
X97089827Y-70249764D01*
X97773102Y-69566490D01*
X97826515Y-69588614D01*
X98054682Y-69634000D01*
X98287318Y-69634000D01*
X98515485Y-69588614D01*
X98730413Y-69499588D01*
X98923843Y-69370342D01*
X99088342Y-69205843D01*
X99217588Y-69012413D01*
X99306614Y-68797485D01*
X99352000Y-68569318D01*
X99352000Y-68336682D01*
X101562000Y-68336682D01*
X101562000Y-68569318D01*
X101607386Y-68797485D01*
X101696412Y-69012413D01*
X101825658Y-69205843D01*
X101990157Y-69370342D01*
X102183587Y-69499588D01*
X102398515Y-69588614D01*
X102626682Y-69634000D01*
X102859318Y-69634000D01*
X103087485Y-69588614D01*
X103302413Y-69499588D01*
X103495843Y-69370342D01*
X103660342Y-69205843D01*
X103789588Y-69012413D01*
X103878614Y-68797485D01*
X103880293Y-68789040D01*
X105708091Y-68789040D01*
X105802930Y-69053881D01*
X105947615Y-69295131D01*
X106136586Y-69503519D01*
X106362580Y-69671037D01*
X106616913Y-69791246D01*
X106750961Y-69831904D01*
X106973000Y-69709915D01*
X106973000Y-68567000D01*
X107227000Y-68567000D01*
X107227000Y-69709915D01*
X107449039Y-69831904D01*
X107583087Y-69791246D01*
X107837420Y-69671037D01*
X108063414Y-69503519D01*
X108086158Y-69478438D01*
X111161505Y-69478438D01*
X111200605Y-69718549D01*
X111285798Y-69946418D01*
X111326652Y-70022852D01*
X111550236Y-70070159D01*
X112220395Y-69400000D01*
X111550236Y-68729841D01*
X111326652Y-68777148D01*
X111225763Y-68998516D01*
X111170000Y-69235313D01*
X111161505Y-69478438D01*
X108086158Y-69478438D01*
X108252385Y-69295131D01*
X108397070Y-69053881D01*
X108491909Y-68789040D01*
X108370624Y-68567000D01*
X107227000Y-68567000D01*
X106973000Y-68567000D01*
X105829376Y-68567000D01*
X105708091Y-68789040D01*
X103880293Y-68789040D01*
X103924000Y-68569318D01*
X103924000Y-68550236D01*
X111729841Y-68550236D01*
X112400000Y-69220395D01*
X113070159Y-68550236D01*
X113022852Y-68326652D01*
X112801484Y-68225763D01*
X112564687Y-68170000D01*
X112321562Y-68161505D01*
X112081451Y-68200605D01*
X111853582Y-68285798D01*
X111777148Y-68326652D01*
X111729841Y-68550236D01*
X103924000Y-68550236D01*
X103924000Y-68336682D01*
X103878614Y-68108515D01*
X103871343Y-68090960D01*
X105708091Y-68090960D01*
X105829376Y-68313000D01*
X106973000Y-68313000D01*
X106973000Y-67170085D01*
X107227000Y-67170085D01*
X107227000Y-68313000D01*
X108370624Y-68313000D01*
X108491909Y-68090960D01*
X108397070Y-67826119D01*
X108252385Y-67584869D01*
X108063414Y-67376481D01*
X107837420Y-67208963D01*
X107583087Y-67088754D01*
X107449039Y-67048096D01*
X107227000Y-67170085D01*
X106973000Y-67170085D01*
X106750961Y-67048096D01*
X106616913Y-67088754D01*
X106362580Y-67208963D01*
X106136586Y-67376481D01*
X105947615Y-67584869D01*
X105802930Y-67826119D01*
X105708091Y-68090960D01*
X103871343Y-68090960D01*
X103789588Y-67893587D01*
X103660342Y-67700157D01*
X103495843Y-67535658D01*
X103302413Y-67406412D01*
X103087485Y-67317386D01*
X102859318Y-67272000D01*
X102626682Y-67272000D01*
X102398515Y-67317386D01*
X102183587Y-67406412D01*
X101990157Y-67535658D01*
X101825658Y-67700157D01*
X101696412Y-67893587D01*
X101607386Y-68108515D01*
X101562000Y-68336682D01*
X99352000Y-68336682D01*
X99306614Y-68108515D01*
X99217588Y-67893587D01*
X99088342Y-67700157D01*
X98923843Y-67535658D01*
X98730413Y-67406412D01*
X98677000Y-67384288D01*
X98677000Y-64986843D01*
X99021000Y-64986843D01*
X99095689Y-64979487D01*
X99167508Y-64957701D01*
X99233696Y-64922322D01*
X99291711Y-64874711D01*
X99339322Y-64816696D01*
X99374701Y-64750508D01*
X99396487Y-64678689D01*
X99403843Y-64604000D01*
X101762928Y-64604000D01*
X101775188Y-64728482D01*
X101811498Y-64848180D01*
X101870463Y-64958494D01*
X101949815Y-65055185D01*
X102046506Y-65134537D01*
X102156820Y-65193502D01*
X102276518Y-65229812D01*
X102401000Y-65242072D01*
X102965250Y-65239000D01*
X103124000Y-65080250D01*
X103124000Y-63881000D01*
X103378000Y-63881000D01*
X103378000Y-65080250D01*
X103536750Y-65239000D01*
X104101000Y-65242072D01*
X104225482Y-65229812D01*
X104345180Y-65193502D01*
X104455494Y-65134537D01*
X104552185Y-65055185D01*
X104631537Y-64958494D01*
X104690502Y-64848180D01*
X104726812Y-64728482D01*
X104739072Y-64604000D01*
X104736000Y-64039750D01*
X104577250Y-63881000D01*
X103378000Y-63881000D01*
X103124000Y-63881000D01*
X101924750Y-63881000D01*
X101766000Y-64039750D01*
X101762928Y-64604000D01*
X99403843Y-64604000D01*
X99403843Y-62904000D01*
X101762928Y-62904000D01*
X101766000Y-63468250D01*
X101924750Y-63627000D01*
X103124000Y-63627000D01*
X103124000Y-62427750D01*
X103378000Y-62427750D01*
X103378000Y-63627000D01*
X104577250Y-63627000D01*
X104736000Y-63468250D01*
X104739072Y-62904000D01*
X104726812Y-62779518D01*
X104690502Y-62659820D01*
X104631537Y-62549506D01*
X104552185Y-62452815D01*
X104455494Y-62373463D01*
X104345180Y-62314498D01*
X104225482Y-62278188D01*
X104101000Y-62265928D01*
X103536750Y-62269000D01*
X103378000Y-62427750D01*
X103124000Y-62427750D01*
X102965250Y-62269000D01*
X102401000Y-62265928D01*
X102276518Y-62278188D01*
X102156820Y-62314498D01*
X102046506Y-62373463D01*
X101949815Y-62452815D01*
X101870463Y-62549506D01*
X101811498Y-62659820D01*
X101775188Y-62779518D01*
X101762928Y-62904000D01*
X99403843Y-62904000D01*
X99396487Y-62829311D01*
X99374701Y-62757492D01*
X99339322Y-62691304D01*
X99291711Y-62633289D01*
X99233696Y-62585678D01*
X99167508Y-62550299D01*
X99095689Y-62528513D01*
X99021000Y-62521157D01*
X98677000Y-62521157D01*
X98677000Y-62238591D01*
X98709591Y-62206000D01*
X105794000Y-62206000D01*
X105794001Y-62875144D01*
X105791553Y-62900000D01*
X105801322Y-62999192D01*
X105830255Y-63094574D01*
X105830256Y-63094575D01*
X105877242Y-63182479D01*
X105940474Y-63259527D01*
X105959780Y-63275371D01*
X106270628Y-63586220D01*
X106286473Y-63605527D01*
X106363521Y-63668759D01*
X106451425Y-63715745D01*
X106546807Y-63744678D01*
X106646000Y-63754448D01*
X106670854Y-63752000D01*
X107789048Y-63752000D01*
X107830793Y-63852781D01*
X107970982Y-64062590D01*
X108149410Y-64241018D01*
X108359219Y-64381207D01*
X108592346Y-64477772D01*
X108839833Y-64527000D01*
X109092167Y-64527000D01*
X109339654Y-64477772D01*
X109572781Y-64381207D01*
X109782590Y-64241018D01*
X109961018Y-64062590D01*
X110101207Y-63852781D01*
X110197772Y-63619654D01*
X110223157Y-63492034D01*
X110223157Y-64146000D01*
X110230513Y-64220689D01*
X110252299Y-64292508D01*
X110287678Y-64358696D01*
X110335289Y-64416711D01*
X110393304Y-64464322D01*
X110459492Y-64499701D01*
X110531311Y-64521487D01*
X110606000Y-64528843D01*
X112406000Y-64528843D01*
X112480689Y-64521487D01*
X112552508Y-64499701D01*
X112618696Y-64464322D01*
X112676711Y-64416711D01*
X112724322Y-64358696D01*
X112759701Y-64292508D01*
X112781487Y-64220689D01*
X112788843Y-64146000D01*
X112788843Y-62346000D01*
X112781487Y-62271311D01*
X112759701Y-62199492D01*
X112724322Y-62133304D01*
X112676711Y-62075289D01*
X112618696Y-62027678D01*
X112552508Y-61992299D01*
X112480689Y-61970513D01*
X112406000Y-61963157D01*
X110606000Y-61963157D01*
X110531311Y-61970513D01*
X110459492Y-61992299D01*
X110393304Y-62027678D01*
X110335289Y-62075289D01*
X110287678Y-62133304D01*
X110252299Y-62199492D01*
X110230513Y-62271311D01*
X110223157Y-62346000D01*
X110223157Y-62999966D01*
X110197772Y-62872346D01*
X110101207Y-62639219D01*
X109961018Y-62429410D01*
X109782590Y-62250982D01*
X109572781Y-62110793D01*
X109406000Y-62041710D01*
X109406000Y-61709591D01*
X109409591Y-61706000D01*
X113690409Y-61706000D01*
X113894001Y-61909593D01*
X113894000Y-68558259D01*
X113774649Y-68638007D01*
X113638007Y-68774649D01*
X113539698Y-68921778D01*
X113514202Y-68853582D01*
X113473348Y-68777148D01*
X113249764Y-68729841D01*
X112579605Y-69400000D01*
X113249764Y-70070159D01*
X113473348Y-70022852D01*
X113539440Y-69877835D01*
X113638007Y-70025351D01*
X113774649Y-70161993D01*
X113889001Y-70238400D01*
X113889000Y-74469259D01*
X113769649Y-74549007D01*
X113633007Y-74685649D01*
X113534698Y-74832778D01*
X113509202Y-74764582D01*
X113468348Y-74688148D01*
X113244764Y-74640841D01*
X112574605Y-75311000D01*
X113244764Y-75981159D01*
X113468348Y-75933852D01*
X113534440Y-75788835D01*
X113633007Y-75936351D01*
X113769649Y-76072993D01*
X113930322Y-76180351D01*
X114108853Y-76254301D01*
X114298380Y-76292000D01*
X114491620Y-76292000D01*
X114681147Y-76254301D01*
X114859678Y-76180351D01*
X115020351Y-76072993D01*
X115156993Y-75936351D01*
X115264351Y-75775678D01*
X115338301Y-75597147D01*
X115376000Y-75407620D01*
X115376000Y-75214380D01*
X115338301Y-75024853D01*
X115264351Y-74846322D01*
X115156993Y-74685649D01*
X115020351Y-74549007D01*
X114901000Y-74469259D01*
X114901000Y-70495682D01*
X116675000Y-70495682D01*
X116675000Y-70728318D01*
X116720386Y-70956485D01*
X116809412Y-71171413D01*
X116938658Y-71364843D01*
X117103157Y-71529342D01*
X117296587Y-71658588D01*
X117511515Y-71747614D01*
X117739682Y-71793000D01*
X117972318Y-71793000D01*
X118200485Y-71747614D01*
X118415413Y-71658588D01*
X118608843Y-71529342D01*
X118773342Y-71364843D01*
X118902588Y-71171413D01*
X118991614Y-70956485D01*
X119037000Y-70728318D01*
X119037000Y-70495682D01*
X118991614Y-70267515D01*
X118902588Y-70052587D01*
X118773342Y-69859157D01*
X118608843Y-69694658D01*
X118415413Y-69565412D01*
X118200485Y-69476386D01*
X117972318Y-69431000D01*
X117739682Y-69431000D01*
X117511515Y-69476386D01*
X117296587Y-69565412D01*
X117103157Y-69694658D01*
X116938658Y-69859157D01*
X116809412Y-70052587D01*
X116720386Y-70267515D01*
X116675000Y-70495682D01*
X114901000Y-70495682D01*
X114901000Y-70245081D01*
X115025351Y-70161993D01*
X115161993Y-70025351D01*
X115269351Y-69864678D01*
X115343301Y-69686147D01*
X115381000Y-69496620D01*
X115381000Y-69303380D01*
X115343301Y-69113853D01*
X115269351Y-68935322D01*
X115161993Y-68774649D01*
X115025351Y-68638007D01*
X114906000Y-68558259D01*
X114906000Y-65288682D01*
X115024000Y-65288682D01*
X115024000Y-65521318D01*
X115069386Y-65749485D01*
X115158412Y-65964413D01*
X115287658Y-66157843D01*
X115452157Y-66322342D01*
X115645587Y-66451588D01*
X115860515Y-66540614D01*
X116088682Y-66586000D01*
X116321318Y-66586000D01*
X116549485Y-66540614D01*
X116764413Y-66451588D01*
X116957843Y-66322342D01*
X117122342Y-66157843D01*
X117251588Y-65964413D01*
X117340614Y-65749485D01*
X117386000Y-65521318D01*
X117386000Y-65288682D01*
X125184000Y-65288682D01*
X125184000Y-65521318D01*
X125229386Y-65749485D01*
X125318412Y-65964413D01*
X125447658Y-66157843D01*
X125612157Y-66322342D01*
X125805587Y-66451588D01*
X126020515Y-66540614D01*
X126248682Y-66586000D01*
X126481318Y-66586000D01*
X126709485Y-66540614D01*
X126924413Y-66451588D01*
X127117843Y-66322342D01*
X127282342Y-66157843D01*
X127411588Y-65964413D01*
X127498727Y-65754039D01*
X128021096Y-65754039D01*
X128061754Y-65888087D01*
X128181963Y-66142420D01*
X128349481Y-66368414D01*
X128557869Y-66557385D01*
X128799119Y-66702070D01*
X129063960Y-66796909D01*
X129286000Y-66675624D01*
X129286000Y-65532000D01*
X129540000Y-65532000D01*
X129540000Y-66675624D01*
X129762040Y-66796909D01*
X130026881Y-66702070D01*
X130268131Y-66557385D01*
X130476519Y-66368414D01*
X130644037Y-66142420D01*
X130764246Y-65888087D01*
X130804904Y-65754039D01*
X130682915Y-65532000D01*
X129540000Y-65532000D01*
X129286000Y-65532000D01*
X128143085Y-65532000D01*
X128021096Y-65754039D01*
X127498727Y-65754039D01*
X127500614Y-65749485D01*
X127546000Y-65521318D01*
X127546000Y-65288682D01*
X127500614Y-65060515D01*
X127498728Y-65055961D01*
X128021096Y-65055961D01*
X128143085Y-65278000D01*
X129286000Y-65278000D01*
X129286000Y-64134376D01*
X129540000Y-64134376D01*
X129540000Y-65278000D01*
X130682915Y-65278000D01*
X130804904Y-65055961D01*
X130764246Y-64921913D01*
X130644037Y-64667580D01*
X130476519Y-64441586D01*
X130268131Y-64252615D01*
X130026881Y-64107930D01*
X129762040Y-64013091D01*
X129540000Y-64134376D01*
X129286000Y-64134376D01*
X129063960Y-64013091D01*
X128799119Y-64107930D01*
X128557869Y-64252615D01*
X128349481Y-64441586D01*
X128181963Y-64667580D01*
X128061754Y-64921913D01*
X128021096Y-65055961D01*
X127498728Y-65055961D01*
X127411588Y-64845587D01*
X127282342Y-64652157D01*
X127117843Y-64487658D01*
X126924413Y-64358412D01*
X126709485Y-64269386D01*
X126481318Y-64224000D01*
X126248682Y-64224000D01*
X126020515Y-64269386D01*
X125805587Y-64358412D01*
X125612157Y-64487658D01*
X125447658Y-64652157D01*
X125318412Y-64845587D01*
X125229386Y-65060515D01*
X125184000Y-65288682D01*
X117386000Y-65288682D01*
X117340614Y-65060515D01*
X117251588Y-64845587D01*
X117122342Y-64652157D01*
X116957843Y-64487658D01*
X116764413Y-64358412D01*
X116711000Y-64336288D01*
X116711000Y-62954843D01*
X117817000Y-62954843D01*
X117891689Y-62947487D01*
X117963508Y-62925701D01*
X118029696Y-62890322D01*
X118087711Y-62842711D01*
X118135322Y-62784696D01*
X118170701Y-62718508D01*
X118192487Y-62646689D01*
X118199843Y-62572000D01*
X118199843Y-62228000D01*
X118384168Y-62228000D01*
X118416102Y-62305097D01*
X118550820Y-62506717D01*
X118722283Y-62678180D01*
X118923903Y-62812898D01*
X119147931Y-62905693D01*
X119385757Y-62953000D01*
X119628243Y-62953000D01*
X119866069Y-62905693D01*
X120090097Y-62812898D01*
X120291717Y-62678180D01*
X120463180Y-62506717D01*
X120504417Y-62445000D01*
X125384928Y-62445000D01*
X125397188Y-62569482D01*
X125433498Y-62689180D01*
X125492463Y-62799494D01*
X125571815Y-62896185D01*
X125668506Y-62975537D01*
X125778820Y-63034502D01*
X125898518Y-63070812D01*
X126023000Y-63083072D01*
X126587250Y-63080000D01*
X126746000Y-62921250D01*
X126746000Y-61722000D01*
X127000000Y-61722000D01*
X127000000Y-62921250D01*
X127158750Y-63080000D01*
X127723000Y-63083072D01*
X127847482Y-63070812D01*
X127967180Y-63034502D01*
X128077494Y-62975537D01*
X128174185Y-62896185D01*
X128253537Y-62799494D01*
X128312502Y-62689180D01*
X128336966Y-62608534D01*
X128412731Y-62692588D01*
X128646080Y-62866641D01*
X128908901Y-62991825D01*
X129056110Y-63036476D01*
X129286000Y-62915155D01*
X129286000Y-61722000D01*
X129540000Y-61722000D01*
X129540000Y-62915155D01*
X129769890Y-63036476D01*
X129917099Y-62991825D01*
X130179920Y-62866641D01*
X130413269Y-62692588D01*
X130608178Y-62476355D01*
X130757157Y-62226252D01*
X130854481Y-61951891D01*
X130733814Y-61722000D01*
X129540000Y-61722000D01*
X129286000Y-61722000D01*
X127000000Y-61722000D01*
X126746000Y-61722000D01*
X125546750Y-61722000D01*
X125388000Y-61880750D01*
X125384928Y-62445000D01*
X120504417Y-62445000D01*
X120597898Y-62305097D01*
X120690693Y-62081069D01*
X120738000Y-61843243D01*
X120738000Y-61600757D01*
X120690693Y-61362931D01*
X120597898Y-61138903D01*
X120463180Y-60937283D01*
X120291717Y-60765820D01*
X120260558Y-60745000D01*
X125384928Y-60745000D01*
X125388000Y-61309250D01*
X125546750Y-61468000D01*
X126746000Y-61468000D01*
X126746000Y-60268750D01*
X127000000Y-60268750D01*
X127000000Y-61468000D01*
X129286000Y-61468000D01*
X129286000Y-60274845D01*
X129540000Y-60274845D01*
X129540000Y-61468000D01*
X130733814Y-61468000D01*
X130854481Y-61238109D01*
X130757157Y-60963748D01*
X130702506Y-60872000D01*
X134149157Y-60872000D01*
X134149157Y-62572000D01*
X134156513Y-62646689D01*
X134178299Y-62718508D01*
X134213678Y-62784696D01*
X134261289Y-62842711D01*
X134319304Y-62890322D01*
X134385492Y-62925701D01*
X134457311Y-62947487D01*
X134532000Y-62954843D01*
X136232000Y-62954843D01*
X136306689Y-62947487D01*
X136378508Y-62925701D01*
X136444696Y-62890322D01*
X136502711Y-62842711D01*
X136550322Y-62784696D01*
X136585701Y-62718508D01*
X136607487Y-62646689D01*
X136614843Y-62572000D01*
X136614843Y-62228000D01*
X136799168Y-62228000D01*
X136831102Y-62305097D01*
X136965820Y-62506717D01*
X137137283Y-62678180D01*
X137338903Y-62812898D01*
X137562931Y-62905693D01*
X137800757Y-62953000D01*
X138043243Y-62953000D01*
X138281069Y-62905693D01*
X138505097Y-62812898D01*
X138706717Y-62678180D01*
X138878180Y-62506717D01*
X139012898Y-62305097D01*
X139044832Y-62228000D01*
X143524825Y-62228000D01*
X143499000Y-62357833D01*
X143499000Y-62610167D01*
X143548228Y-62857654D01*
X143644793Y-63090781D01*
X143784982Y-63300590D01*
X143963410Y-63479018D01*
X144173219Y-63619207D01*
X144406346Y-63715772D01*
X144533966Y-63741157D01*
X143880000Y-63741157D01*
X143805311Y-63748513D01*
X143733492Y-63770299D01*
X143667304Y-63805678D01*
X143609289Y-63853289D01*
X143561678Y-63911304D01*
X143526299Y-63977492D01*
X143504513Y-64049311D01*
X143497157Y-64124000D01*
X143497157Y-64899000D01*
X140641712Y-64899000D01*
X140619588Y-64845587D01*
X140490342Y-64652157D01*
X140325843Y-64487658D01*
X140132413Y-64358412D01*
X139917485Y-64269386D01*
X139689318Y-64224000D01*
X139456682Y-64224000D01*
X139228515Y-64269386D01*
X139013587Y-64358412D01*
X138820157Y-64487658D01*
X138655658Y-64652157D01*
X138526412Y-64845587D01*
X138437386Y-65060515D01*
X138392000Y-65288682D01*
X138392000Y-65521318D01*
X138437386Y-65749485D01*
X138526412Y-65964413D01*
X138655658Y-66157843D01*
X138820157Y-66322342D01*
X139013587Y-66451588D01*
X139228515Y-66540614D01*
X139456682Y-66586000D01*
X139689318Y-66586000D01*
X139917485Y-66540614D01*
X140132413Y-66451588D01*
X140325843Y-66322342D01*
X140490342Y-66157843D01*
X140619588Y-65964413D01*
X140641712Y-65911000D01*
X143497157Y-65911000D01*
X143497157Y-65924000D01*
X143504513Y-65998689D01*
X143526299Y-66070508D01*
X143561678Y-66136696D01*
X143609289Y-66194711D01*
X143667304Y-66242322D01*
X143733492Y-66277701D01*
X143805311Y-66299487D01*
X143880000Y-66306843D01*
X145680000Y-66306843D01*
X145754689Y-66299487D01*
X145826508Y-66277701D01*
X145892696Y-66242322D01*
X145950711Y-66194711D01*
X145998322Y-66136696D01*
X146033701Y-66070508D01*
X146055487Y-65998689D01*
X146062843Y-65924000D01*
X146062843Y-64124000D01*
X146055487Y-64049311D01*
X146033701Y-63977492D01*
X145998322Y-63911304D01*
X145950711Y-63853289D01*
X145892696Y-63805678D01*
X145826508Y-63770299D01*
X145754689Y-63748513D01*
X145680000Y-63741157D01*
X145026034Y-63741157D01*
X145153654Y-63715772D01*
X145386781Y-63619207D01*
X145596590Y-63479018D01*
X145775018Y-63300590D01*
X145915207Y-63090781D01*
X146011772Y-62857654D01*
X146061000Y-62610167D01*
X146061000Y-62357833D01*
X146011772Y-62110346D01*
X145915207Y-61877219D01*
X145775018Y-61667410D01*
X145596590Y-61488982D01*
X145386781Y-61348793D01*
X145153654Y-61252228D01*
X144906167Y-61203000D01*
X144653833Y-61203000D01*
X144406346Y-61252228D01*
X144297147Y-61297460D01*
X144212575Y-61252255D01*
X144117193Y-61223322D01*
X144042854Y-61216000D01*
X144042846Y-61216000D01*
X144018000Y-61213553D01*
X143993154Y-61216000D01*
X139044832Y-61216000D01*
X139012898Y-61138903D01*
X138878180Y-60937283D01*
X138706717Y-60765820D01*
X138505097Y-60631102D01*
X138281069Y-60538307D01*
X138043243Y-60491000D01*
X137800757Y-60491000D01*
X137562931Y-60538307D01*
X137338903Y-60631102D01*
X137137283Y-60765820D01*
X136965820Y-60937283D01*
X136831102Y-61138903D01*
X136799168Y-61216000D01*
X136614843Y-61216000D01*
X136614843Y-60872000D01*
X136607487Y-60797311D01*
X136585701Y-60725492D01*
X136550322Y-60659304D01*
X136502711Y-60601289D01*
X136444696Y-60553678D01*
X136378508Y-60518299D01*
X136306689Y-60496513D01*
X136232000Y-60489157D01*
X134532000Y-60489157D01*
X134457311Y-60496513D01*
X134385492Y-60518299D01*
X134319304Y-60553678D01*
X134261289Y-60601289D01*
X134213678Y-60659304D01*
X134178299Y-60725492D01*
X134156513Y-60797311D01*
X134149157Y-60872000D01*
X130702506Y-60872000D01*
X130608178Y-60713645D01*
X130413269Y-60497412D01*
X130179920Y-60323359D01*
X129917099Y-60198175D01*
X129769890Y-60153524D01*
X129540000Y-60274845D01*
X129286000Y-60274845D01*
X129056110Y-60153524D01*
X128908901Y-60198175D01*
X128646080Y-60323359D01*
X128412731Y-60497412D01*
X128336966Y-60581466D01*
X128312502Y-60500820D01*
X128253537Y-60390506D01*
X128174185Y-60293815D01*
X128077494Y-60214463D01*
X127967180Y-60155498D01*
X127847482Y-60119188D01*
X127723000Y-60106928D01*
X127158750Y-60110000D01*
X127000000Y-60268750D01*
X126746000Y-60268750D01*
X126587250Y-60110000D01*
X126023000Y-60106928D01*
X125898518Y-60119188D01*
X125778820Y-60155498D01*
X125668506Y-60214463D01*
X125571815Y-60293815D01*
X125492463Y-60390506D01*
X125433498Y-60500820D01*
X125397188Y-60620518D01*
X125384928Y-60745000D01*
X120260558Y-60745000D01*
X120090097Y-60631102D01*
X119866069Y-60538307D01*
X119628243Y-60491000D01*
X119385757Y-60491000D01*
X119147931Y-60538307D01*
X118923903Y-60631102D01*
X118722283Y-60765820D01*
X118550820Y-60937283D01*
X118416102Y-61138903D01*
X118384168Y-61216000D01*
X118199843Y-61216000D01*
X118199843Y-60872000D01*
X118192487Y-60797311D01*
X118170701Y-60725492D01*
X118135322Y-60659304D01*
X118087711Y-60601289D01*
X118029696Y-60553678D01*
X117963508Y-60518299D01*
X117891689Y-60496513D01*
X117817000Y-60489157D01*
X116117000Y-60489157D01*
X116042311Y-60496513D01*
X115970492Y-60518299D01*
X115904304Y-60553678D01*
X115846289Y-60601289D01*
X115798678Y-60659304D01*
X115763299Y-60725492D01*
X115741513Y-60797311D01*
X115734157Y-60872000D01*
X115734157Y-62293046D01*
X115706322Y-62384808D01*
X115696553Y-62484000D01*
X115699001Y-62508856D01*
X115699000Y-64336287D01*
X115645587Y-64358412D01*
X115452157Y-64487658D01*
X115287658Y-64652157D01*
X115158412Y-64845587D01*
X115069386Y-65060515D01*
X115024000Y-65288682D01*
X114906000Y-65288682D01*
X114906000Y-61724854D01*
X114908448Y-61700000D01*
X114898678Y-61600807D01*
X114869745Y-61505425D01*
X114853560Y-61475146D01*
X114822759Y-61417521D01*
X114759527Y-61340473D01*
X114740220Y-61324628D01*
X114275376Y-60859785D01*
X114259527Y-60840473D01*
X114182479Y-60777241D01*
X114094575Y-60730255D01*
X113999193Y-60701322D01*
X113924854Y-60694000D01*
X113924846Y-60694000D01*
X113900000Y-60691553D01*
X113875154Y-60694000D01*
X109224845Y-60694000D01*
X109199999Y-60691553D01*
X109175153Y-60694000D01*
X109175146Y-60694000D01*
X109100807Y-60701322D01*
X109005425Y-60730255D01*
X108917521Y-60777241D01*
X108840473Y-60840473D01*
X108824624Y-60859785D01*
X108559785Y-61124624D01*
X108540473Y-61140473D01*
X108477241Y-61217521D01*
X108430255Y-61305426D01*
X108401322Y-61400808D01*
X108394000Y-61475147D01*
X108394000Y-61475154D01*
X108391553Y-61500000D01*
X108394000Y-61524847D01*
X108394000Y-62096386D01*
X108359219Y-62110793D01*
X108149410Y-62250982D01*
X107970982Y-62429410D01*
X107830793Y-62639219D01*
X107789048Y-62740000D01*
X106855592Y-62740000D01*
X106806000Y-62690409D01*
X106806000Y-61924854D01*
X106808448Y-61900000D01*
X106798678Y-61800807D01*
X106769745Y-61705425D01*
X106753560Y-61675146D01*
X106722759Y-61617521D01*
X106659527Y-61540473D01*
X106640215Y-61524624D01*
X106475376Y-61359785D01*
X106459527Y-61340473D01*
X106382479Y-61277241D01*
X106294575Y-61230255D01*
X106199193Y-61201322D01*
X106124854Y-61194000D01*
X106124846Y-61194000D01*
X106100000Y-61191553D01*
X106075154Y-61194000D01*
X98524845Y-61194000D01*
X98499999Y-61191553D01*
X98475153Y-61194000D01*
X98475146Y-61194000D01*
X98414229Y-61200000D01*
X98400806Y-61201322D01*
X98378607Y-61208056D01*
X98305425Y-61230255D01*
X98217521Y-61277241D01*
X98140473Y-61340473D01*
X98124624Y-61359785D01*
X97830781Y-61653628D01*
X97811474Y-61669473D01*
X97748242Y-61746521D01*
X97723127Y-61793508D01*
X97701255Y-61834426D01*
X97672322Y-61929808D01*
X97662553Y-62029000D01*
X97665001Y-62053856D01*
X97665001Y-62521157D01*
X97321000Y-62521157D01*
X97246311Y-62528513D01*
X97174492Y-62550299D01*
X97108304Y-62585678D01*
X97050289Y-62633289D01*
X97002678Y-62691304D01*
X96967299Y-62757492D01*
X96945513Y-62829311D01*
X96938157Y-62904000D01*
X96938157Y-64604000D01*
X96945513Y-64678689D01*
X96967299Y-64750508D01*
X97002678Y-64816696D01*
X97050289Y-64874711D01*
X97108304Y-64922322D01*
X97174492Y-64957701D01*
X97246311Y-64979487D01*
X97321000Y-64986843D01*
X97665001Y-64986843D01*
X97665000Y-67384288D01*
X97611587Y-67406412D01*
X97418157Y-67535658D01*
X97253658Y-67700157D01*
X97124412Y-67893587D01*
X97035386Y-68108515D01*
X96990000Y-68336682D01*
X96990000Y-68569318D01*
X97035386Y-68797485D01*
X97057510Y-68850898D01*
X95859781Y-70048628D01*
X95840474Y-70064473D01*
X95777242Y-70141521D01*
X95752127Y-70188508D01*
X95730255Y-70229426D01*
X95701322Y-70324808D01*
X95691553Y-70424000D01*
X92127000Y-70424000D01*
X92127000Y-63127000D01*
X96000000Y-63127000D01*
X96024776Y-63124560D01*
X96048601Y-63117333D01*
X96070557Y-63105597D01*
X96089803Y-63089803D01*
X96105597Y-63070557D01*
X96117333Y-63048601D01*
X96124560Y-63024776D01*
X96127000Y-63000000D01*
X96127000Y-58127000D01*
X148873000Y-58127000D01*
X148873000Y-62000000D01*
G37*
X148873000Y-62000000D02*
X148875440Y-62024776D01*
X148882667Y-62048601D01*
X148894403Y-62070557D01*
X148910197Y-62089803D01*
X148929443Y-62105597D01*
X148951399Y-62117333D01*
X148975224Y-62124560D01*
X149000000Y-62127000D01*
X152873000Y-62127000D01*
X152873000Y-89873000D01*
X149000000Y-89873000D01*
X148975224Y-89875440D01*
X148951399Y-89882667D01*
X148929443Y-89894403D01*
X148910197Y-89910197D01*
X148894403Y-89929443D01*
X148882667Y-89951399D01*
X148875440Y-89975224D01*
X148873000Y-90000000D01*
X148873000Y-94873000D01*
X96127000Y-94873000D01*
X96127000Y-90000000D01*
X96124560Y-89975224D01*
X96117333Y-89951399D01*
X96105597Y-89929443D01*
X96089803Y-89910197D01*
X96070557Y-89894403D01*
X96048601Y-89882667D01*
X96024776Y-89875440D01*
X96000000Y-89873000D01*
X92127000Y-89873000D01*
X92127000Y-70424000D01*
X95691553Y-70424000D01*
X95694001Y-70448856D01*
X95694000Y-87031154D01*
X95691553Y-87056000D01*
X95694000Y-87080846D01*
X95694000Y-87080853D01*
X95701322Y-87155192D01*
X95730255Y-87250574D01*
X95777241Y-87338479D01*
X95840473Y-87415527D01*
X95859785Y-87431376D01*
X96878363Y-88449955D01*
X96777757Y-88692839D01*
X96717000Y-88998285D01*
X96717000Y-89309715D01*
X96777757Y-89615161D01*
X96896936Y-89902884D01*
X97069957Y-90161829D01*
X97290171Y-90382043D01*
X97549116Y-90555064D01*
X97836839Y-90674243D01*
X98142285Y-90735000D01*
X98453715Y-90735000D01*
X98759161Y-90674243D01*
X99046884Y-90555064D01*
X99305829Y-90382043D01*
X99526043Y-90161829D01*
X99699064Y-89902884D01*
X99818243Y-89615161D01*
X99879000Y-89309715D01*
X99879000Y-88998285D01*
X119117000Y-88998285D01*
X119117000Y-89309715D01*
X119177757Y-89615161D01*
X119296936Y-89902884D01*
X119469957Y-90161829D01*
X119690171Y-90382043D01*
X119949116Y-90555064D01*
X120236839Y-90674243D01*
X120542285Y-90735000D01*
X120853715Y-90735000D01*
X121159161Y-90674243D01*
X121446884Y-90555064D01*
X121705829Y-90382043D01*
X121926043Y-90161829D01*
X122099064Y-89902884D01*
X122218243Y-89615161D01*
X122279000Y-89309715D01*
X122279000Y-88998285D01*
X122218243Y-88692839D01*
X122099064Y-88405116D01*
X121926043Y-88146171D01*
X121705829Y-87925957D01*
X121595203Y-87852039D01*
X123068096Y-87852039D01*
X123108754Y-87986087D01*
X123228963Y-88240420D01*
X123396481Y-88466414D01*
X123604869Y-88655385D01*
X123846119Y-88800070D01*
X124110960Y-88894909D01*
X124333000Y-88773624D01*
X124333000Y-87630000D01*
X124587000Y-87630000D01*
X124587000Y-88773624D01*
X124809040Y-88894909D01*
X125073881Y-88800070D01*
X125315131Y-88655385D01*
X125523519Y-88466414D01*
X125691037Y-88240420D01*
X125811246Y-87986087D01*
X125851904Y-87852039D01*
X125729915Y-87630000D01*
X124587000Y-87630000D01*
X124333000Y-87630000D01*
X123190085Y-87630000D01*
X123068096Y-87852039D01*
X121595203Y-87852039D01*
X121446884Y-87752936D01*
X121159161Y-87633757D01*
X120853715Y-87573000D01*
X120542285Y-87573000D01*
X120236839Y-87633757D01*
X119949116Y-87752936D01*
X119690171Y-87925957D01*
X119469957Y-88146171D01*
X119296936Y-88405116D01*
X119177757Y-88692839D01*
X119117000Y-88998285D01*
X99879000Y-88998285D01*
X99818243Y-88692839D01*
X99699064Y-88405116D01*
X99526043Y-88146171D01*
X99305829Y-87925957D01*
X99046884Y-87752936D01*
X98804000Y-87652330D01*
X98804000Y-87386682D01*
X133439000Y-87386682D01*
X133439000Y-87619318D01*
X133484386Y-87847485D01*
X133573412Y-88062413D01*
X133702658Y-88255843D01*
X133867157Y-88420342D01*
X134060587Y-88549588D01*
X134275515Y-88638614D01*
X134503682Y-88684000D01*
X134736318Y-88684000D01*
X134964485Y-88638614D01*
X135179413Y-88549588D01*
X135372843Y-88420342D01*
X135537342Y-88255843D01*
X135666588Y-88062413D01*
X135755614Y-87847485D01*
X135801000Y-87619318D01*
X135801000Y-87386682D01*
X135755614Y-87158515D01*
X135687056Y-86993000D01*
X138086157Y-86993000D01*
X138086157Y-87337000D01*
X138093513Y-87411689D01*
X138115299Y-87483508D01*
X138150678Y-87549696D01*
X138198289Y-87607711D01*
X138256304Y-87655322D01*
X138322492Y-87690701D01*
X138394311Y-87712487D01*
X138469000Y-87719843D01*
X140169000Y-87719843D01*
X140243689Y-87712487D01*
X140315508Y-87690701D01*
X140381696Y-87655322D01*
X140439711Y-87607711D01*
X140487322Y-87549696D01*
X140522701Y-87483508D01*
X140544487Y-87411689D01*
X140551843Y-87337000D01*
X140551843Y-86993000D01*
X140736168Y-86993000D01*
X140768102Y-87070097D01*
X140902820Y-87271717D01*
X141074283Y-87443180D01*
X141275903Y-87577898D01*
X141499931Y-87670693D01*
X141737757Y-87718000D01*
X141980243Y-87718000D01*
X142218069Y-87670693D01*
X142442097Y-87577898D01*
X142643717Y-87443180D01*
X142815180Y-87271717D01*
X142949898Y-87070097D01*
X143042693Y-86846069D01*
X143090000Y-86608243D01*
X143090000Y-86365757D01*
X143042693Y-86127931D01*
X142949898Y-85903903D01*
X142815180Y-85702283D01*
X142643717Y-85530820D01*
X142442097Y-85396102D01*
X142218069Y-85303307D01*
X141980243Y-85256000D01*
X141737757Y-85256000D01*
X141499931Y-85303307D01*
X141275903Y-85396102D01*
X141074283Y-85530820D01*
X140902820Y-85702283D01*
X140768102Y-85903903D01*
X140736168Y-85981000D01*
X140551843Y-85981000D01*
X140551843Y-85637000D01*
X140544487Y-85562311D01*
X140522701Y-85490492D01*
X140487322Y-85424304D01*
X140439711Y-85366289D01*
X140381696Y-85318678D01*
X140315508Y-85283299D01*
X140243689Y-85261513D01*
X140169000Y-85254157D01*
X138469000Y-85254157D01*
X138394311Y-85261513D01*
X138322492Y-85283299D01*
X138256304Y-85318678D01*
X138198289Y-85366289D01*
X138150678Y-85424304D01*
X138115299Y-85490492D01*
X138093513Y-85562311D01*
X138086157Y-85637000D01*
X138086157Y-85981000D01*
X135279854Y-85981000D01*
X135255000Y-85978552D01*
X135230146Y-85981000D01*
X135155807Y-85988322D01*
X135060425Y-86017255D01*
X134972521Y-86064241D01*
X134895473Y-86127473D01*
X134879628Y-86146780D01*
X134704408Y-86322000D01*
X134503682Y-86322000D01*
X134275515Y-86367386D01*
X134060587Y-86456412D01*
X133867157Y-86585658D01*
X133702658Y-86750157D01*
X133573412Y-86943587D01*
X133484386Y-87158515D01*
X133439000Y-87386682D01*
X98804000Y-87386682D01*
X98804000Y-87153961D01*
X123068096Y-87153961D01*
X123190085Y-87376000D01*
X124333000Y-87376000D01*
X124333000Y-86232376D01*
X124587000Y-86232376D01*
X124587000Y-87376000D01*
X125729915Y-87376000D01*
X125851904Y-87153961D01*
X125811246Y-87019913D01*
X125691037Y-86765580D01*
X125523519Y-86539586D01*
X125315131Y-86350615D01*
X125073881Y-86205930D01*
X124809040Y-86111091D01*
X124587000Y-86232376D01*
X124333000Y-86232376D01*
X124110960Y-86111091D01*
X123846119Y-86205930D01*
X123604869Y-86350615D01*
X123396481Y-86539586D01*
X123228963Y-86765580D01*
X123108754Y-87019913D01*
X123068096Y-87153961D01*
X98804000Y-87153961D01*
X98804000Y-86411591D01*
X99009592Y-86206000D01*
X120675154Y-86206000D01*
X120700000Y-86208447D01*
X120724846Y-86206000D01*
X120724854Y-86206000D01*
X120799193Y-86198678D01*
X120894575Y-86169745D01*
X120982479Y-86122759D01*
X121059527Y-86059527D01*
X121075376Y-86040215D01*
X121625220Y-85490372D01*
X121644527Y-85474527D01*
X121707759Y-85397479D01*
X121754745Y-85309575D01*
X121783678Y-85214193D01*
X121791000Y-85139854D01*
X121793448Y-85115000D01*
X121791000Y-85090146D01*
X121791000Y-83534039D01*
X123068096Y-83534039D01*
X123108754Y-83668087D01*
X123228963Y-83922420D01*
X123396481Y-84148414D01*
X123604869Y-84337385D01*
X123846119Y-84482070D01*
X124110960Y-84576909D01*
X124333000Y-84455624D01*
X124333000Y-83312000D01*
X124587000Y-83312000D01*
X124587000Y-84455624D01*
X124809040Y-84576909D01*
X125073881Y-84482070D01*
X125315131Y-84337385D01*
X125523519Y-84148414D01*
X125691037Y-83922420D01*
X125811246Y-83668087D01*
X125851904Y-83534039D01*
X125729915Y-83312000D01*
X124587000Y-83312000D01*
X124333000Y-83312000D01*
X123190085Y-83312000D01*
X123068096Y-83534039D01*
X121791000Y-83534039D01*
X121791000Y-83068682D01*
X133439000Y-83068682D01*
X133439000Y-83301318D01*
X133484386Y-83529485D01*
X133573412Y-83744413D01*
X133702658Y-83937843D01*
X133867157Y-84102342D01*
X134060587Y-84231588D01*
X134275515Y-84320614D01*
X134503682Y-84366000D01*
X134736318Y-84366000D01*
X134964485Y-84320614D01*
X135179413Y-84231588D01*
X135372843Y-84102342D01*
X135537342Y-83937843D01*
X135666588Y-83744413D01*
X135688712Y-83691000D01*
X146941001Y-83691000D01*
X146941000Y-85254157D01*
X146597000Y-85254157D01*
X146522311Y-85261513D01*
X146450492Y-85283299D01*
X146384304Y-85318678D01*
X146326289Y-85366289D01*
X146278678Y-85424304D01*
X146243299Y-85490492D01*
X146221513Y-85562311D01*
X146214157Y-85637000D01*
X146214157Y-87337000D01*
X146221513Y-87411689D01*
X146243299Y-87483508D01*
X146278678Y-87549696D01*
X146326289Y-87607711D01*
X146384304Y-87655322D01*
X146450492Y-87690701D01*
X146522311Y-87712487D01*
X146597000Y-87719843D01*
X148297000Y-87719843D01*
X148371689Y-87712487D01*
X148443508Y-87690701D01*
X148509696Y-87655322D01*
X148567711Y-87607711D01*
X148615322Y-87549696D01*
X148650701Y-87483508D01*
X148672487Y-87411689D01*
X148679843Y-87337000D01*
X148679843Y-86993000D01*
X148864168Y-86993000D01*
X148896102Y-87070097D01*
X149030820Y-87271717D01*
X149202283Y-87443180D01*
X149403903Y-87577898D01*
X149627931Y-87670693D01*
X149865757Y-87718000D01*
X150108243Y-87718000D01*
X150346069Y-87670693D01*
X150570097Y-87577898D01*
X150771717Y-87443180D01*
X150943180Y-87271717D01*
X151077898Y-87070097D01*
X151170693Y-86846069D01*
X151218000Y-86608243D01*
X151218000Y-86365757D01*
X151170693Y-86127931D01*
X151077898Y-85903903D01*
X150943180Y-85702283D01*
X150771717Y-85530820D01*
X150570097Y-85396102D01*
X150346069Y-85303307D01*
X150108243Y-85256000D01*
X149865757Y-85256000D01*
X149627931Y-85303307D01*
X149403903Y-85396102D01*
X149202283Y-85530820D01*
X149030820Y-85702283D01*
X148896102Y-85903903D01*
X148864168Y-85981000D01*
X148679843Y-85981000D01*
X148679843Y-85637000D01*
X148672487Y-85562311D01*
X148650701Y-85490492D01*
X148615322Y-85424304D01*
X148567711Y-85366289D01*
X148509696Y-85318678D01*
X148443508Y-85283299D01*
X148371689Y-85261513D01*
X148297000Y-85254157D01*
X147953000Y-85254157D01*
X147953000Y-83336845D01*
X147955447Y-83311999D01*
X147953000Y-83287153D01*
X147953000Y-83287146D01*
X147945678Y-83212807D01*
X147944783Y-83209854D01*
X147928605Y-83156522D01*
X147916745Y-83117425D01*
X147869759Y-83029521D01*
X147806527Y-82952473D01*
X147787215Y-82936624D01*
X147695376Y-82844785D01*
X147679527Y-82825473D01*
X147602479Y-82762241D01*
X147514575Y-82715255D01*
X147419193Y-82686322D01*
X147344854Y-82679000D01*
X147344846Y-82679000D01*
X147320000Y-82676553D01*
X147295154Y-82679000D01*
X135688712Y-82679000D01*
X135666588Y-82625587D01*
X135537342Y-82432157D01*
X135372843Y-82267658D01*
X135179413Y-82138412D01*
X135126000Y-82116288D01*
X135126000Y-80854591D01*
X135591592Y-80389000D01*
X137869288Y-80389000D01*
X137891412Y-80442413D01*
X138020658Y-80635843D01*
X138185157Y-80800342D01*
X138378587Y-80929588D01*
X138593515Y-81018614D01*
X138821682Y-81064000D01*
X139054318Y-81064000D01*
X139282485Y-81018614D01*
X139497413Y-80929588D01*
X139690843Y-80800342D01*
X139855342Y-80635843D01*
X139984588Y-80442413D01*
X140073614Y-80227485D01*
X140119000Y-79999318D01*
X140119000Y-79766682D01*
X140073614Y-79538515D01*
X139984588Y-79323587D01*
X139855342Y-79130157D01*
X139690843Y-78965658D01*
X139497413Y-78836412D01*
X139282485Y-78747386D01*
X139054318Y-78702000D01*
X138821682Y-78702000D01*
X138593515Y-78747386D01*
X138378587Y-78836412D01*
X138185157Y-78965658D01*
X138020658Y-79130157D01*
X137891412Y-79323587D01*
X137869288Y-79377000D01*
X135406854Y-79377000D01*
X135382000Y-79374552D01*
X135357146Y-79377000D01*
X135282807Y-79384322D01*
X135187425Y-79413255D01*
X135099521Y-79460241D01*
X135022473Y-79523473D01*
X135006629Y-79542779D01*
X134279780Y-80269629D01*
X134260474Y-80285473D01*
X134197242Y-80362521D01*
X134185097Y-80385243D01*
X134150255Y-80450426D01*
X134121322Y-80545808D01*
X134111553Y-80645000D01*
X134114001Y-80669856D01*
X134114000Y-82116287D01*
X134060587Y-82138412D01*
X133867157Y-82267658D01*
X133702658Y-82432157D01*
X133573412Y-82625587D01*
X133484386Y-82840515D01*
X133439000Y-83068682D01*
X121791000Y-83068682D01*
X121791000Y-82835961D01*
X123068096Y-82835961D01*
X123190085Y-83058000D01*
X124333000Y-83058000D01*
X124333000Y-81914376D01*
X124587000Y-81914376D01*
X124587000Y-83058000D01*
X125729915Y-83058000D01*
X125851904Y-82835961D01*
X125811246Y-82701913D01*
X125691037Y-82447580D01*
X125523519Y-82221586D01*
X125315131Y-82032615D01*
X125073881Y-81887930D01*
X124809040Y-81793091D01*
X124587000Y-81914376D01*
X124333000Y-81914376D01*
X124110960Y-81793091D01*
X123846119Y-81887930D01*
X123604869Y-82032615D01*
X123396481Y-82221586D01*
X123228963Y-82447580D01*
X123108754Y-82701913D01*
X123068096Y-82835961D01*
X121791000Y-82835961D01*
X121791000Y-81840712D01*
X121844413Y-81818588D01*
X122037843Y-81689342D01*
X122202342Y-81524843D01*
X122331588Y-81331413D01*
X122420614Y-81116485D01*
X122466000Y-80888318D01*
X122466000Y-80655682D01*
X122420614Y-80427515D01*
X122331588Y-80212587D01*
X122202342Y-80019157D01*
X122037843Y-79854658D01*
X121844413Y-79725412D01*
X121791000Y-79703288D01*
X121791000Y-78708039D01*
X123068096Y-78708039D01*
X123108754Y-78842087D01*
X123228963Y-79096420D01*
X123396481Y-79322414D01*
X123604869Y-79511385D01*
X123846119Y-79656070D01*
X124110960Y-79750909D01*
X124333000Y-79629624D01*
X124333000Y-78486000D01*
X124587000Y-78486000D01*
X124587000Y-79629624D01*
X124809040Y-79750909D01*
X125073881Y-79656070D01*
X125315131Y-79511385D01*
X125523519Y-79322414D01*
X125691037Y-79096420D01*
X125811246Y-78842087D01*
X125851904Y-78708039D01*
X125729915Y-78486000D01*
X124587000Y-78486000D01*
X124333000Y-78486000D01*
X123190085Y-78486000D01*
X123068096Y-78708039D01*
X121791000Y-78708039D01*
X121791000Y-78009961D01*
X123068096Y-78009961D01*
X123190085Y-78232000D01*
X124333000Y-78232000D01*
X124333000Y-77088376D01*
X124587000Y-77088376D01*
X124587000Y-78232000D01*
X125729915Y-78232000D01*
X125851904Y-78009961D01*
X125811246Y-77875913D01*
X125691037Y-77621580D01*
X125523519Y-77395586D01*
X125315131Y-77206615D01*
X125073881Y-77061930D01*
X124809040Y-76967091D01*
X124587000Y-77088376D01*
X124333000Y-77088376D01*
X124110960Y-76967091D01*
X123846119Y-77061930D01*
X123604869Y-77206615D01*
X123396481Y-77395586D01*
X123228963Y-77621580D01*
X123108754Y-77875913D01*
X123068096Y-78009961D01*
X121791000Y-78009961D01*
X121791000Y-74039000D01*
X123926179Y-74039000D01*
X123964863Y-74086137D01*
X124031970Y-74141210D01*
X124108531Y-74182134D01*
X124191606Y-74207334D01*
X124278000Y-74215843D01*
X125658000Y-74215843D01*
X125744394Y-74207334D01*
X125827469Y-74182134D01*
X125904030Y-74141210D01*
X125971137Y-74086137D01*
X126009821Y-74039000D01*
X126086154Y-74039000D01*
X126111000Y-74041447D01*
X126135846Y-74039000D01*
X126135854Y-74039000D01*
X126210193Y-74031678D01*
X126305575Y-74002745D01*
X126393479Y-73955759D01*
X126470527Y-73892527D01*
X126486376Y-73873215D01*
X126832220Y-73527372D01*
X126851527Y-73511527D01*
X126914759Y-73434479D01*
X126935157Y-73396317D01*
X126935157Y-73773000D01*
X126943666Y-73859394D01*
X126968866Y-73942469D01*
X127009790Y-74019030D01*
X127064863Y-74086137D01*
X127131970Y-74141210D01*
X127208531Y-74182134D01*
X127291606Y-74207334D01*
X127378000Y-74215843D01*
X127562000Y-74215843D01*
X127562001Y-77624144D01*
X127559553Y-77649000D01*
X127569322Y-77748192D01*
X127598255Y-77843574D01*
X127615541Y-77875913D01*
X127645242Y-77931479D01*
X127708474Y-78008527D01*
X127727780Y-78024371D01*
X128402628Y-78699220D01*
X128418473Y-78718527D01*
X128495521Y-78781759D01*
X128583425Y-78828745D01*
X128678807Y-78857678D01*
X128778000Y-78867448D01*
X128802854Y-78865000D01*
X133551288Y-78865000D01*
X133573412Y-78918413D01*
X133702658Y-79111843D01*
X133867157Y-79276342D01*
X134060587Y-79405588D01*
X134275515Y-79494614D01*
X134503682Y-79540000D01*
X134736318Y-79540000D01*
X134964485Y-79494614D01*
X135179413Y-79405588D01*
X135372843Y-79276342D01*
X135537342Y-79111843D01*
X135666588Y-78918413D01*
X135755614Y-78703485D01*
X135801000Y-78475318D01*
X135801000Y-78242682D01*
X135755614Y-78014515D01*
X135666588Y-77799587D01*
X135537342Y-77606157D01*
X135372843Y-77441658D01*
X135179413Y-77312412D01*
X134964485Y-77223386D01*
X134736318Y-77178000D01*
X134503682Y-77178000D01*
X134275515Y-77223386D01*
X134060587Y-77312412D01*
X133867157Y-77441658D01*
X133702658Y-77606157D01*
X133573412Y-77799587D01*
X133551288Y-77853000D01*
X128987592Y-77853000D01*
X128574000Y-77439409D01*
X128574000Y-74215843D01*
X128758000Y-74215843D01*
X128844394Y-74207334D01*
X128927469Y-74182134D01*
X129004030Y-74141210D01*
X129071137Y-74086137D01*
X129126210Y-74019030D01*
X129167134Y-73942469D01*
X129192334Y-73859394D01*
X129200843Y-73773000D01*
X129200843Y-73293000D01*
X129192334Y-73206606D01*
X129167134Y-73123531D01*
X129148676Y-73089000D01*
X129396409Y-73089000D01*
X129796000Y-73488592D01*
X129796001Y-74778144D01*
X129793553Y-74803000D01*
X129803322Y-74902192D01*
X129832255Y-74997574D01*
X129846836Y-75024853D01*
X129879242Y-75085479D01*
X129942474Y-75162527D01*
X129961780Y-75178371D01*
X130561628Y-75778220D01*
X130577473Y-75797527D01*
X130654521Y-75860759D01*
X130742425Y-75907745D01*
X130837807Y-75936678D01*
X130937000Y-75946448D01*
X130961854Y-75944000D01*
X141072154Y-75944000D01*
X141097000Y-75946447D01*
X141121846Y-75944000D01*
X141121854Y-75944000D01*
X141196193Y-75936678D01*
X141291575Y-75907745D01*
X141379479Y-75860759D01*
X141456527Y-75797527D01*
X141472376Y-75778215D01*
X142072220Y-75178372D01*
X142091527Y-75162527D01*
X142154759Y-75085479D01*
X142201745Y-74997575D01*
X142230678Y-74902193D01*
X142238000Y-74827854D01*
X142238000Y-74827853D01*
X142240448Y-74803000D01*
X142238000Y-74778146D01*
X142238000Y-73231741D01*
X142357351Y-73151993D01*
X142493993Y-73015351D01*
X142573741Y-72896000D01*
X142665409Y-72896000D01*
X142877001Y-73107593D01*
X142877000Y-79165408D01*
X142665409Y-79377000D01*
X142546712Y-79377000D01*
X142524588Y-79323587D01*
X142395342Y-79130157D01*
X142230843Y-78965658D01*
X142037413Y-78836412D01*
X141822485Y-78747386D01*
X141594318Y-78702000D01*
X141361682Y-78702000D01*
X141133515Y-78747386D01*
X140918587Y-78836412D01*
X140725157Y-78965658D01*
X140560658Y-79130157D01*
X140431412Y-79323587D01*
X140342386Y-79538515D01*
X140297000Y-79766682D01*
X140297000Y-79999318D01*
X140342386Y-80227485D01*
X140431412Y-80442413D01*
X140560658Y-80635843D01*
X140725157Y-80800342D01*
X140918587Y-80929588D01*
X141133515Y-81018614D01*
X141361682Y-81064000D01*
X141594318Y-81064000D01*
X141822485Y-81018614D01*
X142037413Y-80929588D01*
X142230843Y-80800342D01*
X142395342Y-80635843D01*
X142524588Y-80442413D01*
X142546712Y-80389000D01*
X142850154Y-80389000D01*
X142875000Y-80391447D01*
X142899846Y-80389000D01*
X142899854Y-80389000D01*
X142974193Y-80381678D01*
X143069575Y-80352745D01*
X143157479Y-80305759D01*
X143234527Y-80242527D01*
X143250376Y-80223215D01*
X143723220Y-79750372D01*
X143742527Y-79734527D01*
X143805759Y-79657479D01*
X143852745Y-79569575D01*
X143881678Y-79474193D01*
X143889000Y-79399854D01*
X143889000Y-79399847D01*
X143891447Y-79375001D01*
X143889000Y-79350155D01*
X143889000Y-73382702D01*
X144474903Y-73382702D01*
X144546486Y-73626671D01*
X144801996Y-73747571D01*
X145076184Y-73816300D01*
X145358512Y-73830217D01*
X145638130Y-73788787D01*
X145904292Y-73693603D01*
X146029514Y-73626671D01*
X146101097Y-73382702D01*
X145288000Y-72569605D01*
X144474903Y-73382702D01*
X143889000Y-73382702D01*
X143889000Y-72922845D01*
X143891447Y-72897999D01*
X143889000Y-72873153D01*
X143889000Y-72873146D01*
X143882324Y-72805370D01*
X143881678Y-72798806D01*
X143860576Y-72729242D01*
X143852745Y-72703425D01*
X143805759Y-72615521D01*
X143742527Y-72538473D01*
X143723220Y-72522628D01*
X143661104Y-72460512D01*
X143847783Y-72460512D01*
X143889213Y-72740130D01*
X143984397Y-73006292D01*
X144051329Y-73131514D01*
X144295298Y-73203097D01*
X145108395Y-72390000D01*
X144295298Y-71576903D01*
X144051329Y-71648486D01*
X143930429Y-71903996D01*
X143861700Y-72178184D01*
X143847783Y-72460512D01*
X143661104Y-72460512D01*
X143250376Y-72049785D01*
X143234527Y-72030473D01*
X143157479Y-71967241D01*
X143069575Y-71920255D01*
X142974193Y-71891322D01*
X142899854Y-71884000D01*
X142899846Y-71884000D01*
X142875000Y-71881553D01*
X142850154Y-71884000D01*
X142573741Y-71884000D01*
X142493993Y-71764649D01*
X142357351Y-71628007D01*
X142238000Y-71548259D01*
X142238000Y-71397298D01*
X144474903Y-71397298D01*
X145288000Y-72210395D01*
X146101097Y-71397298D01*
X146029514Y-71153329D01*
X145774004Y-71032429D01*
X145499816Y-70963700D01*
X145217488Y-70949783D01*
X144937870Y-70991213D01*
X144671708Y-71086397D01*
X144546486Y-71153329D01*
X144474903Y-71397298D01*
X142238000Y-71397298D01*
X142238000Y-70763845D01*
X142240447Y-70738999D01*
X142238000Y-70714153D01*
X142238000Y-70714146D01*
X142230678Y-70639807D01*
X142201745Y-70544425D01*
X142154759Y-70456521D01*
X142091527Y-70379473D01*
X142072220Y-70363628D01*
X141726376Y-70017785D01*
X141710527Y-69998473D01*
X141633479Y-69935241D01*
X141545575Y-69888255D01*
X141450193Y-69859322D01*
X141375854Y-69852000D01*
X141375846Y-69852000D01*
X141351000Y-69849553D01*
X141326154Y-69852000D01*
X136295845Y-69852000D01*
X136270999Y-69849553D01*
X136246153Y-69852000D01*
X136246146Y-69852000D01*
X136181694Y-69858348D01*
X136171806Y-69859322D01*
X136154150Y-69864678D01*
X136076425Y-69888255D01*
X135988521Y-69935241D01*
X135911473Y-69998473D01*
X135895628Y-70017780D01*
X135422780Y-70490629D01*
X135403474Y-70506473D01*
X135340242Y-70583521D01*
X135331757Y-70599395D01*
X135293255Y-70671426D01*
X135264322Y-70766808D01*
X135254553Y-70866000D01*
X135257001Y-70890856D01*
X135257001Y-71675259D01*
X135137649Y-71755007D01*
X135001007Y-71891649D01*
X134902698Y-72038778D01*
X134877202Y-71970582D01*
X134836348Y-71894148D01*
X134612764Y-71846841D01*
X133942605Y-72517000D01*
X134612764Y-73187159D01*
X134836348Y-73139852D01*
X134902440Y-72994835D01*
X135001007Y-73142351D01*
X135137649Y-73278993D01*
X135298322Y-73386351D01*
X135476853Y-73460301D01*
X135666380Y-73498000D01*
X135859620Y-73498000D01*
X136049147Y-73460301D01*
X136227678Y-73386351D01*
X136388351Y-73278993D01*
X136427580Y-73239764D01*
X139061841Y-73239764D01*
X139109148Y-73463348D01*
X139330516Y-73564237D01*
X139567313Y-73620000D01*
X139810438Y-73628495D01*
X140050549Y-73589395D01*
X140278418Y-73504202D01*
X140354852Y-73463348D01*
X140402159Y-73239764D01*
X139732000Y-72569605D01*
X139061841Y-73239764D01*
X136427580Y-73239764D01*
X136524993Y-73142351D01*
X136632351Y-72981678D01*
X136706301Y-72803147D01*
X136744000Y-72613620D01*
X136744000Y-72468438D01*
X138493505Y-72468438D01*
X138532605Y-72708549D01*
X138617798Y-72936418D01*
X138658652Y-73012852D01*
X138882236Y-73060159D01*
X139552395Y-72390000D01*
X138882236Y-71719841D01*
X138658652Y-71767148D01*
X138557763Y-71988516D01*
X138502000Y-72225313D01*
X138493505Y-72468438D01*
X136744000Y-72468438D01*
X136744000Y-72420380D01*
X136706301Y-72230853D01*
X136632351Y-72052322D01*
X136524993Y-71891649D01*
X136388351Y-71755007D01*
X136269000Y-71675259D01*
X136269000Y-71540236D01*
X139061841Y-71540236D01*
X139732000Y-72210395D01*
X140402159Y-71540236D01*
X140354852Y-71316652D01*
X140133484Y-71215763D01*
X139896687Y-71160000D01*
X139653562Y-71151505D01*
X139413451Y-71190605D01*
X139185582Y-71275798D01*
X139109148Y-71316652D01*
X139061841Y-71540236D01*
X136269000Y-71540236D01*
X136269000Y-71075591D01*
X136480592Y-70864000D01*
X141141409Y-70864000D01*
X141226000Y-70948592D01*
X141226000Y-71548259D01*
X141106649Y-71628007D01*
X140970007Y-71764649D01*
X140871698Y-71911778D01*
X140846202Y-71843582D01*
X140805348Y-71767148D01*
X140581764Y-71719841D01*
X139911605Y-72390000D01*
X140581764Y-73060159D01*
X140805348Y-73012852D01*
X140871440Y-72867835D01*
X140970007Y-73015351D01*
X141106649Y-73151993D01*
X141226001Y-73231741D01*
X141226000Y-74593408D01*
X140887409Y-74932000D01*
X131146592Y-74932000D01*
X130808000Y-74593409D01*
X130808000Y-73366764D01*
X133092841Y-73366764D01*
X133140148Y-73590348D01*
X133361516Y-73691237D01*
X133598313Y-73747000D01*
X133841438Y-73755495D01*
X134081549Y-73716395D01*
X134309418Y-73631202D01*
X134385852Y-73590348D01*
X134433159Y-73366764D01*
X133763000Y-72696605D01*
X133092841Y-73366764D01*
X130808000Y-73366764D01*
X130808000Y-73303854D01*
X130810448Y-73279000D01*
X130800678Y-73179807D01*
X130771745Y-73084425D01*
X130754845Y-73052808D01*
X130724759Y-72996521D01*
X130661527Y-72919473D01*
X130642220Y-72903628D01*
X130334030Y-72595438D01*
X132524505Y-72595438D01*
X132563605Y-72835549D01*
X132648798Y-73063418D01*
X132689652Y-73139852D01*
X132913236Y-73187159D01*
X133583395Y-72517000D01*
X132913236Y-71846841D01*
X132689652Y-71894148D01*
X132588763Y-72115516D01*
X132533000Y-72352313D01*
X132524505Y-72595438D01*
X130334030Y-72595438D01*
X129981376Y-72242785D01*
X129965527Y-72223473D01*
X129888479Y-72160241D01*
X129800575Y-72113255D01*
X129705193Y-72084322D01*
X129647646Y-72078654D01*
X129690479Y-72055759D01*
X129767527Y-71992527D01*
X129783376Y-71973215D01*
X130089355Y-71667236D01*
X133092841Y-71667236D01*
X133763000Y-72337395D01*
X134433159Y-71667236D01*
X134385852Y-71443652D01*
X134164484Y-71342763D01*
X133927687Y-71287000D01*
X133684562Y-71278505D01*
X133444451Y-71317605D01*
X133216582Y-71402798D01*
X133140148Y-71443652D01*
X133092841Y-71667236D01*
X130089355Y-71667236D01*
X130388220Y-71368372D01*
X130407527Y-71352527D01*
X130470759Y-71275479D01*
X130517745Y-71187575D01*
X130546678Y-71092193D01*
X130554000Y-71017854D01*
X130554000Y-71017853D01*
X130556448Y-70993000D01*
X130554000Y-70968146D01*
X130554000Y-69678591D01*
X131273592Y-68959000D01*
X146856409Y-68959000D01*
X147282000Y-69384592D01*
X147282001Y-71207157D01*
X146988000Y-71207157D01*
X146913311Y-71214513D01*
X146841492Y-71236299D01*
X146775304Y-71271678D01*
X146717289Y-71319289D01*
X146669678Y-71377304D01*
X146634299Y-71443492D01*
X146612513Y-71515311D01*
X146605157Y-71590000D01*
X146605157Y-71811609D01*
X146591603Y-71773708D01*
X146524671Y-71648486D01*
X146280702Y-71576903D01*
X145467605Y-72390000D01*
X146280702Y-73203097D01*
X146524671Y-73131514D01*
X146605157Y-72961415D01*
X146605157Y-73190000D01*
X146612513Y-73264689D01*
X146634299Y-73336508D01*
X146669678Y-73402696D01*
X146717289Y-73460711D01*
X146775304Y-73508322D01*
X146841492Y-73543701D01*
X146913311Y-73565487D01*
X146988000Y-73572843D01*
X147322001Y-73572843D01*
X147322000Y-79031157D01*
X146978000Y-79031157D01*
X146903311Y-79038513D01*
X146831492Y-79060299D01*
X146765304Y-79095678D01*
X146707289Y-79143289D01*
X146659678Y-79201304D01*
X146624299Y-79267492D01*
X146602513Y-79339311D01*
X146595157Y-79414000D01*
X146595157Y-81114000D01*
X146602513Y-81188689D01*
X146624299Y-81260508D01*
X146659678Y-81326696D01*
X146707289Y-81384711D01*
X146765304Y-81432322D01*
X146831492Y-81467701D01*
X146903311Y-81489487D01*
X146978000Y-81496843D01*
X148678000Y-81496843D01*
X148752689Y-81489487D01*
X148824508Y-81467701D01*
X148890696Y-81432322D01*
X148948711Y-81384711D01*
X148996322Y-81326696D01*
X149031701Y-81260508D01*
X149053487Y-81188689D01*
X149060843Y-81114000D01*
X149060843Y-80770000D01*
X149245168Y-80770000D01*
X149277102Y-80847097D01*
X149411820Y-81048717D01*
X149583283Y-81220180D01*
X149784903Y-81354898D01*
X150008931Y-81447693D01*
X150246757Y-81495000D01*
X150489243Y-81495000D01*
X150727069Y-81447693D01*
X150951097Y-81354898D01*
X151152717Y-81220180D01*
X151324180Y-81048717D01*
X151458898Y-80847097D01*
X151551693Y-80623069D01*
X151599000Y-80385243D01*
X151599000Y-80142757D01*
X151551693Y-79904931D01*
X151458898Y-79680903D01*
X151324180Y-79479283D01*
X151152717Y-79307820D01*
X150951097Y-79173102D01*
X150727069Y-79080307D01*
X150489243Y-79033000D01*
X150246757Y-79033000D01*
X150008931Y-79080307D01*
X149784903Y-79173102D01*
X149583283Y-79307820D01*
X149411820Y-79479283D01*
X149277102Y-79680903D01*
X149245168Y-79758000D01*
X149060843Y-79758000D01*
X149060843Y-79414000D01*
X149053487Y-79339311D01*
X149031701Y-79267492D01*
X148996322Y-79201304D01*
X148948711Y-79143289D01*
X148890696Y-79095678D01*
X148824508Y-79060299D01*
X148752689Y-79038513D01*
X148678000Y-79031157D01*
X148334000Y-79031157D01*
X148334000Y-73572843D01*
X148588000Y-73572843D01*
X148662689Y-73565487D01*
X148734508Y-73543701D01*
X148800696Y-73508322D01*
X148858711Y-73460711D01*
X148906322Y-73402696D01*
X148941701Y-73336508D01*
X148963487Y-73264689D01*
X148970843Y-73190000D01*
X148970843Y-71590000D01*
X148963487Y-71515311D01*
X148941701Y-71443492D01*
X148906322Y-71377304D01*
X148858711Y-71319289D01*
X148800696Y-71271678D01*
X148734508Y-71236299D01*
X148662689Y-71214513D01*
X148588000Y-71207157D01*
X148294000Y-71207157D01*
X148294000Y-69199845D01*
X148296447Y-69174999D01*
X148294000Y-69150153D01*
X148294000Y-69150146D01*
X148286678Y-69075807D01*
X148257745Y-68980425D01*
X148210759Y-68892521D01*
X148147527Y-68815473D01*
X148128220Y-68799628D01*
X147441376Y-68112785D01*
X147425527Y-68093473D01*
X147348479Y-68030241D01*
X147260575Y-67983255D01*
X147165193Y-67954322D01*
X147090854Y-67947000D01*
X147090846Y-67947000D01*
X147066000Y-67944553D01*
X147041154Y-67947000D01*
X131088846Y-67947000D01*
X131064000Y-67944553D01*
X131039154Y-67947000D01*
X131039146Y-67947000D01*
X130964807Y-67954322D01*
X130869425Y-67983255D01*
X130781521Y-68030241D01*
X130704473Y-68093473D01*
X130688628Y-68112780D01*
X129707780Y-69093629D01*
X129688474Y-69109473D01*
X129625242Y-69186521D01*
X129607136Y-69220395D01*
X129578255Y-69274426D01*
X129549322Y-69369808D01*
X129539553Y-69469000D01*
X129542001Y-69493856D01*
X129542000Y-70783408D01*
X129198409Y-71127000D01*
X129109821Y-71127000D01*
X129071137Y-71079863D01*
X129004030Y-71024790D01*
X128927469Y-70983866D01*
X128844394Y-70958666D01*
X128758000Y-70950157D01*
X127378000Y-70950157D01*
X127291606Y-70958666D01*
X127208531Y-70983866D01*
X127131970Y-71024790D01*
X127064863Y-71079863D01*
X127026179Y-71127000D01*
X126765845Y-71127000D01*
X126740999Y-71124553D01*
X126716153Y-71127000D01*
X126716146Y-71127000D01*
X126651694Y-71133348D01*
X126641806Y-71134322D01*
X126551360Y-71161758D01*
X126546425Y-71163255D01*
X126458521Y-71210241D01*
X126381473Y-71273473D01*
X126365624Y-71292785D01*
X126151781Y-71506628D01*
X126132474Y-71522473D01*
X126100843Y-71561015D01*
X126100843Y-71393000D01*
X126092334Y-71306606D01*
X126067134Y-71223531D01*
X126026210Y-71146970D01*
X125971137Y-71079863D01*
X125904030Y-71024790D01*
X125827469Y-70983866D01*
X125744394Y-70958666D01*
X125658000Y-70950157D01*
X124278000Y-70950157D01*
X124191606Y-70958666D01*
X124108531Y-70983866D01*
X124031970Y-71024790D01*
X123964863Y-71079863D01*
X123926179Y-71127000D01*
X122515592Y-71127000D01*
X122398490Y-71009898D01*
X122420614Y-70956485D01*
X122466000Y-70728318D01*
X122466000Y-70495682D01*
X122420614Y-70267515D01*
X122331588Y-70052587D01*
X122202342Y-69859157D01*
X122037843Y-69694658D01*
X121844413Y-69565412D01*
X121629485Y-69476386D01*
X121401318Y-69431000D01*
X121168682Y-69431000D01*
X120940515Y-69476386D01*
X120725587Y-69565412D01*
X120532157Y-69694658D01*
X120367658Y-69859157D01*
X120238412Y-70052587D01*
X120149386Y-70267515D01*
X120104000Y-70495682D01*
X120104000Y-70728318D01*
X120149386Y-70956485D01*
X120238412Y-71171413D01*
X120367658Y-71364843D01*
X120532157Y-71529342D01*
X120725587Y-71658588D01*
X120940515Y-71747614D01*
X121168682Y-71793000D01*
X121401318Y-71793000D01*
X121629485Y-71747614D01*
X121682898Y-71725490D01*
X121930628Y-71973220D01*
X121946473Y-71992527D01*
X122023521Y-72055759D01*
X122111425Y-72102745D01*
X122206807Y-72131678D01*
X122281146Y-72139000D01*
X122281153Y-72139000D01*
X122305999Y-72141447D01*
X122330845Y-72139000D01*
X123598109Y-72139000D01*
X123592188Y-72158518D01*
X123579928Y-72283000D01*
X123583000Y-72297250D01*
X123741750Y-72456000D01*
X124841000Y-72456000D01*
X124841000Y-72436000D01*
X125095000Y-72436000D01*
X125095000Y-72456000D01*
X125115000Y-72456000D01*
X125115000Y-72710000D01*
X125095000Y-72710000D01*
X125095000Y-72730000D01*
X124841000Y-72730000D01*
X124841000Y-72710000D01*
X123741750Y-72710000D01*
X123583000Y-72868750D01*
X123579928Y-72883000D01*
X123592188Y-73007482D01*
X123598109Y-73027000D01*
X121591845Y-73027000D01*
X121566999Y-73024553D01*
X121542153Y-73027000D01*
X121542146Y-73027000D01*
X121477694Y-73033348D01*
X121467806Y-73034322D01*
X121406865Y-73052808D01*
X121372425Y-73063255D01*
X121284521Y-73110241D01*
X121207473Y-73173473D01*
X121191624Y-73192785D01*
X120944785Y-73439624D01*
X120925473Y-73455473D01*
X120862241Y-73532521D01*
X120815255Y-73620426D01*
X120786322Y-73715808D01*
X120779000Y-73790147D01*
X120779000Y-73790154D01*
X120776553Y-73815000D01*
X120779000Y-73839846D01*
X120779001Y-79703287D01*
X120725587Y-79725412D01*
X120532157Y-79854658D01*
X120367658Y-80019157D01*
X120238412Y-80212587D01*
X120149386Y-80427515D01*
X120104000Y-80655682D01*
X120104000Y-80888318D01*
X120149386Y-81116485D01*
X120238412Y-81331413D01*
X120367658Y-81524843D01*
X120532157Y-81689342D01*
X120725587Y-81818588D01*
X120779000Y-81840712D01*
X120779001Y-84905407D01*
X120490409Y-85194000D01*
X98824845Y-85194000D01*
X98799999Y-85191553D01*
X98775153Y-85194000D01*
X98775146Y-85194000D01*
X98710694Y-85200348D01*
X98700806Y-85201322D01*
X98605425Y-85230255D01*
X98517521Y-85277241D01*
X98440473Y-85340473D01*
X98424629Y-85359779D01*
X97957785Y-85826624D01*
X97938473Y-85842473D01*
X97875241Y-85919521D01*
X97828255Y-86007426D01*
X97799322Y-86102808D01*
X97792000Y-86177147D01*
X97792000Y-86177154D01*
X97789553Y-86202000D01*
X97792000Y-86226846D01*
X97792000Y-87652330D01*
X97593955Y-87734363D01*
X96706000Y-86846409D01*
X96706000Y-81192000D01*
X97192157Y-81192000D01*
X97192157Y-82892000D01*
X97199513Y-82966689D01*
X97221299Y-83038508D01*
X97256678Y-83104696D01*
X97304289Y-83162711D01*
X97362304Y-83210322D01*
X97428492Y-83245701D01*
X97500311Y-83267487D01*
X97575000Y-83274843D01*
X99275000Y-83274843D01*
X99349689Y-83267487D01*
X99421508Y-83245701D01*
X99487696Y-83210322D01*
X99545711Y-83162711D01*
X99593322Y-83104696D01*
X99628701Y-83038508D01*
X99650487Y-82966689D01*
X99657843Y-82892000D01*
X99657843Y-82548000D01*
X99842168Y-82548000D01*
X99874102Y-82625097D01*
X100008820Y-82826717D01*
X100180283Y-82998180D01*
X100381903Y-83132898D01*
X100459000Y-83164833D01*
X100459000Y-83414153D01*
X100456553Y-83439000D01*
X100459000Y-83463846D01*
X100459000Y-83463853D01*
X100466322Y-83538192D01*
X100495255Y-83633574D01*
X100542241Y-83721479D01*
X100605473Y-83798527D01*
X100624785Y-83814376D01*
X100970628Y-84160220D01*
X100986473Y-84179527D01*
X101063521Y-84242759D01*
X101151425Y-84289745D01*
X101224607Y-84311944D01*
X101246806Y-84318678D01*
X101256694Y-84319652D01*
X101321146Y-84326000D01*
X101321153Y-84326000D01*
X101345999Y-84328447D01*
X101370845Y-84326000D01*
X107036154Y-84326000D01*
X107061000Y-84328447D01*
X107085846Y-84326000D01*
X107085854Y-84326000D01*
X107160193Y-84318678D01*
X107255575Y-84289745D01*
X107343479Y-84242759D01*
X107420527Y-84179527D01*
X107436376Y-84160215D01*
X107782220Y-83814372D01*
X107801527Y-83798527D01*
X107864759Y-83721479D01*
X107871513Y-83708843D01*
X107892000Y-83708843D01*
X107966689Y-83701487D01*
X108038508Y-83679701D01*
X108104696Y-83644322D01*
X108162711Y-83596711D01*
X108210322Y-83538696D01*
X108245701Y-83472508D01*
X108257989Y-83432000D01*
X109349154Y-83432000D01*
X109374000Y-83434447D01*
X109398846Y-83432000D01*
X109398854Y-83432000D01*
X109473193Y-83424678D01*
X109568575Y-83395745D01*
X109656479Y-83348759D01*
X109733527Y-83285527D01*
X109749376Y-83266215D01*
X110140220Y-82875372D01*
X110159527Y-82859527D01*
X110222759Y-82782479D01*
X110269745Y-82694575D01*
X110298678Y-82599193D01*
X110306000Y-82524854D01*
X110306000Y-82524846D01*
X110308447Y-82500000D01*
X110306000Y-82475154D01*
X110306000Y-81949764D01*
X111729841Y-81949764D01*
X111777148Y-82173348D01*
X111998516Y-82274237D01*
X112235313Y-82330000D01*
X112478438Y-82338495D01*
X112718549Y-82299395D01*
X112946418Y-82214202D01*
X113022852Y-82173348D01*
X113070159Y-81949764D01*
X112400000Y-81279605D01*
X111729841Y-81949764D01*
X110306000Y-81949764D01*
X110306000Y-81178438D01*
X111161505Y-81178438D01*
X111200605Y-81418549D01*
X111285798Y-81646418D01*
X111326652Y-81722852D01*
X111550236Y-81770159D01*
X112220395Y-81100000D01*
X112579605Y-81100000D01*
X113249764Y-81770159D01*
X113473348Y-81722852D01*
X113539440Y-81577835D01*
X113638007Y-81725351D01*
X113774649Y-81861993D01*
X113935322Y-81969351D01*
X114113853Y-82043301D01*
X114303380Y-82081000D01*
X114496620Y-82081000D01*
X114686147Y-82043301D01*
X114864678Y-81969351D01*
X115025351Y-81861993D01*
X115161993Y-81725351D01*
X115241741Y-81606000D01*
X117019815Y-81606000D01*
X117103157Y-81689342D01*
X117296587Y-81818588D01*
X117511515Y-81907614D01*
X117739682Y-81953000D01*
X117972318Y-81953000D01*
X118200485Y-81907614D01*
X118415413Y-81818588D01*
X118608843Y-81689342D01*
X118773342Y-81524843D01*
X118902588Y-81331413D01*
X118991614Y-81116485D01*
X119037000Y-80888318D01*
X119037000Y-80655682D01*
X118991614Y-80427515D01*
X118902588Y-80212587D01*
X118773342Y-80019157D01*
X118608843Y-79854658D01*
X118415413Y-79725412D01*
X118200485Y-79636386D01*
X117972318Y-79591000D01*
X117739682Y-79591000D01*
X117511515Y-79636386D01*
X117296587Y-79725412D01*
X117103157Y-79854658D01*
X116938658Y-80019157D01*
X116809412Y-80212587D01*
X116720386Y-80427515D01*
X116687270Y-80594000D01*
X115241741Y-80594000D01*
X115161993Y-80474649D01*
X115025351Y-80338007D01*
X114864678Y-80230649D01*
X114686147Y-80156699D01*
X114496620Y-80119000D01*
X114303380Y-80119000D01*
X114113853Y-80156699D01*
X113935322Y-80230649D01*
X113774649Y-80338007D01*
X113638007Y-80474649D01*
X113539698Y-80621778D01*
X113514202Y-80553582D01*
X113473348Y-80477148D01*
X113249764Y-80429841D01*
X112579605Y-81100000D01*
X112220395Y-81100000D01*
X111550236Y-80429841D01*
X111326652Y-80477148D01*
X111225763Y-80698516D01*
X111170000Y-80935313D01*
X111161505Y-81178438D01*
X110306000Y-81178438D01*
X110306000Y-80250236D01*
X111729841Y-80250236D01*
X112400000Y-80920395D01*
X113070159Y-80250236D01*
X113022852Y-80026652D01*
X112801484Y-79925763D01*
X112564687Y-79870000D01*
X112321562Y-79861505D01*
X112081451Y-79900605D01*
X111853582Y-79985798D01*
X111777148Y-80026652D01*
X111729841Y-80250236D01*
X110306000Y-80250236D01*
X110306000Y-78924845D01*
X110308447Y-78899999D01*
X110306000Y-78875153D01*
X110306000Y-78875146D01*
X110298678Y-78800807D01*
X110269745Y-78705425D01*
X110222759Y-78617521D01*
X110159527Y-78540473D01*
X110140215Y-78524624D01*
X109875376Y-78259785D01*
X109859527Y-78240473D01*
X109782479Y-78177241D01*
X109694575Y-78130255D01*
X109599193Y-78101322D01*
X109524854Y-78094000D01*
X109500000Y-78091552D01*
X109475146Y-78094000D01*
X108168712Y-78094000D01*
X108146588Y-78040587D01*
X108017342Y-77847157D01*
X107852843Y-77682658D01*
X107659413Y-77553412D01*
X107444485Y-77464386D01*
X107216318Y-77419000D01*
X106983682Y-77419000D01*
X106755515Y-77464386D01*
X106540587Y-77553412D01*
X106347157Y-77682658D01*
X106182658Y-77847157D01*
X106053412Y-78040587D01*
X105964386Y-78255515D01*
X105919000Y-78483682D01*
X105919000Y-78716318D01*
X105964386Y-78944485D01*
X106053412Y-79159413D01*
X106182658Y-79352843D01*
X106347157Y-79517342D01*
X106540587Y-79646588D01*
X106755515Y-79735614D01*
X106983682Y-79781000D01*
X107216318Y-79781000D01*
X107444485Y-79735614D01*
X107659413Y-79646588D01*
X107852843Y-79517342D01*
X108017342Y-79352843D01*
X108146588Y-79159413D01*
X108168712Y-79106000D01*
X109290409Y-79106000D01*
X109294001Y-79109592D01*
X109294000Y-82290408D01*
X109164409Y-82420000D01*
X108257989Y-82420000D01*
X108245701Y-82379492D01*
X108210322Y-82313304D01*
X108162711Y-82255289D01*
X108104696Y-82207678D01*
X108038508Y-82172299D01*
X107966689Y-82150513D01*
X107892000Y-82143157D01*
X106992000Y-82143157D01*
X106917311Y-82150513D01*
X106845492Y-82172299D01*
X106779304Y-82207678D01*
X106721289Y-82255289D01*
X106673678Y-82313304D01*
X106638299Y-82379492D01*
X106616513Y-82451311D01*
X106609157Y-82526000D01*
X106609157Y-83314000D01*
X101555592Y-83314000D01*
X101471000Y-83229409D01*
X101471000Y-83164832D01*
X101548097Y-83132898D01*
X101749717Y-82998180D01*
X101921180Y-82826717D01*
X102055898Y-82625097D01*
X102148693Y-82401069D01*
X102196000Y-82163243D01*
X102196000Y-81920757D01*
X102148693Y-81682931D01*
X102055898Y-81458903D01*
X101921180Y-81257283D01*
X101749717Y-81085820D01*
X101548097Y-80951102D01*
X101324069Y-80858307D01*
X101086243Y-80811000D01*
X100843757Y-80811000D01*
X100605931Y-80858307D01*
X100381903Y-80951102D01*
X100180283Y-81085820D01*
X100008820Y-81257283D01*
X99874102Y-81458903D01*
X99842168Y-81536000D01*
X99657843Y-81536000D01*
X99657843Y-81192000D01*
X99650487Y-81117311D01*
X99628701Y-81045492D01*
X99593322Y-80979304D01*
X99545711Y-80921289D01*
X99487696Y-80873678D01*
X99421508Y-80838299D01*
X99349689Y-80816513D01*
X99275000Y-80809157D01*
X97575000Y-80809157D01*
X97500311Y-80816513D01*
X97428492Y-80838299D01*
X97362304Y-80873678D01*
X97304289Y-80921289D01*
X97256678Y-80979304D01*
X97221299Y-81045492D01*
X97199513Y-81117311D01*
X97192157Y-81192000D01*
X96706000Y-81192000D01*
X96706000Y-78496682D01*
X96990000Y-78496682D01*
X96990000Y-78729318D01*
X97035386Y-78957485D01*
X97124412Y-79172413D01*
X97253658Y-79365843D01*
X97418157Y-79530342D01*
X97611587Y-79659588D01*
X97826515Y-79748614D01*
X98054682Y-79794000D01*
X98287318Y-79794000D01*
X98515485Y-79748614D01*
X98730413Y-79659588D01*
X98923843Y-79530342D01*
X99088342Y-79365843D01*
X99217588Y-79172413D01*
X99306614Y-78957485D01*
X99352000Y-78729318D01*
X99352000Y-78496682D01*
X101562000Y-78496682D01*
X101562000Y-78729318D01*
X101607386Y-78957485D01*
X101696412Y-79172413D01*
X101825658Y-79365843D01*
X101990157Y-79530342D01*
X102183587Y-79659588D01*
X102398515Y-79748614D01*
X102626682Y-79794000D01*
X102859318Y-79794000D01*
X103087485Y-79748614D01*
X103302413Y-79659588D01*
X103495843Y-79530342D01*
X103660342Y-79365843D01*
X103789588Y-79172413D01*
X103811712Y-79119000D01*
X104692409Y-79119000D01*
X104936001Y-79362593D01*
X104936000Y-81198672D01*
X104917311Y-81200513D01*
X104845492Y-81222299D01*
X104779304Y-81257678D01*
X104721289Y-81305289D01*
X104673678Y-81363304D01*
X104638299Y-81429492D01*
X104616513Y-81501311D01*
X104609157Y-81576000D01*
X104609157Y-82376000D01*
X104616513Y-82450689D01*
X104638299Y-82522508D01*
X104673678Y-82588696D01*
X104721289Y-82646711D01*
X104779304Y-82694322D01*
X104845492Y-82729701D01*
X104917311Y-82751487D01*
X104992000Y-82758843D01*
X105892000Y-82758843D01*
X105966689Y-82751487D01*
X106038508Y-82729701D01*
X106104696Y-82694322D01*
X106162711Y-82646711D01*
X106210322Y-82588696D01*
X106245701Y-82522508D01*
X106267487Y-82450689D01*
X106274843Y-82376000D01*
X106274843Y-81576000D01*
X106267487Y-81501311D01*
X106245701Y-81429492D01*
X106243835Y-81426000D01*
X106353928Y-81426000D01*
X106366188Y-81550482D01*
X106402498Y-81670180D01*
X106461463Y-81780494D01*
X106540815Y-81877185D01*
X106637506Y-81956537D01*
X106747820Y-82015502D01*
X106867518Y-82051812D01*
X106992000Y-82064072D01*
X107156250Y-82061000D01*
X107315000Y-81902250D01*
X107315000Y-81153000D01*
X107569000Y-81153000D01*
X107569000Y-81902250D01*
X107727750Y-82061000D01*
X107892000Y-82064072D01*
X108016482Y-82051812D01*
X108136180Y-82015502D01*
X108246494Y-81956537D01*
X108343185Y-81877185D01*
X108422537Y-81780494D01*
X108481502Y-81670180D01*
X108517812Y-81550482D01*
X108530072Y-81426000D01*
X108527000Y-81311750D01*
X108368250Y-81153000D01*
X107569000Y-81153000D01*
X107315000Y-81153000D01*
X106515750Y-81153000D01*
X106357000Y-81311750D01*
X106353928Y-81426000D01*
X106243835Y-81426000D01*
X106210322Y-81363304D01*
X106162711Y-81305289D01*
X106104696Y-81257678D01*
X106038508Y-81222299D01*
X105966689Y-81200513D01*
X105948000Y-81198672D01*
X105948000Y-80626000D01*
X106353928Y-80626000D01*
X106357000Y-80740250D01*
X106515750Y-80899000D01*
X107315000Y-80899000D01*
X107315000Y-80149750D01*
X107569000Y-80149750D01*
X107569000Y-80899000D01*
X108368250Y-80899000D01*
X108527000Y-80740250D01*
X108530072Y-80626000D01*
X108517812Y-80501518D01*
X108481502Y-80381820D01*
X108422537Y-80271506D01*
X108343185Y-80174815D01*
X108246494Y-80095463D01*
X108136180Y-80036498D01*
X108016482Y-80000188D01*
X107892000Y-79987928D01*
X107727750Y-79991000D01*
X107569000Y-80149750D01*
X107315000Y-80149750D01*
X107156250Y-79991000D01*
X106992000Y-79987928D01*
X106867518Y-80000188D01*
X106747820Y-80036498D01*
X106637506Y-80095463D01*
X106540815Y-80174815D01*
X106461463Y-80271506D01*
X106402498Y-80381820D01*
X106366188Y-80501518D01*
X106353928Y-80626000D01*
X105948000Y-80626000D01*
X105948000Y-79177845D01*
X105950447Y-79152999D01*
X105948000Y-79128153D01*
X105948000Y-79128146D01*
X105940678Y-79053807D01*
X105911745Y-78958425D01*
X105864759Y-78870521D01*
X105801527Y-78793473D01*
X105782220Y-78777628D01*
X105277376Y-78272785D01*
X105261527Y-78253473D01*
X105184479Y-78190241D01*
X105096575Y-78143255D01*
X105001193Y-78114322D01*
X104926854Y-78107000D01*
X104926846Y-78107000D01*
X104902000Y-78104553D01*
X104877154Y-78107000D01*
X103811712Y-78107000D01*
X103789588Y-78053587D01*
X103660342Y-77860157D01*
X103495843Y-77695658D01*
X103302413Y-77566412D01*
X103087485Y-77477386D01*
X102859318Y-77432000D01*
X102626682Y-77432000D01*
X102398515Y-77477386D01*
X102183587Y-77566412D01*
X101990157Y-77695658D01*
X101825658Y-77860157D01*
X101696412Y-78053587D01*
X101607386Y-78268515D01*
X101562000Y-78496682D01*
X99352000Y-78496682D01*
X99306614Y-78268515D01*
X99217588Y-78053587D01*
X99088342Y-77860157D01*
X98923843Y-77695658D01*
X98730413Y-77566412D01*
X98515485Y-77477386D01*
X98287318Y-77432000D01*
X98054682Y-77432000D01*
X97826515Y-77477386D01*
X97611587Y-77566412D01*
X97418157Y-77695658D01*
X97253658Y-77860157D01*
X97124412Y-78053587D01*
X97035386Y-78268515D01*
X96990000Y-78496682D01*
X96706000Y-78496682D01*
X96706000Y-76160764D01*
X111724841Y-76160764D01*
X111772148Y-76384348D01*
X111993516Y-76485237D01*
X112230313Y-76541000D01*
X112473438Y-76549495D01*
X112713549Y-76510395D01*
X112941418Y-76425202D01*
X113017852Y-76384348D01*
X113065159Y-76160764D01*
X112395000Y-75490605D01*
X111724841Y-76160764D01*
X96706000Y-76160764D01*
X96706000Y-75389438D01*
X111156505Y-75389438D01*
X111195605Y-75629549D01*
X111280798Y-75857418D01*
X111321652Y-75933852D01*
X111545236Y-75981159D01*
X112215395Y-75311000D01*
X111545236Y-74640841D01*
X111321652Y-74688148D01*
X111220763Y-74909516D01*
X111165000Y-75146313D01*
X111156505Y-75389438D01*
X96706000Y-75389438D01*
X96706000Y-74461236D01*
X111724841Y-74461236D01*
X112395000Y-75131395D01*
X113065159Y-74461236D01*
X113017852Y-74237652D01*
X112796484Y-74136763D01*
X112559687Y-74081000D01*
X112316562Y-74072505D01*
X112076451Y-74111605D01*
X111848582Y-74196798D01*
X111772148Y-74237652D01*
X111724841Y-74461236D01*
X96706000Y-74461236D01*
X96706000Y-70633591D01*
X97089827Y-70249764D01*
X111729841Y-70249764D01*
X111777148Y-70473348D01*
X111998516Y-70574237D01*
X112235313Y-70630000D01*
X112478438Y-70638495D01*
X112718549Y-70599395D01*
X112946418Y-70514202D01*
X113022852Y-70473348D01*
X113070159Y-70249764D01*
X112400000Y-69579605D01*
X111729841Y-70249764D01*
X97089827Y-70249764D01*
X97773102Y-69566490D01*
X97826515Y-69588614D01*
X98054682Y-69634000D01*
X98287318Y-69634000D01*
X98515485Y-69588614D01*
X98730413Y-69499588D01*
X98923843Y-69370342D01*
X99088342Y-69205843D01*
X99217588Y-69012413D01*
X99306614Y-68797485D01*
X99352000Y-68569318D01*
X99352000Y-68336682D01*
X101562000Y-68336682D01*
X101562000Y-68569318D01*
X101607386Y-68797485D01*
X101696412Y-69012413D01*
X101825658Y-69205843D01*
X101990157Y-69370342D01*
X102183587Y-69499588D01*
X102398515Y-69588614D01*
X102626682Y-69634000D01*
X102859318Y-69634000D01*
X103087485Y-69588614D01*
X103302413Y-69499588D01*
X103495843Y-69370342D01*
X103660342Y-69205843D01*
X103789588Y-69012413D01*
X103878614Y-68797485D01*
X103880293Y-68789040D01*
X105708091Y-68789040D01*
X105802930Y-69053881D01*
X105947615Y-69295131D01*
X106136586Y-69503519D01*
X106362580Y-69671037D01*
X106616913Y-69791246D01*
X106750961Y-69831904D01*
X106973000Y-69709915D01*
X106973000Y-68567000D01*
X107227000Y-68567000D01*
X107227000Y-69709915D01*
X107449039Y-69831904D01*
X107583087Y-69791246D01*
X107837420Y-69671037D01*
X108063414Y-69503519D01*
X108086158Y-69478438D01*
X111161505Y-69478438D01*
X111200605Y-69718549D01*
X111285798Y-69946418D01*
X111326652Y-70022852D01*
X111550236Y-70070159D01*
X112220395Y-69400000D01*
X111550236Y-68729841D01*
X111326652Y-68777148D01*
X111225763Y-68998516D01*
X111170000Y-69235313D01*
X111161505Y-69478438D01*
X108086158Y-69478438D01*
X108252385Y-69295131D01*
X108397070Y-69053881D01*
X108491909Y-68789040D01*
X108370624Y-68567000D01*
X107227000Y-68567000D01*
X106973000Y-68567000D01*
X105829376Y-68567000D01*
X105708091Y-68789040D01*
X103880293Y-68789040D01*
X103924000Y-68569318D01*
X103924000Y-68550236D01*
X111729841Y-68550236D01*
X112400000Y-69220395D01*
X113070159Y-68550236D01*
X113022852Y-68326652D01*
X112801484Y-68225763D01*
X112564687Y-68170000D01*
X112321562Y-68161505D01*
X112081451Y-68200605D01*
X111853582Y-68285798D01*
X111777148Y-68326652D01*
X111729841Y-68550236D01*
X103924000Y-68550236D01*
X103924000Y-68336682D01*
X103878614Y-68108515D01*
X103871343Y-68090960D01*
X105708091Y-68090960D01*
X105829376Y-68313000D01*
X106973000Y-68313000D01*
X106973000Y-67170085D01*
X107227000Y-67170085D01*
X107227000Y-68313000D01*
X108370624Y-68313000D01*
X108491909Y-68090960D01*
X108397070Y-67826119D01*
X108252385Y-67584869D01*
X108063414Y-67376481D01*
X107837420Y-67208963D01*
X107583087Y-67088754D01*
X107449039Y-67048096D01*
X107227000Y-67170085D01*
X106973000Y-67170085D01*
X106750961Y-67048096D01*
X106616913Y-67088754D01*
X106362580Y-67208963D01*
X106136586Y-67376481D01*
X105947615Y-67584869D01*
X105802930Y-67826119D01*
X105708091Y-68090960D01*
X103871343Y-68090960D01*
X103789588Y-67893587D01*
X103660342Y-67700157D01*
X103495843Y-67535658D01*
X103302413Y-67406412D01*
X103087485Y-67317386D01*
X102859318Y-67272000D01*
X102626682Y-67272000D01*
X102398515Y-67317386D01*
X102183587Y-67406412D01*
X101990157Y-67535658D01*
X101825658Y-67700157D01*
X101696412Y-67893587D01*
X101607386Y-68108515D01*
X101562000Y-68336682D01*
X99352000Y-68336682D01*
X99306614Y-68108515D01*
X99217588Y-67893587D01*
X99088342Y-67700157D01*
X98923843Y-67535658D01*
X98730413Y-67406412D01*
X98677000Y-67384288D01*
X98677000Y-64986843D01*
X99021000Y-64986843D01*
X99095689Y-64979487D01*
X99167508Y-64957701D01*
X99233696Y-64922322D01*
X99291711Y-64874711D01*
X99339322Y-64816696D01*
X99374701Y-64750508D01*
X99396487Y-64678689D01*
X99403843Y-64604000D01*
X101762928Y-64604000D01*
X101775188Y-64728482D01*
X101811498Y-64848180D01*
X101870463Y-64958494D01*
X101949815Y-65055185D01*
X102046506Y-65134537D01*
X102156820Y-65193502D01*
X102276518Y-65229812D01*
X102401000Y-65242072D01*
X102965250Y-65239000D01*
X103124000Y-65080250D01*
X103124000Y-63881000D01*
X103378000Y-63881000D01*
X103378000Y-65080250D01*
X103536750Y-65239000D01*
X104101000Y-65242072D01*
X104225482Y-65229812D01*
X104345180Y-65193502D01*
X104455494Y-65134537D01*
X104552185Y-65055185D01*
X104631537Y-64958494D01*
X104690502Y-64848180D01*
X104726812Y-64728482D01*
X104739072Y-64604000D01*
X104736000Y-64039750D01*
X104577250Y-63881000D01*
X103378000Y-63881000D01*
X103124000Y-63881000D01*
X101924750Y-63881000D01*
X101766000Y-64039750D01*
X101762928Y-64604000D01*
X99403843Y-64604000D01*
X99403843Y-62904000D01*
X101762928Y-62904000D01*
X101766000Y-63468250D01*
X101924750Y-63627000D01*
X103124000Y-63627000D01*
X103124000Y-62427750D01*
X103378000Y-62427750D01*
X103378000Y-63627000D01*
X104577250Y-63627000D01*
X104736000Y-63468250D01*
X104739072Y-62904000D01*
X104726812Y-62779518D01*
X104690502Y-62659820D01*
X104631537Y-62549506D01*
X104552185Y-62452815D01*
X104455494Y-62373463D01*
X104345180Y-62314498D01*
X104225482Y-62278188D01*
X104101000Y-62265928D01*
X103536750Y-62269000D01*
X103378000Y-62427750D01*
X103124000Y-62427750D01*
X102965250Y-62269000D01*
X102401000Y-62265928D01*
X102276518Y-62278188D01*
X102156820Y-62314498D01*
X102046506Y-62373463D01*
X101949815Y-62452815D01*
X101870463Y-62549506D01*
X101811498Y-62659820D01*
X101775188Y-62779518D01*
X101762928Y-62904000D01*
X99403843Y-62904000D01*
X99396487Y-62829311D01*
X99374701Y-62757492D01*
X99339322Y-62691304D01*
X99291711Y-62633289D01*
X99233696Y-62585678D01*
X99167508Y-62550299D01*
X99095689Y-62528513D01*
X99021000Y-62521157D01*
X98677000Y-62521157D01*
X98677000Y-62238591D01*
X98709591Y-62206000D01*
X105794000Y-62206000D01*
X105794001Y-62875144D01*
X105791553Y-62900000D01*
X105801322Y-62999192D01*
X105830255Y-63094574D01*
X105830256Y-63094575D01*
X105877242Y-63182479D01*
X105940474Y-63259527D01*
X105959780Y-63275371D01*
X106270628Y-63586220D01*
X106286473Y-63605527D01*
X106363521Y-63668759D01*
X106451425Y-63715745D01*
X106546807Y-63744678D01*
X106646000Y-63754448D01*
X106670854Y-63752000D01*
X107789048Y-63752000D01*
X107830793Y-63852781D01*
X107970982Y-64062590D01*
X108149410Y-64241018D01*
X108359219Y-64381207D01*
X108592346Y-64477772D01*
X108839833Y-64527000D01*
X109092167Y-64527000D01*
X109339654Y-64477772D01*
X109572781Y-64381207D01*
X109782590Y-64241018D01*
X109961018Y-64062590D01*
X110101207Y-63852781D01*
X110197772Y-63619654D01*
X110223157Y-63492034D01*
X110223157Y-64146000D01*
X110230513Y-64220689D01*
X110252299Y-64292508D01*
X110287678Y-64358696D01*
X110335289Y-64416711D01*
X110393304Y-64464322D01*
X110459492Y-64499701D01*
X110531311Y-64521487D01*
X110606000Y-64528843D01*
X112406000Y-64528843D01*
X112480689Y-64521487D01*
X112552508Y-64499701D01*
X112618696Y-64464322D01*
X112676711Y-64416711D01*
X112724322Y-64358696D01*
X112759701Y-64292508D01*
X112781487Y-64220689D01*
X112788843Y-64146000D01*
X112788843Y-62346000D01*
X112781487Y-62271311D01*
X112759701Y-62199492D01*
X112724322Y-62133304D01*
X112676711Y-62075289D01*
X112618696Y-62027678D01*
X112552508Y-61992299D01*
X112480689Y-61970513D01*
X112406000Y-61963157D01*
X110606000Y-61963157D01*
X110531311Y-61970513D01*
X110459492Y-61992299D01*
X110393304Y-62027678D01*
X110335289Y-62075289D01*
X110287678Y-62133304D01*
X110252299Y-62199492D01*
X110230513Y-62271311D01*
X110223157Y-62346000D01*
X110223157Y-62999966D01*
X110197772Y-62872346D01*
X110101207Y-62639219D01*
X109961018Y-62429410D01*
X109782590Y-62250982D01*
X109572781Y-62110793D01*
X109406000Y-62041710D01*
X109406000Y-61709591D01*
X109409591Y-61706000D01*
X113690409Y-61706000D01*
X113894001Y-61909593D01*
X113894000Y-68558259D01*
X113774649Y-68638007D01*
X113638007Y-68774649D01*
X113539698Y-68921778D01*
X113514202Y-68853582D01*
X113473348Y-68777148D01*
X113249764Y-68729841D01*
X112579605Y-69400000D01*
X113249764Y-70070159D01*
X113473348Y-70022852D01*
X113539440Y-69877835D01*
X113638007Y-70025351D01*
X113774649Y-70161993D01*
X113889001Y-70238400D01*
X113889000Y-74469259D01*
X113769649Y-74549007D01*
X113633007Y-74685649D01*
X113534698Y-74832778D01*
X113509202Y-74764582D01*
X113468348Y-74688148D01*
X113244764Y-74640841D01*
X112574605Y-75311000D01*
X113244764Y-75981159D01*
X113468348Y-75933852D01*
X113534440Y-75788835D01*
X113633007Y-75936351D01*
X113769649Y-76072993D01*
X113930322Y-76180351D01*
X114108853Y-76254301D01*
X114298380Y-76292000D01*
X114491620Y-76292000D01*
X114681147Y-76254301D01*
X114859678Y-76180351D01*
X115020351Y-76072993D01*
X115156993Y-75936351D01*
X115264351Y-75775678D01*
X115338301Y-75597147D01*
X115376000Y-75407620D01*
X115376000Y-75214380D01*
X115338301Y-75024853D01*
X115264351Y-74846322D01*
X115156993Y-74685649D01*
X115020351Y-74549007D01*
X114901000Y-74469259D01*
X114901000Y-70495682D01*
X116675000Y-70495682D01*
X116675000Y-70728318D01*
X116720386Y-70956485D01*
X116809412Y-71171413D01*
X116938658Y-71364843D01*
X117103157Y-71529342D01*
X117296587Y-71658588D01*
X117511515Y-71747614D01*
X117739682Y-71793000D01*
X117972318Y-71793000D01*
X118200485Y-71747614D01*
X118415413Y-71658588D01*
X118608843Y-71529342D01*
X118773342Y-71364843D01*
X118902588Y-71171413D01*
X118991614Y-70956485D01*
X119037000Y-70728318D01*
X119037000Y-70495682D01*
X118991614Y-70267515D01*
X118902588Y-70052587D01*
X118773342Y-69859157D01*
X118608843Y-69694658D01*
X118415413Y-69565412D01*
X118200485Y-69476386D01*
X117972318Y-69431000D01*
X117739682Y-69431000D01*
X117511515Y-69476386D01*
X117296587Y-69565412D01*
X117103157Y-69694658D01*
X116938658Y-69859157D01*
X116809412Y-70052587D01*
X116720386Y-70267515D01*
X116675000Y-70495682D01*
X114901000Y-70495682D01*
X114901000Y-70245081D01*
X115025351Y-70161993D01*
X115161993Y-70025351D01*
X115269351Y-69864678D01*
X115343301Y-69686147D01*
X115381000Y-69496620D01*
X115381000Y-69303380D01*
X115343301Y-69113853D01*
X115269351Y-68935322D01*
X115161993Y-68774649D01*
X115025351Y-68638007D01*
X114906000Y-68558259D01*
X114906000Y-65288682D01*
X115024000Y-65288682D01*
X115024000Y-65521318D01*
X115069386Y-65749485D01*
X115158412Y-65964413D01*
X115287658Y-66157843D01*
X115452157Y-66322342D01*
X115645587Y-66451588D01*
X115860515Y-66540614D01*
X116088682Y-66586000D01*
X116321318Y-66586000D01*
X116549485Y-66540614D01*
X116764413Y-66451588D01*
X116957843Y-66322342D01*
X117122342Y-66157843D01*
X117251588Y-65964413D01*
X117340614Y-65749485D01*
X117386000Y-65521318D01*
X117386000Y-65288682D01*
X125184000Y-65288682D01*
X125184000Y-65521318D01*
X125229386Y-65749485D01*
X125318412Y-65964413D01*
X125447658Y-66157843D01*
X125612157Y-66322342D01*
X125805587Y-66451588D01*
X126020515Y-66540614D01*
X126248682Y-66586000D01*
X126481318Y-66586000D01*
X126709485Y-66540614D01*
X126924413Y-66451588D01*
X127117843Y-66322342D01*
X127282342Y-66157843D01*
X127411588Y-65964413D01*
X127498727Y-65754039D01*
X128021096Y-65754039D01*
X128061754Y-65888087D01*
X128181963Y-66142420D01*
X128349481Y-66368414D01*
X128557869Y-66557385D01*
X128799119Y-66702070D01*
X129063960Y-66796909D01*
X129286000Y-66675624D01*
X129286000Y-65532000D01*
X129540000Y-65532000D01*
X129540000Y-66675624D01*
X129762040Y-66796909D01*
X130026881Y-66702070D01*
X130268131Y-66557385D01*
X130476519Y-66368414D01*
X130644037Y-66142420D01*
X130764246Y-65888087D01*
X130804904Y-65754039D01*
X130682915Y-65532000D01*
X129540000Y-65532000D01*
X129286000Y-65532000D01*
X128143085Y-65532000D01*
X128021096Y-65754039D01*
X127498727Y-65754039D01*
X127500614Y-65749485D01*
X127546000Y-65521318D01*
X127546000Y-65288682D01*
X127500614Y-65060515D01*
X127498728Y-65055961D01*
X128021096Y-65055961D01*
X128143085Y-65278000D01*
X129286000Y-65278000D01*
X129286000Y-64134376D01*
X129540000Y-64134376D01*
X129540000Y-65278000D01*
X130682915Y-65278000D01*
X130804904Y-65055961D01*
X130764246Y-64921913D01*
X130644037Y-64667580D01*
X130476519Y-64441586D01*
X130268131Y-64252615D01*
X130026881Y-64107930D01*
X129762040Y-64013091D01*
X129540000Y-64134376D01*
X129286000Y-64134376D01*
X129063960Y-64013091D01*
X128799119Y-64107930D01*
X128557869Y-64252615D01*
X128349481Y-64441586D01*
X128181963Y-64667580D01*
X128061754Y-64921913D01*
X128021096Y-65055961D01*
X127498728Y-65055961D01*
X127411588Y-64845587D01*
X127282342Y-64652157D01*
X127117843Y-64487658D01*
X126924413Y-64358412D01*
X126709485Y-64269386D01*
X126481318Y-64224000D01*
X126248682Y-64224000D01*
X126020515Y-64269386D01*
X125805587Y-64358412D01*
X125612157Y-64487658D01*
X125447658Y-64652157D01*
X125318412Y-64845587D01*
X125229386Y-65060515D01*
X125184000Y-65288682D01*
X117386000Y-65288682D01*
X117340614Y-65060515D01*
X117251588Y-64845587D01*
X117122342Y-64652157D01*
X116957843Y-64487658D01*
X116764413Y-64358412D01*
X116711000Y-64336288D01*
X116711000Y-62954843D01*
X117817000Y-62954843D01*
X117891689Y-62947487D01*
X117963508Y-62925701D01*
X118029696Y-62890322D01*
X118087711Y-62842711D01*
X118135322Y-62784696D01*
X118170701Y-62718508D01*
X118192487Y-62646689D01*
X118199843Y-62572000D01*
X118199843Y-62228000D01*
X118384168Y-62228000D01*
X118416102Y-62305097D01*
X118550820Y-62506717D01*
X118722283Y-62678180D01*
X118923903Y-62812898D01*
X119147931Y-62905693D01*
X119385757Y-62953000D01*
X119628243Y-62953000D01*
X119866069Y-62905693D01*
X120090097Y-62812898D01*
X120291717Y-62678180D01*
X120463180Y-62506717D01*
X120504417Y-62445000D01*
X125384928Y-62445000D01*
X125397188Y-62569482D01*
X125433498Y-62689180D01*
X125492463Y-62799494D01*
X125571815Y-62896185D01*
X125668506Y-62975537D01*
X125778820Y-63034502D01*
X125898518Y-63070812D01*
X126023000Y-63083072D01*
X126587250Y-63080000D01*
X126746000Y-62921250D01*
X126746000Y-61722000D01*
X127000000Y-61722000D01*
X127000000Y-62921250D01*
X127158750Y-63080000D01*
X127723000Y-63083072D01*
X127847482Y-63070812D01*
X127967180Y-63034502D01*
X128077494Y-62975537D01*
X128174185Y-62896185D01*
X128253537Y-62799494D01*
X128312502Y-62689180D01*
X128336966Y-62608534D01*
X128412731Y-62692588D01*
X128646080Y-62866641D01*
X128908901Y-62991825D01*
X129056110Y-63036476D01*
X129286000Y-62915155D01*
X129286000Y-61722000D01*
X129540000Y-61722000D01*
X129540000Y-62915155D01*
X129769890Y-63036476D01*
X129917099Y-62991825D01*
X130179920Y-62866641D01*
X130413269Y-62692588D01*
X130608178Y-62476355D01*
X130757157Y-62226252D01*
X130854481Y-61951891D01*
X130733814Y-61722000D01*
X129540000Y-61722000D01*
X129286000Y-61722000D01*
X127000000Y-61722000D01*
X126746000Y-61722000D01*
X125546750Y-61722000D01*
X125388000Y-61880750D01*
X125384928Y-62445000D01*
X120504417Y-62445000D01*
X120597898Y-62305097D01*
X120690693Y-62081069D01*
X120738000Y-61843243D01*
X120738000Y-61600757D01*
X120690693Y-61362931D01*
X120597898Y-61138903D01*
X120463180Y-60937283D01*
X120291717Y-60765820D01*
X120260558Y-60745000D01*
X125384928Y-60745000D01*
X125388000Y-61309250D01*
X125546750Y-61468000D01*
X126746000Y-61468000D01*
X126746000Y-60268750D01*
X127000000Y-60268750D01*
X127000000Y-61468000D01*
X129286000Y-61468000D01*
X129286000Y-60274845D01*
X129540000Y-60274845D01*
X129540000Y-61468000D01*
X130733814Y-61468000D01*
X130854481Y-61238109D01*
X130757157Y-60963748D01*
X130702506Y-60872000D01*
X134149157Y-60872000D01*
X134149157Y-62572000D01*
X134156513Y-62646689D01*
X134178299Y-62718508D01*
X134213678Y-62784696D01*
X134261289Y-62842711D01*
X134319304Y-62890322D01*
X134385492Y-62925701D01*
X134457311Y-62947487D01*
X134532000Y-62954843D01*
X136232000Y-62954843D01*
X136306689Y-62947487D01*
X136378508Y-62925701D01*
X136444696Y-62890322D01*
X136502711Y-62842711D01*
X136550322Y-62784696D01*
X136585701Y-62718508D01*
X136607487Y-62646689D01*
X136614843Y-62572000D01*
X136614843Y-62228000D01*
X136799168Y-62228000D01*
X136831102Y-62305097D01*
X136965820Y-62506717D01*
X137137283Y-62678180D01*
X137338903Y-62812898D01*
X137562931Y-62905693D01*
X137800757Y-62953000D01*
X138043243Y-62953000D01*
X138281069Y-62905693D01*
X138505097Y-62812898D01*
X138706717Y-62678180D01*
X138878180Y-62506717D01*
X139012898Y-62305097D01*
X139044832Y-62228000D01*
X143524825Y-62228000D01*
X143499000Y-62357833D01*
X143499000Y-62610167D01*
X143548228Y-62857654D01*
X143644793Y-63090781D01*
X143784982Y-63300590D01*
X143963410Y-63479018D01*
X144173219Y-63619207D01*
X144406346Y-63715772D01*
X144533966Y-63741157D01*
X143880000Y-63741157D01*
X143805311Y-63748513D01*
X143733492Y-63770299D01*
X143667304Y-63805678D01*
X143609289Y-63853289D01*
X143561678Y-63911304D01*
X143526299Y-63977492D01*
X143504513Y-64049311D01*
X143497157Y-64124000D01*
X143497157Y-64899000D01*
X140641712Y-64899000D01*
X140619588Y-64845587D01*
X140490342Y-64652157D01*
X140325843Y-64487658D01*
X140132413Y-64358412D01*
X139917485Y-64269386D01*
X139689318Y-64224000D01*
X139456682Y-64224000D01*
X139228515Y-64269386D01*
X139013587Y-64358412D01*
X138820157Y-64487658D01*
X138655658Y-64652157D01*
X138526412Y-64845587D01*
X138437386Y-65060515D01*
X138392000Y-65288682D01*
X138392000Y-65521318D01*
X138437386Y-65749485D01*
X138526412Y-65964413D01*
X138655658Y-66157843D01*
X138820157Y-66322342D01*
X139013587Y-66451588D01*
X139228515Y-66540614D01*
X139456682Y-66586000D01*
X139689318Y-66586000D01*
X139917485Y-66540614D01*
X140132413Y-66451588D01*
X140325843Y-66322342D01*
X140490342Y-66157843D01*
X140619588Y-65964413D01*
X140641712Y-65911000D01*
X143497157Y-65911000D01*
X143497157Y-65924000D01*
X143504513Y-65998689D01*
X143526299Y-66070508D01*
X143561678Y-66136696D01*
X143609289Y-66194711D01*
X143667304Y-66242322D01*
X143733492Y-66277701D01*
X143805311Y-66299487D01*
X143880000Y-66306843D01*
X145680000Y-66306843D01*
X145754689Y-66299487D01*
X145826508Y-66277701D01*
X145892696Y-66242322D01*
X145950711Y-66194711D01*
X145998322Y-66136696D01*
X146033701Y-66070508D01*
X146055487Y-65998689D01*
X146062843Y-65924000D01*
X146062843Y-64124000D01*
X146055487Y-64049311D01*
X146033701Y-63977492D01*
X145998322Y-63911304D01*
X145950711Y-63853289D01*
X145892696Y-63805678D01*
X145826508Y-63770299D01*
X145754689Y-63748513D01*
X145680000Y-63741157D01*
X145026034Y-63741157D01*
X145153654Y-63715772D01*
X145386781Y-63619207D01*
X145596590Y-63479018D01*
X145775018Y-63300590D01*
X145915207Y-63090781D01*
X146011772Y-62857654D01*
X146061000Y-62610167D01*
X146061000Y-62357833D01*
X146011772Y-62110346D01*
X145915207Y-61877219D01*
X145775018Y-61667410D01*
X145596590Y-61488982D01*
X145386781Y-61348793D01*
X145153654Y-61252228D01*
X144906167Y-61203000D01*
X144653833Y-61203000D01*
X144406346Y-61252228D01*
X144297147Y-61297460D01*
X144212575Y-61252255D01*
X144117193Y-61223322D01*
X144042854Y-61216000D01*
X144042846Y-61216000D01*
X144018000Y-61213553D01*
X143993154Y-61216000D01*
X139044832Y-61216000D01*
X139012898Y-61138903D01*
X138878180Y-60937283D01*
X138706717Y-60765820D01*
X138505097Y-60631102D01*
X138281069Y-60538307D01*
X138043243Y-60491000D01*
X137800757Y-60491000D01*
X137562931Y-60538307D01*
X137338903Y-60631102D01*
X137137283Y-60765820D01*
X136965820Y-60937283D01*
X136831102Y-61138903D01*
X136799168Y-61216000D01*
X136614843Y-61216000D01*
X136614843Y-60872000D01*
X136607487Y-60797311D01*
X136585701Y-60725492D01*
X136550322Y-60659304D01*
X136502711Y-60601289D01*
X136444696Y-60553678D01*
X136378508Y-60518299D01*
X136306689Y-60496513D01*
X136232000Y-60489157D01*
X134532000Y-60489157D01*
X134457311Y-60496513D01*
X134385492Y-60518299D01*
X134319304Y-60553678D01*
X134261289Y-60601289D01*
X134213678Y-60659304D01*
X134178299Y-60725492D01*
X134156513Y-60797311D01*
X134149157Y-60872000D01*
X130702506Y-60872000D01*
X130608178Y-60713645D01*
X130413269Y-60497412D01*
X130179920Y-60323359D01*
X129917099Y-60198175D01*
X129769890Y-60153524D01*
X129540000Y-60274845D01*
X129286000Y-60274845D01*
X129056110Y-60153524D01*
X128908901Y-60198175D01*
X128646080Y-60323359D01*
X128412731Y-60497412D01*
X128336966Y-60581466D01*
X128312502Y-60500820D01*
X128253537Y-60390506D01*
X128174185Y-60293815D01*
X128077494Y-60214463D01*
X127967180Y-60155498D01*
X127847482Y-60119188D01*
X127723000Y-60106928D01*
X127158750Y-60110000D01*
X127000000Y-60268750D01*
X126746000Y-60268750D01*
X126587250Y-60110000D01*
X126023000Y-60106928D01*
X125898518Y-60119188D01*
X125778820Y-60155498D01*
X125668506Y-60214463D01*
X125571815Y-60293815D01*
X125492463Y-60390506D01*
X125433498Y-60500820D01*
X125397188Y-60620518D01*
X125384928Y-60745000D01*
X120260558Y-60745000D01*
X120090097Y-60631102D01*
X119866069Y-60538307D01*
X119628243Y-60491000D01*
X119385757Y-60491000D01*
X119147931Y-60538307D01*
X118923903Y-60631102D01*
X118722283Y-60765820D01*
X118550820Y-60937283D01*
X118416102Y-61138903D01*
X118384168Y-61216000D01*
X118199843Y-61216000D01*
X118199843Y-60872000D01*
X118192487Y-60797311D01*
X118170701Y-60725492D01*
X118135322Y-60659304D01*
X118087711Y-60601289D01*
X118029696Y-60553678D01*
X117963508Y-60518299D01*
X117891689Y-60496513D01*
X117817000Y-60489157D01*
X116117000Y-60489157D01*
X116042311Y-60496513D01*
X115970492Y-60518299D01*
X115904304Y-60553678D01*
X115846289Y-60601289D01*
X115798678Y-60659304D01*
X115763299Y-60725492D01*
X115741513Y-60797311D01*
X115734157Y-60872000D01*
X115734157Y-62293046D01*
X115706322Y-62384808D01*
X115696553Y-62484000D01*
X115699001Y-62508856D01*
X115699000Y-64336287D01*
X115645587Y-64358412D01*
X115452157Y-64487658D01*
X115287658Y-64652157D01*
X115158412Y-64845587D01*
X115069386Y-65060515D01*
X115024000Y-65288682D01*
X114906000Y-65288682D01*
X114906000Y-61724854D01*
X114908448Y-61700000D01*
X114898678Y-61600807D01*
X114869745Y-61505425D01*
X114853560Y-61475146D01*
X114822759Y-61417521D01*
X114759527Y-61340473D01*
X114740220Y-61324628D01*
X114275376Y-60859785D01*
X114259527Y-60840473D01*
X114182479Y-60777241D01*
X114094575Y-60730255D01*
X113999193Y-60701322D01*
X113924854Y-60694000D01*
X113924846Y-60694000D01*
X113900000Y-60691553D01*
X113875154Y-60694000D01*
X109224845Y-60694000D01*
X109199999Y-60691553D01*
X109175153Y-60694000D01*
X109175146Y-60694000D01*
X109100807Y-60701322D01*
X109005425Y-60730255D01*
X108917521Y-60777241D01*
X108840473Y-60840473D01*
X108824624Y-60859785D01*
X108559785Y-61124624D01*
X108540473Y-61140473D01*
X108477241Y-61217521D01*
X108430255Y-61305426D01*
X108401322Y-61400808D01*
X108394000Y-61475147D01*
X108394000Y-61475154D01*
X108391553Y-61500000D01*
X108394000Y-61524847D01*
X108394000Y-62096386D01*
X108359219Y-62110793D01*
X108149410Y-62250982D01*
X107970982Y-62429410D01*
X107830793Y-62639219D01*
X107789048Y-62740000D01*
X106855592Y-62740000D01*
X106806000Y-62690409D01*
X106806000Y-61924854D01*
X106808448Y-61900000D01*
X106798678Y-61800807D01*
X106769745Y-61705425D01*
X106753560Y-61675146D01*
X106722759Y-61617521D01*
X106659527Y-61540473D01*
X106640215Y-61524624D01*
X106475376Y-61359785D01*
X106459527Y-61340473D01*
X106382479Y-61277241D01*
X106294575Y-61230255D01*
X106199193Y-61201322D01*
X106124854Y-61194000D01*
X106124846Y-61194000D01*
X106100000Y-61191553D01*
X106075154Y-61194000D01*
X98524845Y-61194000D01*
X98499999Y-61191553D01*
X98475153Y-61194000D01*
X98475146Y-61194000D01*
X98414229Y-61200000D01*
X98400806Y-61201322D01*
X98378607Y-61208056D01*
X98305425Y-61230255D01*
X98217521Y-61277241D01*
X98140473Y-61340473D01*
X98124624Y-61359785D01*
X97830781Y-61653628D01*
X97811474Y-61669473D01*
X97748242Y-61746521D01*
X97723127Y-61793508D01*
X97701255Y-61834426D01*
X97672322Y-61929808D01*
X97662553Y-62029000D01*
X97665001Y-62053856D01*
X97665001Y-62521157D01*
X97321000Y-62521157D01*
X97246311Y-62528513D01*
X97174492Y-62550299D01*
X97108304Y-62585678D01*
X97050289Y-62633289D01*
X97002678Y-62691304D01*
X96967299Y-62757492D01*
X96945513Y-62829311D01*
X96938157Y-62904000D01*
X96938157Y-64604000D01*
X96945513Y-64678689D01*
X96967299Y-64750508D01*
X97002678Y-64816696D01*
X97050289Y-64874711D01*
X97108304Y-64922322D01*
X97174492Y-64957701D01*
X97246311Y-64979487D01*
X97321000Y-64986843D01*
X97665001Y-64986843D01*
X97665000Y-67384288D01*
X97611587Y-67406412D01*
X97418157Y-67535658D01*
X97253658Y-67700157D01*
X97124412Y-67893587D01*
X97035386Y-68108515D01*
X96990000Y-68336682D01*
X96990000Y-68569318D01*
X97035386Y-68797485D01*
X97057510Y-68850898D01*
X95859781Y-70048628D01*
X95840474Y-70064473D01*
X95777242Y-70141521D01*
X95752127Y-70188508D01*
X95730255Y-70229426D01*
X95701322Y-70324808D01*
X95691553Y-70424000D01*
X92127000Y-70424000D01*
X92127000Y-63127000D01*
X96000000Y-63127000D01*
X96024776Y-63124560D01*
X96048601Y-63117333D01*
X96070557Y-63105597D01*
X96089803Y-63089803D01*
X96105597Y-63070557D01*
X96117333Y-63048601D01*
X96124560Y-63024776D01*
X96127000Y-63000000D01*
X96127000Y-58127000D01*
X148873000Y-58127000D01*
X148873000Y-62000000D01*
G04 #@! TD*
M02*
