G04 #@! TF.GenerationSoftware,KiCad,Pcbnew,(5.1.6)-1*
G04 #@! TF.CreationDate,2020-08-10T15:15:50+02:00*
G04 #@! TF.ProjectId,arduinoUno-BMSmodule,61726475-696e-46f5-956e-6f2d424d536d,rev?*
G04 #@! TF.SameCoordinates,Original*
G04 #@! TF.FileFunction,Soldermask,Top*
G04 #@! TF.FilePolarity,Negative*
%FSLAX46Y46*%
G04 Gerber Fmt 4.6, Leading zero omitted, Abs format (unit mm)*
G04 Created by KiCad (PCBNEW (5.1.6)-1) date 2020-08-10 15:15:50*
%MOMM*%
%LPD*%
G01*
G04 APERTURE LIST*
G04 #@! TA.AperFunction,Profile*
%ADD10C,0.050000*%
G04 #@! TD*
%ADD11C,1.300000*%
%ADD12O,2.500000X2.500000*%
%ADD13C,2.500000*%
%ADD14C,2.200000*%
%ADD15O,1.800000X1.800000*%
%ADD16R,1.800000X1.800000*%
%ADD17O,1.700000X1.700000*%
%ADD18C,1.700000*%
%ADD19C,1.900000*%
%ADD20R,1.900000X1.900000*%
%ADD21R,1.000000X0.900000*%
%ADD22R,1.700000X1.700000*%
G04 APERTURE END LIST*
D10*
X154000000Y-57000000D02*
X154000000Y-57900000D01*
X91000000Y-57000000D02*
X154000000Y-57000000D01*
X153484000Y-96000000D02*
X154000000Y-96000000D01*
X91000000Y-96000000D02*
X91000000Y-95900000D01*
X91000000Y-95900000D02*
X91000000Y-94973000D01*
X91000000Y-94973000D02*
X91000000Y-57000000D01*
X93921000Y-96000000D02*
X91000000Y-96000000D01*
X153484000Y-96000000D02*
X93921000Y-96000000D01*
X154000000Y-57900000D02*
X154000000Y-96000000D01*
D11*
G04 #@! TO.C,C3*
X112395000Y-75311000D03*
X114395000Y-75311000D03*
G04 #@! TD*
D12*
G04 #@! TO.C,R4*
X120698000Y-89154000D03*
D13*
X98298000Y-89154000D03*
G04 #@! TD*
D11*
G04 #@! TO.C,C5*
X139732000Y-72390000D03*
X141732000Y-72390000D03*
G04 #@! TD*
G04 #@! TO.C,C4*
X133763000Y-72517000D03*
X135763000Y-72517000D03*
G04 #@! TD*
G04 #@! TO.C,C2*
X112400000Y-69400000D03*
X114400000Y-69400000D03*
G04 #@! TD*
G04 #@! TO.C,C1*
X112400000Y-81100000D03*
X114400000Y-81100000D03*
G04 #@! TD*
D14*
G04 #@! TO.C,H4*
X151003000Y-59817000D03*
G04 #@! TD*
G04 #@! TO.C,H3*
X150876000Y-92075000D03*
G04 #@! TD*
G04 #@! TO.C,H2*
X94107000Y-92456000D03*
G04 #@! TD*
G04 #@! TO.C,H1*
X93980000Y-60071000D03*
G04 #@! TD*
D15*
G04 #@! TO.C,J3*
X149987000Y-86487000D03*
D16*
X147447000Y-86487000D03*
G04 #@! TD*
D17*
G04 #@! TO.C,R8*
X126365000Y-65405000D03*
D18*
X116205000Y-65405000D03*
G04 #@! TD*
D19*
G04 #@! TO.C,D1*
X108966000Y-63246000D03*
D20*
X111506000Y-63246000D03*
G04 #@! TD*
D16*
G04 #@! TO.C,J1*
X98171000Y-63754000D03*
X103251000Y-63754000D03*
G04 #@! TD*
G04 #@! TO.C,U1*
G36*
G01*
X124168000Y-71913000D02*
X124168000Y-71353000D01*
G75*
G02*
X124238000Y-71283000I70000J0D01*
G01*
X125698000Y-71283000D01*
G75*
G02*
X125768000Y-71353000I0J-70000D01*
G01*
X125768000Y-71913000D01*
G75*
G02*
X125698000Y-71983000I-70000J0D01*
G01*
X124238000Y-71983000D01*
G75*
G02*
X124168000Y-71913000I0J70000D01*
G01*
G37*
G36*
G01*
X124168000Y-72863000D02*
X124168000Y-72303000D01*
G75*
G02*
X124238000Y-72233000I70000J0D01*
G01*
X125698000Y-72233000D01*
G75*
G02*
X125768000Y-72303000I0J-70000D01*
G01*
X125768000Y-72863000D01*
G75*
G02*
X125698000Y-72933000I-70000J0D01*
G01*
X124238000Y-72933000D01*
G75*
G02*
X124168000Y-72863000I0J70000D01*
G01*
G37*
G36*
G01*
X124168000Y-73813000D02*
X124168000Y-73253000D01*
G75*
G02*
X124238000Y-73183000I70000J0D01*
G01*
X125698000Y-73183000D01*
G75*
G02*
X125768000Y-73253000I0J-70000D01*
G01*
X125768000Y-73813000D01*
G75*
G02*
X125698000Y-73883000I-70000J0D01*
G01*
X124238000Y-73883000D01*
G75*
G02*
X124168000Y-73813000I0J70000D01*
G01*
G37*
G36*
G01*
X127268000Y-73813000D02*
X127268000Y-73253000D01*
G75*
G02*
X127338000Y-73183000I70000J0D01*
G01*
X128798000Y-73183000D01*
G75*
G02*
X128868000Y-73253000I0J-70000D01*
G01*
X128868000Y-73813000D01*
G75*
G02*
X128798000Y-73883000I-70000J0D01*
G01*
X127338000Y-73883000D01*
G75*
G02*
X127268000Y-73813000I0J70000D01*
G01*
G37*
G36*
G01*
X127268000Y-72863000D02*
X127268000Y-72303000D01*
G75*
G02*
X127338000Y-72233000I70000J0D01*
G01*
X128798000Y-72233000D01*
G75*
G02*
X128868000Y-72303000I0J-70000D01*
G01*
X128868000Y-72863000D01*
G75*
G02*
X128798000Y-72933000I-70000J0D01*
G01*
X127338000Y-72933000D01*
G75*
G02*
X127268000Y-72863000I0J70000D01*
G01*
G37*
G36*
G01*
X127268000Y-71913000D02*
X127268000Y-71353000D01*
G75*
G02*
X127338000Y-71283000I70000J0D01*
G01*
X128798000Y-71283000D01*
G75*
G02*
X128868000Y-71353000I0J-70000D01*
G01*
X128868000Y-71913000D01*
G75*
G02*
X128798000Y-71983000I-70000J0D01*
G01*
X127338000Y-71983000D01*
G75*
G02*
X127268000Y-71913000I0J70000D01*
G01*
G37*
G04 #@! TD*
D17*
G04 #@! TO.C,TH1*
X138938000Y-79883000D03*
D18*
X141478000Y-79883000D03*
G04 #@! TD*
D17*
G04 #@! TO.C,R10*
X129413000Y-65405000D03*
D18*
X139573000Y-65405000D03*
G04 #@! TD*
D17*
G04 #@! TO.C,R9*
X124460000Y-78359000D03*
D18*
X134620000Y-78359000D03*
G04 #@! TD*
D17*
G04 #@! TO.C,R7*
X124460000Y-87503000D03*
D18*
X134620000Y-87503000D03*
G04 #@! TD*
D17*
G04 #@! TO.C,R6*
X117856000Y-80772000D03*
D18*
X117856000Y-70612000D03*
G04 #@! TD*
D17*
G04 #@! TO.C,R5*
X98171000Y-78613000D03*
D18*
X98171000Y-68453000D03*
G04 #@! TD*
D17*
G04 #@! TO.C,R3*
X102743000Y-78613000D03*
D18*
X102743000Y-68453000D03*
G04 #@! TD*
D17*
G04 #@! TO.C,R2*
X107100000Y-68440000D03*
D18*
X107100000Y-78600000D03*
G04 #@! TD*
D17*
G04 #@! TO.C,R1*
X124460000Y-83185000D03*
D18*
X134620000Y-83185000D03*
G04 #@! TD*
D21*
G04 #@! TO.C,Q1*
X105442000Y-81976000D03*
X107442000Y-81026000D03*
X107442000Y-82926000D03*
G04 #@! TD*
D17*
G04 #@! TO.C,L1*
X121285000Y-70612000D03*
D18*
X121285000Y-80772000D03*
G04 #@! TD*
D15*
G04 #@! TO.C,J8*
X137922000Y-61722000D03*
D16*
X135382000Y-61722000D03*
G04 #@! TD*
D15*
G04 #@! TO.C,J7*
X100965000Y-82042000D03*
D16*
X98425000Y-82042000D03*
G04 #@! TD*
D15*
G04 #@! TO.C,J6*
X129413000Y-61595000D03*
D16*
X126873000Y-61595000D03*
G04 #@! TD*
D15*
G04 #@! TO.C,J5*
X119507000Y-61722000D03*
D16*
X116967000Y-61722000D03*
G04 #@! TD*
D15*
G04 #@! TO.C,J4*
X150368000Y-80264000D03*
D16*
X147828000Y-80264000D03*
G04 #@! TD*
D15*
G04 #@! TO.C,J2*
X141859000Y-86487000D03*
D16*
X139319000Y-86487000D03*
G04 #@! TD*
D19*
G04 #@! TO.C,D2*
X144780000Y-62484000D03*
D20*
X144780000Y-65024000D03*
G04 #@! TD*
D18*
G04 #@! TO.C,C6*
X145288000Y-72390000D03*
D22*
X147788000Y-72390000D03*
G04 #@! TD*
M02*
